<svg width="119.644531" height="13.610352" viewBox="0 0 119.645 13.6104" fill="none" xmlns="http://www.w3.org/2000/svg" xmlns:xlink="http://www.w3.org/1999/xlink">
	<desc>
			Created with Pixso.
	</desc>
	<defs/>
	<path id="© Copyright 2021" d="M58.46 0.88C58.46 1.37 58.03 1.77 57.52 1.77C57 1.77 56.58 1.37 56.58 0.88C56.58 0.4 57 0 57.52 0C58.03 0 58.46 0.4 58.46 0.88ZM10.49 5.49C10.5 8.39 8.15 10.74 5.24 10.74C2.36 10.74 -0.01 8.39 -0.01 5.49C0 2.6 2.36 0.24 5.24 0.24C8.15 0.24 10.49 2.6 10.49 5.49ZM20.73 0.26C22.88 0.26 24.59 1.54 24.93 3.71L23.38 3.71C23.13 2.39 22.04 1.67 20.74 1.67C18.99 1.67 17.68 3.02 17.68 5.49C17.68 7.98 18.99 9.32 20.74 9.32C22.03 9.32 23.12 8.6 23.38 7.3L24.93 7.31C24.6 9.32 22.96 10.72 20.73 10.72C18.08 10.72 16.15 8.75 16.15 5.49C16.15 2.24 18.09 0.26 20.73 0.26ZM92.91 10.58L86.21 10.58L86.21 9.47L89.66 5.9C90.75 4.74 91.29 4.1 91.29 3.2C91.29 2.18 90.5 1.55 89.47 1.55C88.37 1.55 87.66 2.26 87.67 3.35L86.2 3.35C86.2 1.5 87.6 0.26 89.5 0.26C91.42 0.26 92.75 1.52 92.75 3.15C92.75 4.29 92.22 5.19 90.35 7.07L88.33 9.19L88.33 9.27L92.91 9.27L92.91 10.58ZM102.07 5.5C102.07 8.83 100.7 10.75 98.35 10.75C95.99 10.75 94.61 8.83 94.61 5.5C94.62 2.18 96.01 0.26 98.35 0.26C100.68 0.26 102.07 2.19 102.07 5.5ZM110.54 10.58L103.84 10.58L103.84 9.47L107.29 5.9C108.38 4.74 108.92 4.1 108.92 3.2C108.92 2.18 108.13 1.55 107.1 1.55C106 1.55 105.29 2.26 105.3 3.35L103.83 3.35C103.83 1.5 105.23 0.26 107.13 0.26C109.05 0.26 110.38 1.52 110.38 3.15C110.38 4.29 109.85 5.19 107.98 7.07L105.96 9.19L105.96 9.27L110.54 9.27L110.54 10.58ZM72.21 4.13C71.15 4.13 70.38 4.83 70.38 6.05L70.38 10.58L68.89 10.58L68.89 0.4L70.36 0.4L70.36 4.19L70.45 4.19C70.81 3.37 71.53 2.85 72.72 2.85C74.29 2.85 75.33 3.82 75.33 5.73L75.33 10.58L73.84 10.58L73.84 5.9C73.84 4.79 73.23 4.13 72.21 4.13ZM116.82 8.59L112 8.59L112 7.35L116.4 0.4L118.29 0.4L118.29 7.29L119.64 7.29L119.64 8.59L118.29 8.59L118.29 10.58L116.82 10.58L116.82 8.59ZM79.32 2.95L80.88 2.95L80.88 4.14L79.32 4.14L79.32 8.34C79.32 9.2 79.75 9.36 80.23 9.36C80.47 9.36 80.65 9.32 80.75 9.3L81.02 10.53C80.85 10.59 80.53 10.68 80.06 10.68C78.89 10.71 77.83 10.04 77.83 8.65L77.83 4.14L76.71 4.14L76.71 2.95L77.83 2.95L77.83 1.12L79.32 1.12L79.32 2.95ZM1.32 5.5C1.31 7.65 3.08 9.42 5.24 9.42C7.43 9.42 9.18 7.66 9.18 5.5C9.17 3.32 7.42 1.56 5.24 1.56C3.09 1.56 1.32 3.33 1.32 5.5ZM96.14 5.5C96.14 8.04 96.97 9.43 98.35 9.43C99.72 9.43 100.55 8.04 100.55 5.5C100.55 2.96 99.71 1.56 98.35 1.56C96.97 1.56 96.14 2.96 96.14 5.5ZM113.61 7.29L116.83 7.29L116.83 2.23L116.75 2.23L113.61 7.21L113.61 7.29ZM5.29 8.4C3.69 8.4 2.39 7.09 2.39 5.49C2.39 3.89 3.69 2.59 5.29 2.59C6.69 2.59 7.86 3.58 8.03 4.89L6.74 4.89C6.61 4.27 5.99 3.83 5.29 3.83C4.38 3.83 3.63 4.57 3.63 5.49C3.63 6.41 4.38 7.15 5.29 7.15C5.99 7.15 6.53 6.71 6.66 6.1L7.95 6.1C7.78 7.41 6.69 8.4 5.29 8.4ZM52.87 10.58L51.39 10.58L51.39 2.95L52.83 2.95L52.83 4.16L52.9 4.16C53.18 3.34 53.95 2.83 54.84 2.83C55.03 2.83 55.32 2.85 55.47 2.87L55.47 4.29C55.35 4.25 55.01 4.2 54.7 4.2C53.65 4.2 52.87 4.92 52.87 5.92L52.87 10.58ZM33.43 6.8C33.43 9.16 32.02 10.74 29.87 10.74C27.72 10.74 26.31 9.16 26.31 6.8C26.31 4.42 27.72 2.85 29.87 2.85C32.02 2.85 33.43 4.42 33.43 6.8ZM36.57 13.45L35.08 13.45L35.08 2.95L36.54 2.95L36.54 4.19L36.66 4.19C36.93 3.71 37.44 2.85 38.85 2.85C40.7 2.85 42.06 4.31 42.06 6.78C42.06 9.25 40.72 10.73 38.87 10.73C37.48 10.73 36.93 9.88 36.66 9.39L36.57 9.39L36.57 13.45ZM66.9 10.75C66.9 12.72 65.4 13.61 63.45 13.61C61.63 13.61 60.61 12.81 60.21 11.88L61.48 11.35C61.75 11.79 62.23 12.41 63.47 12.41C64.6 12.41 65.42 11.89 65.42 10.69L65.42 9.19L65.32 9.19C65.05 9.68 64.51 10.47 63.11 10.47C61.31 10.47 59.92 9.17 59.92 6.74C59.92 4.31 61.28 2.85 63.12 2.85C64.54 2.85 65.07 3.71 65.33 4.19L65.44 4.19L65.44 2.95L66.9 2.95L66.9 10.75ZM46.84 11.6C46.4 12.81 45.63 13.45 44.4 13.45C43.95 13.45 43.56 13.36 43.38 13.28L43.74 12.06C44.56 12.29 45.09 12.2 45.47 11.19L45.65 10.68L42.85 2.95L44.45 2.95L46.38 8.87L46.46 8.87L48.4 2.95L49.99 2.95L46.84 11.6ZM58.25 10.58L56.77 10.58L56.77 2.95L58.25 2.95L58.25 10.58ZM27.81 6.8C27.81 8.26 28.47 9.49 29.88 9.49C31.27 9.49 31.93 8.26 31.93 6.8C31.93 5.33 31.27 4.09 29.88 4.09C28.47 4.09 27.81 5.33 27.81 6.8ZM38.54 4.11C37.24 4.11 36.54 5.17 36.54 6.77C36.54 8.37 37.26 9.47 38.54 9.47C39.86 9.47 40.56 8.3 40.56 6.77C40.56 5.25 39.88 4.11 38.54 4.11ZM61.42 6.71C61.42 8.22 62.11 9.24 63.44 9.24C64.72 9.24 65.43 8.29 65.43 6.71C65.43 5.17 64.73 4.11 63.44 4.11C62.1 4.11 61.42 5.25 61.42 6.71Z" fill="#B3B3B3" fill-opacity="1.000000" fill-rule="evenodd"/>
</svg>
