<svg width="1259.000000" height="389.999878" viewBox="0 0 1259 390" fill="none" xmlns="http://www.w3.org/2000/svg" xmlns:xlink="http://www.w3.org/1999/xlink">
	<desc>
			Created with Pixso.
	</desc>
	<defs>
		<filter id="filter_3_2979_dd" x="0.000000" y="0.000000" width="1259.000000" height="263.794434" filterUnits="userSpaceOnUse" color-interpolation-filters="sRGB">
			<feFlood flood-opacity="0" result="BackgroundImageFix"/>
			<feColorMatrix in="SourceAlpha" type="matrix" values="0 0 0 0 0 0 0 0 0 0 0 0 0 0 0 0 0 0 127 0" result="hardAlpha"/>
			<feOffset dx="0" dy="10"/>
			<feGaussianBlur stdDeviation="13.3333"/>
			<feComposite in2="hardAlpha" operator="out" k2="-1" k3="1"/>
			<feColorMatrix type="matrix" values="0 0 0 0 0 0 0 0 0 0 0 0 0 0 0 0 0 0 0.15 0"/>
			<feBlend mode="normal" in2="BackgroundImageFix" result="effect_dropShadow_1"/>
			<feBlend mode="normal" in="SourceGraphic" in2="effect_dropShadow_1" result="shape"/>
		</filter>
		<filter id="filter_3_2981_dd" x="35.000000" y="27.000000" width="1189.000000" height="39.407227" filterUnits="userSpaceOnUse" color-interpolation-filters="sRGB">
			<feFlood flood-opacity="0" result="BackgroundImageFix"/>
			<feColorMatrix in="SourceAlpha" type="matrix" values="0 0 0 0 0 0 0 0 0 0 0 0 0 0 0 0 0 0 127 0" result="hardAlpha"/>
			<feOffset dx="0" dy="2"/>
			<feGaussianBlur stdDeviation="1.66667"/>
			<feComposite in2="hardAlpha" operator="out" k2="-1" k3="1"/>
			<feColorMatrix type="matrix" values="0 0 0 0 0 0 0 0 0 0 0 0 0 0 0 0 0 0 0.15 0"/>
			<feBlend mode="normal" in2="BackgroundImageFix" result="effect_dropShadow_1"/>
			<feBlend mode="normal" in="SourceGraphic" in2="effect_dropShadow_1" result="shape"/>
		</filter>
		<filter id="filter_3_2996_dd" x="589.500000" y="77.193604" width="374.750000" height="312.806274" filterUnits="userSpaceOnUse" color-interpolation-filters="sRGB">
			<feFlood flood-opacity="0" result="BackgroundImageFix"/>
			<feColorMatrix in="SourceAlpha" type="matrix" values="0 0 0 0 0 0 0 0 0 0 0 0 0 0 0 0 0 0 127 0" result="hardAlpha"/>
			<feOffset dx="0" dy="10"/>
			<feGaussianBlur stdDeviation="13.3333"/>
			<feComposite in2="hardAlpha" operator="out" k2="-1" k3="1"/>
			<feColorMatrix type="matrix" values="0 0 0 0 0 0 0 0 0 0 0 0 0 0 0 0 0 0 0.15 0"/>
			<feBlend mode="normal" in2="BackgroundImageFix" result="effect_dropShadow_1"/>
			<feBlend mode="normal" in="SourceGraphic" in2="effect_dropShadow_1" result="shape"/>
		</filter>
		<filter id="filter_3_2998_dd" x="624.500000" y="104.193604" width="304.750000" height="39.407227" filterUnits="userSpaceOnUse" color-interpolation-filters="sRGB">
			<feFlood flood-opacity="0" result="BackgroundImageFix"/>
			<feColorMatrix in="SourceAlpha" type="matrix" values="0 0 0 0 0 0 0 0 0 0 0 0 0 0 0 0 0 0 127 0" result="hardAlpha"/>
			<feOffset dx="0" dy="2"/>
			<feGaussianBlur stdDeviation="1.66667"/>
			<feComposite in2="hardAlpha" operator="out" k2="-1" k3="1"/>
			<feColorMatrix type="matrix" values="0 0 0 0 0 0 0 0 0 0 0 0 0 0 0 0 0 0 0.15 0"/>
			<feBlend mode="normal" in2="BackgroundImageFix" result="effect_dropShadow_1"/>
			<feBlend mode="normal" in="SourceGraphic" in2="effect_dropShadow_1" result="shape"/>
		</filter>
		<linearGradient x1="629.500000" y1="30.000000" x2="629.500000" y2="59.407112" id="paint_linear_3_2981_0" gradientUnits="userSpaceOnUse">
			<stop stop-color="#4D4D4D"/>
			<stop offset="1.000000" stop-color="#262626"/>
		</linearGradient>
		<linearGradient x1="776.875000" y1="107.193604" x2="776.875000" y2="136.600723" id="paint_linear_3_2998_0" gradientUnits="userSpaceOnUse">
			<stop stop-color="#4D4D4D"/>
			<stop offset="1.000000" stop-color="#262626"/>
		</linearGradient>
	</defs>
	<g filter="url(#filter_3_2979_dd)">
		<rect id="back" x="40.000000" y="30.000000" rx="7.000000" width="1179.000000" height="183.794464" fill="#FFFFFF" fill-opacity="1.000000"/>
	</g>
	<g filter="url(#filter_3_2981_dd)">
		<path id="back" d="M47 30L1212 30C1215.87 30 1219 33.13 1219 37L1219 59.4L40 59.4L40 37C40 33.13 43.13 30 47 30Z" fill="url(#paint_linear_3_2981_0)" fill-opacity="1.000000" fill-rule="evenodd"/>
	</g>
	<ellipse id="01" cx="54.737305" cy="44.703369" rx="4.912499" ry="4.901186" fill="#FF2F54" fill-opacity="1.000000"/>
	<ellipse id="02" cx="70.703125" cy="44.703613" rx="4.912499" ry="4.901186" fill="#FFA630" fill-opacity="1.000000"/>
	<ellipse id="03" cx="86.667969" cy="44.703613" rx="4.912499" ry="4.901186" fill="#10BB87" fill-opacity="1.000000"/>
	<path id="произвели изделий за 2019 год" d="M218.92 136.26C219.61 136.26 219.89 135.8 219.89 135.29L220.99 135.29C220.99 136.36 220.19 137.12 218.92 137.12C217.67 137.12 216.87 136.36 216.87 135.29L217.97 135.29C217.97 135.8 218.22 136.26 218.92 136.26ZM99.52 148.33L98.35 148.33L98.35 137.83L99.48 137.83L99.48 139.05L99.62 139.05C99.88 138.65 100.34 137.74 101.83 137.74C103.76 137.74 105.09 139.27 105.09 141.67C105.09 144.1 103.76 145.63 101.85 145.63C100.38 145.63 99.88 144.71 99.62 144.3L99.52 144.3L99.52 148.33ZM113.44 141.69C113.44 144.06 112.05 145.63 109.98 145.63C107.91 145.63 106.52 144.06 106.52 141.69C106.52 139.3 107.91 137.74 109.98 137.74C112.05 137.74 113.44 139.3 113.44 141.69ZM125.97 145.63C124.35 145.63 123.15 144.77 123.11 143.52L124.36 143.52C124.41 144.21 125.03 144.57 125.95 144.57C126.89 144.57 127.66 144.21 127.66 143.34C127.66 142.58 127.06 142.07 126.13 142.07L124.82 142.07L124.82 141.02L126.13 141.02C127.06 141.02 127.5 140.54 127.5 139.9C127.5 139.22 127 138.77 126.11 138.77C125.21 138.77 124.55 139.21 124.52 139.84L123.29 139.84C123.33 138.61 124.46 137.74 126.05 137.74C127.66 137.74 128.69 138.65 128.69 139.86C128.69 140.72 128.14 141.25 127.42 141.47L127.42 141.55C128.28 141.61 128.85 142.39 128.85 143.34C128.85 144.74 127.64 145.63 125.97 145.63ZM144.6 143.7C144.24 144.85 143.11 145.63 141.56 145.63C139.35 145.63 138 144.06 138 141.71C138 139.37 139.37 137.74 141.44 137.74C143.03 137.74 144.72 138.71 144.72 141.55L144.72 142.05L139.18 142.05C139.23 143.69 140.18 144.57 141.56 144.57C142.48 144.57 143.17 144.18 143.47 143.38L144.6 143.7ZM177.79 145.63C176.17 145.63 174.97 144.77 174.93 143.52L176.18 143.52C176.24 144.21 176.85 144.57 177.78 144.57C178.71 144.57 179.48 144.21 179.48 143.34C179.48 142.58 178.89 142.07 177.95 142.07L176.64 142.07L176.64 141.02L177.95 141.02C178.89 141.02 179.32 140.54 179.32 139.9C179.32 139.22 178.82 138.77 177.93 138.77C177.04 138.77 176.38 139.21 176.34 139.84L175.11 139.84C175.15 138.61 176.28 137.74 177.87 137.74C179.48 137.74 180.52 138.65 180.52 139.86C180.52 140.72 179.97 141.25 179.25 141.47L179.25 141.55C180.11 141.61 180.68 142.39 180.68 143.34C180.68 144.74 179.46 145.63 177.79 145.63ZM197.3 143.7C196.94 144.85 195.81 145.63 194.26 145.63C192.05 145.63 190.7 144.06 190.7 141.71C190.7 139.37 192.07 137.74 194.14 137.74C195.73 137.74 197.42 138.71 197.42 141.55L197.42 142.05L191.88 142.05C191.93 143.69 192.88 144.57 194.26 144.57C195.18 144.57 195.87 144.18 196.17 143.38L197.3 143.7ZM91.37 145.47L90.19 145.47L90.19 137.83L96.2 137.83L96.2 145.47L95.03 145.47L95.03 138.93L91.37 138.93L91.37 145.47ZM116.4 137.83L116.4 143.74L120.08 137.83L121.43 137.83L121.43 145.47L120.26 145.47L120.26 139.56L116.6 145.47L115.23 145.47L115.23 137.83L116.4 137.83ZM134.1 145.47L130.5 145.47L130.5 137.83L133.63 137.83C135.27 137.83 136.31 138.64 136.31 139.86C136.31 140.79 135.7 141.27 134.84 141.45C135.68 141.58 136.59 142.22 136.59 143.42C136.59 144.59 135.65 145.47 134.1 145.47ZM146.24 145.47L145.84 145.47L145.84 144.38L146.12 144.38C147.03 144.38 147.29 143.78 147.39 141.21L147.53 137.83L152.62 137.83L152.62 145.47L151.44 145.47L151.44 138.93L148.64 138.93L148.52 141.65C148.41 144.16 147.92 145.47 146.24 145.47ZM155.94 137.83L155.94 143.74L159.62 137.83L160.97 137.83L160.97 145.47L159.8 145.47L159.8 139.56L156.14 145.47L154.76 145.47L154.76 137.83L155.94 137.83ZM168.23 137.83L168.23 143.74L171.91 137.83L173.26 137.83L173.26 145.47L172.09 145.47L172.09 139.56L168.43 145.47L167.05 145.47L167.05 137.83L168.23 137.83ZM182.69 147.66L181.51 147.66L181.51 144.38L182.15 144.38C182.76 143.73 183.04 143 183.22 140.86L183.48 137.83L188.33 137.83L188.33 144.38L189.51 144.38L189.51 147.66L188.33 147.66L188.33 145.47L182.69 145.47L182.69 147.66ZM198.93 145.47L198.53 145.47L198.53 144.38L198.81 144.38C199.73 144.38 199.99 143.78 200.09 141.21L200.23 137.83L205.32 137.83L205.32 145.47L204.14 145.47L204.14 138.93L201.34 138.93L201.22 141.65C201.11 144.16 200.62 145.47 198.93 145.47ZM208.64 137.83L208.64 143.74L212.32 137.83L213.67 137.83L213.67 145.47L212.49 145.47L212.49 139.56L208.84 145.47L207.46 145.47L207.46 137.83L208.64 137.83ZM216.99 137.83L216.99 143.74L220.67 137.83L222.02 137.83L222.02 145.47L220.85 145.47L220.85 139.56L217.19 145.47L215.82 145.47L215.82 137.83L216.99 137.83ZM101.69 138.79C100.26 138.79 99.5 139.94 99.5 141.65C99.5 143.38 100.28 144.57 101.69 144.57C103.16 144.57 103.92 143.28 103.92 141.65C103.92 140.04 103.18 138.79 101.69 138.79ZM107.7 141.69C107.7 143.22 108.41 144.57 109.98 144.57C111.55 144.57 112.27 143.22 112.27 141.69C112.27 140.16 111.55 138.79 109.98 138.79C108.41 138.79 107.7 140.16 107.7 141.69ZM141.44 138.79C140.1 138.79 139.26 139.85 139.18 141.04L143.53 141.04C143.53 139.74 142.71 138.79 141.44 138.79ZM194.14 138.79C192.8 138.79 191.96 139.85 191.88 141.04L196.23 141.04C196.23 139.74 195.41 138.79 194.14 138.79ZM131.62 138.91L131.62 141.04L133.63 141.04C134.57 141.04 135.14 140.62 135.14 139.94C135.14 139.3 134.57 138.91 133.63 138.91L131.62 138.91ZM184.37 140.86C184.21 142.45 184.02 143.67 183.48 144.38L187.16 144.38L187.16 138.93L184.58 138.93L184.37 140.86ZM131.62 142.05L131.62 144.4L134.1 144.4C134.91 144.4 135.39 143.99 135.39 143.32C135.39 142.53 134.91 142.05 134.1 142.05L131.62 142.05ZM132.49 158.55C132.49 156.68 133.83 155.12 135.89 155.15C137.56 155.17 139.43 156.22 139.43 159.96C139.43 163.58 138.02 165.61 135.73 165.61C134.02 165.61 132.81 164.52 132.57 162.9L133.78 162.9C134 163.84 134.66 164.52 135.73 164.52C137.31 164.52 138.28 163.08 138.28 160.58L138.2 160.58C137.64 161.41 136.75 161.93 135.7 161.93C133.95 161.93 132.49 160.52 132.49 158.55ZM115.35 165.47L108.93 165.47L108.93 164.57L112.29 160.9C113.47 159.61 114.02 158.91 114.02 157.97C114.02 156.9 113.17 156.22 112.07 156.22C110.89 156.22 110.14 156.99 110.14 158.15L108.97 158.15C108.97 156.36 110.32 155.15 112.11 155.15C113.9 155.15 115.17 156.4 115.17 157.97C115.17 159.1 114.65 159.98 112.9 161.85L110.62 164.3L110.62 164.38L115.35 164.38L115.35 165.47ZM124.26 160.38C124.26 163.71 122.97 165.61 120.72 165.61C118.47 165.61 117.18 163.71 117.18 160.38C117.18 157.08 118.49 155.15 120.72 155.15C122.95 155.15 124.26 157.08 124.26 160.38ZM128.5 155.29L129.73 155.29L129.73 165.47L128.5 165.47L128.5 156.58L128.43 156.58L125.95 158.23L125.95 156.98L128.5 155.29ZM118.37 160.38C118.37 163.03 119.24 164.52 120.72 164.52C122.2 164.52 123.07 163.03 123.07 160.38C123.07 157.74 122.19 156.22 120.72 156.22C119.25 156.22 118.37 157.74 118.37 160.38ZM138.1 158.53C138.1 157.34 137.17 156.24 135.89 156.24C134.64 156.24 133.69 157.28 133.69 158.55C133.69 159.82 134.6 160.84 135.85 160.84C137.11 160.84 138.1 159.74 138.1 158.53ZM92.58 165.63C90.96 165.63 89.76 164.77 89.72 163.52L90.97 163.52C91.02 164.21 91.64 164.57 92.56 164.57C93.5 164.57 94.27 164.21 94.27 163.34C94.27 162.58 93.67 162.07 92.74 162.07L91.43 162.07L91.43 161.02L92.74 161.02C93.67 161.02 94.11 160.54 94.11 159.9C94.11 159.22 93.61 158.77 92.72 158.77C91.82 158.77 91.16 159.21 91.13 159.84L89.9 159.84C89.94 158.61 91.07 157.74 92.66 157.74C94.27 157.74 95.3 158.65 95.3 159.86C95.3 160.72 94.76 161.25 94.03 161.47L94.03 161.55C94.89 161.61 95.46 162.39 95.46 163.34C95.46 164.74 94.25 165.63 92.58 165.63ZM101.63 164.43C101.39 164.93 100.69 165.65 99.36 165.65C97.91 165.65 96.75 164.79 96.75 163.3C96.75 161.55 98.3 161.24 99.72 161.05C101.11 160.88 101.69 160.93 101.69 160.36L101.69 160.32C101.69 159.34 101.16 158.77 100.08 158.77C98.96 158.77 98.35 159.37 98.09 159.92L96.97 159.52C97.57 158.13 98.88 157.74 100.04 157.74C101.01 157.74 102.86 158.01 102.86 160.44L102.86 165.47L101.69 165.47L101.69 164.43L101.63 164.43ZM157.93 161.69C157.93 164.06 156.53 165.63 154.47 165.63C152.4 165.63 151 164.06 151 161.69C151 159.3 152.4 157.74 154.47 157.74C156.53 157.74 157.93 159.3 157.93 161.69ZM145.34 157.83L150.05 157.83L150.05 158.93L146.51 158.93L146.51 165.47L145.34 165.47L145.34 157.83ZM160.08 167.66L158.9 167.66L158.9 164.38L159.54 164.38C160.15 163.73 160.43 163 160.61 160.86L160.87 157.83L165.72 157.83L165.72 164.38L166.9 164.38L166.9 167.66L165.72 167.66L165.72 165.47L160.08 165.47L160.08 167.66ZM152.18 161.69C152.18 163.22 152.89 164.57 154.47 164.57C156.04 164.57 156.75 163.22 156.75 161.69C156.75 160.16 156.04 158.79 154.47 158.79C152.89 158.79 152.18 160.16 152.18 161.69ZM161.76 160.86C161.6 162.45 161.41 163.67 160.87 164.38L164.55 164.38L164.55 158.93L161.97 158.93L161.76 160.86ZM97.93 163.36C97.93 164.18 98.61 164.59 99.54 164.59C100.93 164.59 101.69 163.66 101.69 162.7L101.69 161.63C101.49 161.87 100.16 162.01 99.66 162.07C98.74 162.19 97.93 162.47 97.93 163.36Z" fill="#B3B3B3" fill-opacity="1.000000" fill-rule="evenodd"/>
	<path id="639 568 штук" d="M108.08 99.43C108.08 97.44 109.55 95.92 111.76 95.94C113.71 95.95 115.64 97.15 115.64 100.86C115.65 104.36 114.09 106.4 111.65 106.4C109.72 106.4 108.39 105.17 108.18 103.49L110 103.49C110.18 104.3 110.77 104.8 111.65 104.8C113.06 104.8 113.85 103.51 113.86 101.33L113.78 101.33C113.29 102.2 112.34 102.74 111.24 102.74C109.45 102.74 108.09 101.35 108.08 99.43ZM97.42 102.89C97.43 104.9 95.95 106.41 93.75 106.4C91.8 106.39 89.86 105.19 89.87 101.46C89.87 97.98 91.41 95.94 93.86 95.94C95.78 95.94 97.11 97.18 97.33 98.82L95.52 98.82C95.32 98.04 94.73 97.53 93.86 97.53C92.45 97.53 91.66 98.84 91.66 100.98L91.72 100.98C92.21 100.1 93.18 99.57 94.27 99.57C96.06 99.57 97.43 100.97 97.42 102.89ZM106.51 103.43C106.52 105.15 104.93 106.4 102.75 106.4C100.6 106.4 99.07 105.21 99.02 103.49L100.89 103.49C100.93 104.32 101.72 104.85 102.75 104.85C103.84 104.85 104.62 104.24 104.61 103.34C104.62 102.42 103.85 101.77 102.57 101.77L101.66 101.77L101.66 100.35L102.57 100.35C103.62 100.35 104.35 99.76 104.35 98.87C104.35 98.01 103.72 97.43 102.77 97.43C101.83 97.43 101.04 97.97 101.01 98.82L99.23 98.82C99.27 97.12 100.8 95.94 102.78 95.94C104.81 95.94 106.14 97.21 106.13 98.76C106.14 99.9 105.4 100.72 104.29 100.96L104.29 101.04C105.72 101.24 106.52 102.16 106.51 103.43ZM137.02 102.89C137.03 104.9 135.55 106.41 133.35 106.4C131.4 106.39 129.46 105.19 129.46 101.46C129.46 97.98 131.01 95.94 133.46 95.94C135.38 95.94 136.71 97.18 136.92 98.82L135.11 98.82C134.92 98.04 134.33 97.53 133.46 97.53C132.04 97.53 131.26 98.84 131.25 100.98L131.32 100.98C131.81 100.1 132.78 99.57 133.87 99.57C135.65 99.57 137.03 100.97 137.02 102.89ZM146.1 103.53C146.09 105.19 144.52 106.4 142.32 106.4C140.09 106.4 138.52 105.19 138.53 103.53C138.52 102.26 139.45 101.19 140.66 101L140.66 100.92C139.61 100.7 138.9 99.77 138.91 98.67C138.9 97.1 140.34 95.94 142.32 95.94C144.28 95.94 145.72 97.1 145.72 98.67C145.72 99.77 145 100.7 143.97 100.92L143.97 101C145.15 101.19 146.09 102.26 146.1 103.53ZM127.96 102.91C127.96 104.94 126.46 106.4 124.31 106.4C122.32 106.4 120.85 105.18 120.79 103.49L122.59 103.49C122.65 104.33 123.39 104.91 124.31 104.91C125.4 104.91 126.18 104.1 126.18 102.96C126.18 101.81 125.38 100.98 124.26 100.98C123.65 100.97 123 101.23 122.66 101.6L120.99 101.33L121.53 96.08L127.43 96.08L127.43 97.62L123.05 97.62L122.76 100.32L122.82 100.32C123.2 99.87 123.93 99.54 124.75 99.54C126.6 99.54 127.96 100.96 127.96 102.91ZM140.7 98.84C140.69 99.73 141.37 100.34 142.32 100.34C143.25 100.34 143.92 99.73 143.93 98.84C143.92 97.97 143.26 97.38 142.32 97.38C141.35 97.38 140.69 97.97 140.7 98.84ZM113.65 99.37C113.65 98.33 112.85 97.43 111.76 97.43C110.68 97.43 109.87 98.3 109.87 99.39C109.88 100.48 110.66 101.34 111.74 101.34C112.82 101.34 113.66 100.43 113.65 99.37ZM151.24 106.26L151.24 98.62L152.97 98.62L152.97 104.78L155.37 104.78L155.37 98.62L157.11 98.62L157.11 104.78L159.51 104.78L159.51 98.62L161.24 98.62L161.24 106.26L151.24 106.26ZM164.67 100.1L162.2 100.1L162.2 98.62L168.88 98.62L168.88 100.1L166.41 100.1L166.41 106.26L164.67 106.26L164.67 100.1ZM174.09 107.19C173.65 108.4 172.84 109.12 171.44 109.12C170.95 109.12 170.51 109.04 170.27 108.94L170.69 107.53C171.47 107.76 172 107.7 172.33 106.83L172.48 106.42L169.71 98.62L171.63 98.62L173.39 104.39L173.46 104.39L175.23 98.62L177.14 98.62L174.09 107.19ZM180.18 106.26L178.39 106.26L178.39 98.62L180.18 98.62L180.18 101.71L180.84 101.71L183.14 98.62L185.3 98.62L182.48 102.37L185.34 106.26L183.16 106.26L181.07 103.38L180.18 103.38L180.18 106.26ZM91.85 102.94C91.86 104.01 92.65 104.91 93.74 104.91C94.82 104.91 95.64 104.04 95.63 102.93C95.64 101.83 94.85 100.98 93.77 100.98C92.69 100.98 91.86 101.88 91.85 102.94ZM131.45 102.94C131.46 104.01 132.25 104.91 133.34 104.91C134.42 104.91 135.24 104.04 135.23 102.93C135.24 101.83 134.45 100.98 133.37 100.98C132.29 100.98 131.46 101.88 131.45 102.94ZM140.43 103.4C140.42 104.34 141.16 104.98 142.32 104.98C143.46 104.98 144.19 104.34 144.2 103.4C144.19 102.43 143.4 101.74 142.32 101.74C141.22 101.74 140.42 102.43 140.43 103.4Z" fill="#000000" fill-opacity="1.000000" fill-rule="evenodd"/>
	<path id="опыта с 2008 года" d="M449.02 145.47L442.59 145.47L442.59 144.57L445.96 140.9C447.13 139.61 447.69 138.91 447.69 137.97C447.69 136.9 446.84 136.22 445.74 136.22C444.56 136.22 443.81 136.99 443.81 138.15L442.63 138.15C442.63 136.36 443.99 135.15 445.78 135.15C447.57 135.15 448.84 136.4 448.84 137.97C448.84 139.1 448.32 139.98 446.57 141.85L444.29 144.3L444.29 144.38L449.02 144.38L449.02 145.47ZM457.93 140.38C457.93 143.71 456.63 145.61 454.39 145.61C452.14 145.61 450.85 143.71 450.85 140.38C450.85 137.08 452.16 135.15 454.39 135.15C456.62 135.15 457.93 137.08 457.93 140.38ZM466.68 140.38C466.68 143.71 465.38 145.61 463.14 145.61C460.89 145.61 459.6 143.71 459.6 140.38C459.6 137.08 460.91 135.15 463.14 135.15C465.37 135.15 466.68 137.08 466.68 140.38ZM475.29 142.77C475.28 144.42 473.86 145.61 471.83 145.61C469.78 145.61 468.36 144.42 468.37 142.77C468.36 141.48 469.22 140.38 470.34 140.18L470.34 140.12C469.36 139.87 468.74 138.94 468.75 137.85C468.74 136.3 470.04 135.15 471.83 135.15C473.6 135.15 474.9 136.3 474.91 137.85C474.9 138.94 474.27 139.87 473.32 140.12L473.32 140.18C474.42 140.38 475.28 141.48 475.29 142.77ZM452.04 140.38C452.04 143.03 452.91 144.52 454.39 144.52C455.87 144.52 456.74 143.03 456.74 140.38C456.74 137.74 455.86 136.22 454.39 136.22C452.91 136.22 452.04 137.74 452.04 140.38ZM460.79 140.38C460.79 143.03 461.66 144.52 463.14 144.52C464.62 144.52 465.49 143.03 465.49 140.38C465.49 137.74 464.61 136.22 463.14 136.22C461.66 136.22 460.79 137.74 460.79 140.38ZM469.94 137.93C469.93 138.99 470.72 139.68 471.83 139.68C472.92 139.68 473.71 138.99 473.72 137.93C473.71 136.9 472.95 136.22 471.83 136.22C470.68 136.22 469.93 136.9 469.94 137.93ZM391.51 141.69C391.51 144.06 390.12 145.63 388.05 145.63C385.98 145.63 384.58 144.06 384.58 141.69C384.58 139.3 385.98 137.74 388.05 137.74C390.12 137.74 391.51 139.3 391.51 141.69ZM423.54 144.43C423.3 144.93 422.61 145.65 421.28 145.65C419.83 145.65 418.67 144.79 418.67 143.3C418.67 141.55 420.22 141.24 421.63 141.05C423.03 140.88 423.6 140.93 423.6 140.36L423.6 140.32C423.6 139.34 423.07 138.77 421.99 138.77C420.87 138.77 420.26 139.37 420 139.92L418.89 139.52C419.49 138.13 420.8 137.74 421.95 137.74C422.93 137.74 424.78 138.01 424.78 140.44L424.78 145.47L423.6 145.47L423.6 144.43L423.54 144.43ZM436.97 143.24C436.77 144.59 435.65 145.63 433.96 145.63C431.81 145.63 430.5 143.98 430.5 141.69C430.5 139.37 431.88 137.74 433.94 137.74C435.55 137.74 436.77 138.69 436.97 140.12L435.79 140.12C435.62 139.42 435 138.79 433.96 138.79C432.59 138.79 431.68 139.92 431.68 141.65C431.68 143.42 432.57 144.57 433.96 144.57C434.88 144.57 435.57 144.08 435.79 143.24L436.97 143.24ZM493.74 141.69C493.74 144.06 492.35 145.63 490.28 145.63C488.22 145.63 486.82 144.06 486.82 141.69C486.82 139.3 488.22 137.74 490.28 137.74C492.35 137.74 493.74 139.3 493.74 141.69ZM508.78 144.43C508.54 144.93 507.84 145.65 506.51 145.65C505.06 145.65 503.9 144.79 503.9 143.3C503.9 141.55 505.45 141.24 506.87 141.05C508.26 140.88 508.84 140.93 508.84 140.36L508.84 140.32C508.84 139.34 508.31 138.77 507.23 138.77C506.11 138.77 505.5 139.37 505.24 139.92L504.12 139.52C504.72 138.13 506.03 137.74 507.18 137.74C508.16 137.74 510.01 138.01 510.01 140.44L510.01 145.47L508.84 145.47L508.84 144.43L508.78 144.43ZM394.47 145.47L393.3 145.47L393.3 137.83L399.3 137.83L399.3 145.47L398.13 145.47L398.13 138.93L394.47 138.93L394.47 145.47ZM402.62 137.83L402.62 140.6L404.65 140.6C406.44 140.6 407.42 141.61 407.42 143C407.42 144.38 406.44 145.47 404.65 145.47L401.45 145.47L401.45 137.83L402.62 137.83ZM409.8 145.47L408.63 145.47L408.63 137.83L409.8 137.83L409.8 145.47ZM414.04 138.93L411.51 138.93L411.51 137.83L417.72 137.83L417.72 138.93L415.21 138.93L415.21 145.47L414.04 145.47L414.04 138.93ZM481.15 137.83L485.87 137.83L485.87 138.93L482.33 138.93L482.33 145.47L481.15 145.47L481.15 137.83ZM495.89 147.66L494.72 147.66L494.72 144.38L495.35 144.38C495.97 143.73 496.24 143 496.43 140.86L496.69 137.83L501.54 137.83L501.54 144.38L502.71 144.38L502.71 147.66L501.54 147.66L501.54 145.47L495.89 145.47L495.89 147.66ZM385.76 141.69C385.76 143.22 386.47 144.57 388.05 144.57C389.62 144.57 390.33 143.22 390.33 141.69C390.33 140.16 389.62 138.79 388.05 138.79C386.47 138.79 385.76 140.16 385.76 141.69ZM488 141.69C488 143.22 488.71 144.57 490.28 144.57C491.85 144.57 492.57 143.22 492.57 141.69C492.57 140.16 491.85 138.79 490.28 138.79C488.71 138.79 488 140.16 488 141.69ZM497.58 140.86C497.42 142.45 497.22 143.67 496.69 144.38L500.36 144.38L500.36 138.93L497.78 138.93L497.58 140.86ZM469.58 142.7C469.57 143.8 470.43 144.52 471.83 144.52C473.2 144.52 474.06 143.8 474.08 142.7C474.06 141.56 473.11 140.74 471.83 140.74C470.52 140.74 469.57 141.56 469.58 142.7ZM419.85 143.36C419.85 144.18 420.52 144.59 421.46 144.59C422.85 144.59 423.6 143.66 423.6 142.7L423.6 141.63C423.4 141.87 422.07 142.01 421.58 142.07C420.66 142.19 419.85 142.47 419.85 143.36ZM505.08 143.36C505.08 144.18 505.76 144.59 506.69 144.59C508.08 144.59 508.84 143.66 508.84 142.7L508.84 141.63C508.64 141.87 507.3 142.01 506.81 142.07C505.89 142.19 505.08 142.47 505.08 143.36ZM404.65 141.69L402.62 141.69L402.62 144.38L404.65 144.38C405.58 144.38 406.24 143.83 406.24 143.06C406.24 142.26 405.58 141.69 404.65 141.69Z" fill="#B3B3B3" fill-opacity="1.000000" fill-rule="evenodd"/>
	<path id="13 лет" d="M398.92 103.43C398.92 105.15 397.34 106.4 395.16 106.4C393.01 106.4 391.48 105.21 391.43 103.49L393.3 103.49C393.34 104.32 394.13 104.85 395.15 104.85C396.25 104.85 397.02 104.24 397.02 103.34C397.02 102.42 396.26 101.77 394.97 101.77L394.07 101.77L394.07 100.35L394.97 100.35C396.03 100.35 396.76 99.76 396.76 98.87C396.76 98.01 396.13 97.43 395.18 97.43C394.24 97.43 393.45 97.97 393.42 98.82L391.64 98.82C391.68 97.12 393.21 95.94 395.19 95.94C397.22 95.94 398.55 97.21 398.54 98.76C398.55 99.9 397.81 100.72 396.7 100.96L396.7 101.04C398.13 101.24 398.92 102.16 398.92 103.43ZM387.16 96.08L388.92 96.08L388.92 106.26L387.07 106.26L387.07 97.87L387.01 97.87L384.63 99.39L384.63 97.7L387.16 96.08ZM419.22 104.21C418.9 105.54 417.68 106.41 415.9 106.41C413.6 106.41 412.2 104.88 412.2 102.49C412.2 100.13 413.62 98.53 415.81 98.53C417.69 98.53 419.3 99.7 419.3 102.38L419.3 102.93L413.98 102.93C413.99 104.24 414.77 105.01 415.93 105.01C416.7 105.01 417.3 104.67 417.54 104.02L419.22 104.21ZM404.15 106.26L403.6 106.26L403.59 104.78L403.85 104.78C404.64 104.78 404.92 104.15 405 102.01L405.14 98.62L410.71 98.62L410.71 106.26L408.97 106.26L408.97 100.1L406.78 100.1L406.66 102.56C406.54 105.11 405.79 106.26 404.15 106.26ZM422.65 100.1L420.18 100.1L420.18 98.62L426.86 98.62L426.86 100.1L424.39 100.1L424.39 106.26L422.65 106.26L422.65 100.1ZM415.83 99.93C414.76 99.93 414.04 100.75 413.98 101.72L417.57 101.72C417.56 100.68 416.87 99.93 415.83 99.93Z" fill="#000000" fill-opacity="1.000000" fill-rule="evenodd"/>
	<path id="сотрудничают с нами на постоянной основе" d="M980.55 143.24C980.35 144.59 979.24 145.63 977.55 145.63C975.4 145.63 974.08 143.98 974.08 141.69C974.08 139.37 975.46 137.74 977.53 137.74C979.14 137.74 980.35 138.69 980.55 140.12L979.38 140.12C979.2 139.42 978.58 138.79 977.55 138.79C976.17 138.79 975.26 139.92 975.26 141.65C975.26 143.42 976.16 144.57 977.55 144.57C978.46 144.57 979.16 144.08 979.38 143.24L980.55 143.24ZM988.82 141.69C988.82 144.06 987.43 145.63 985.36 145.63C983.29 145.63 981.9 144.06 981.9 141.69C981.9 139.3 983.29 137.74 985.36 137.74C987.43 137.74 988.82 139.3 988.82 141.69ZM998.7 148.33L997.53 148.33L997.53 137.83L998.67 137.83L998.67 139.05L998.81 139.05C999.06 138.65 999.52 137.74 1001.02 137.74C1002.95 137.74 1004.28 139.27 1004.28 141.67C1004.28 144.1 1002.95 145.63 1001.04 145.63C999.56 145.63 999.06 144.71 998.81 144.3L998.7 144.3L998.7 148.33ZM1050.73 144.43C1050.49 144.93 1049.8 145.65 1048.47 145.65C1047.01 145.65 1045.86 144.79 1045.86 143.3C1045.86 141.55 1047.41 141.24 1048.81 141.05C1050.22 140.88 1050.79 140.93 1050.79 140.36L1050.79 140.32C1050.79 139.34 1050.26 138.77 1049.18 138.77C1048.06 138.77 1047.44 139.37 1047.18 139.92L1046.07 139.52C1046.68 138.13 1047.99 137.74 1049.14 137.74C1050.12 137.74 1051.97 138.01 1051.97 140.44L1051.97 145.47L1050.79 145.47L1050.79 144.43L1050.73 144.43ZM1053.56 137.83L1054.73 137.83L1054.73 141.17L1056.68 141.17C1056.87 139.08 1058.19 137.74 1060.12 137.74C1062.18 137.74 1063.57 139.3 1063.57 141.69C1063.57 144.06 1062.18 145.63 1060.12 145.63C1058.22 145.63 1056.9 144.31 1056.68 142.27L1054.73 142.27L1054.73 145.47L1053.56 145.47L1053.56 137.83ZM1082.44 143.24C1082.25 144.59 1081.14 145.63 1079.44 145.63C1077.3 145.63 1075.99 143.98 1075.99 141.69C1075.99 139.37 1077.36 137.74 1079.43 137.74C1081.04 137.74 1082.25 138.69 1082.44 140.12L1081.28 140.12C1081.1 139.42 1080.48 138.79 1079.44 138.79C1078.07 138.79 1077.16 139.92 1077.16 141.65C1077.16 143.42 1078.06 144.57 1079.44 144.57C1080.36 144.57 1081.06 144.08 1081.28 143.24L1082.44 143.24ZM1100.77 144.43C1100.53 144.93 1099.82 145.65 1098.5 145.65C1097.05 145.65 1095.89 144.79 1095.89 143.3C1095.89 141.55 1097.43 141.24 1098.86 141.05C1100.25 140.88 1100.82 140.93 1100.82 140.36L1100.82 140.32C1100.82 139.34 1100.3 138.77 1099.22 138.77C1098.1 138.77 1097.49 139.37 1097.23 139.92L1096.11 139.52C1096.71 138.13 1098.02 137.74 1099.17 137.74C1100.15 137.74 1102 138.01 1102 140.44L1102 145.47L1100.82 145.47L1100.82 144.43L1100.77 144.43ZM1139.61 144.43C1139.37 144.93 1138.67 145.65 1137.34 145.65C1135.89 145.65 1134.73 144.79 1134.73 143.3C1134.73 141.55 1136.28 141.24 1137.68 141.05C1139.09 140.88 1139.66 140.93 1139.66 140.36L1139.66 140.32C1139.66 139.34 1139.13 138.77 1138.05 138.77C1136.93 138.77 1136.31 139.37 1136.06 139.92L1134.94 139.52C1135.55 138.13 1136.86 137.74 1138.01 137.74C1138.99 137.74 1140.84 138.01 1140.84 140.44L1140.84 145.47L1139.66 145.47L1139.66 144.43L1139.61 144.43ZM1042.9 137.83L1044.06 137.83L1044.06 145.47L1042.9 145.47L1042.9 142.8C1042.35 142.97 1041.77 143.06 1041.05 143.06C1039.31 143.06 1038.18 142.13 1038.18 140.26L1038.18 137.81L1039.36 137.81L1039.36 140.26C1039.36 141.43 1040.09 141.97 1041.05 141.97C1041.75 141.97 1042.32 141.87 1042.9 141.71L1042.9 137.83ZM992.14 138.93L989.62 138.93L989.62 137.83L995.82 137.83L995.82 138.93L993.32 138.93L993.32 145.47L992.14 145.47L992.14 138.93ZM1008.79 146.58C1008.35 147.77 1007.6 148.33 1006.54 148.33C1006.15 148.33 1005.81 148.25 1005.69 148.19L1005.99 147.16C1006.85 147.38 1007.37 147.27 1007.8 146.11L1008.02 145.51L1005.19 137.83L1006.47 137.83L1008.57 143.92L1008.65 143.92L1010.76 137.83L1012.03 137.83L1008.79 146.58ZM1013.31 147.66L1012.13 147.66L1012.13 144.38L1012.77 144.38C1013.39 143.73 1013.66 143 1013.84 140.86L1014.1 137.83L1018.95 137.83L1018.95 144.38L1020.13 144.38L1020.13 147.66L1018.95 147.66L1018.95 145.47L1013.31 145.47L1013.31 147.66ZM1021.68 137.83L1022.85 137.83L1022.85 141.12L1026.51 141.12L1026.51 137.83L1027.68 137.83L1027.68 145.47L1026.51 145.47L1026.51 142.21L1022.85 142.21L1022.85 145.47L1021.68 145.47L1021.68 137.83ZM1031 137.83L1031 143.74L1034.68 137.83L1036.04 137.83L1036.04 145.47L1034.86 145.47L1034.86 139.56L1031.21 145.47L1029.82 145.47L1029.82 137.83L1031 137.83ZM1067.02 138.93L1064.49 138.93L1064.49 137.83L1070.69 137.83L1070.69 138.93L1068.18 138.93L1068.18 145.47L1067.02 145.47L1067.02 138.93ZM1088.1 137.83L1089.27 137.83L1089.27 141.12L1092.93 141.12L1092.93 137.83L1094.1 137.83L1094.1 145.47L1092.93 145.47L1092.93 142.21L1089.27 142.21L1089.27 145.47L1088.1 145.47L1088.1 137.83ZM1105.69 137.83L1108.31 143.88L1110.99 137.83L1112.5 137.83L1112.5 145.47L1111.32 145.47L1111.32 139.63L1108.8 145.47L1107.85 145.47L1105.31 139.52L1105.31 145.47L1104.15 145.47L1104.15 137.83L1105.69 137.83ZM1115.81 137.83L1115.81 143.74L1119.5 137.83L1120.85 137.83L1120.85 145.47L1119.68 145.47L1119.68 139.56L1116.02 145.47L1114.65 145.47L1114.65 137.83L1115.81 137.83ZM1126.93 137.83L1128.11 137.83L1128.11 141.12L1131.77 141.12L1131.77 137.83L1132.93 137.83L1132.93 145.47L1131.77 145.47L1131.77 142.21L1128.11 142.21L1128.11 145.47L1126.93 145.47L1126.93 137.83ZM983.08 141.69C983.08 143.22 983.79 144.57 985.36 144.57C986.93 144.57 987.65 143.22 987.65 141.69C987.65 140.16 986.93 138.79 985.36 138.79C983.79 138.79 983.08 140.16 983.08 141.69ZM1000.88 138.79C999.44 138.79 998.69 139.94 998.69 141.65C998.69 143.38 999.46 144.57 1000.88 144.57C1002.35 144.57 1003.1 143.28 1003.1 141.65C1003.1 140.04 1002.37 138.79 1000.88 138.79ZM1057.82 141.69C1057.82 143.22 1058.55 144.57 1060.12 144.57C1061.68 144.57 1062.41 143.22 1062.41 141.69C1062.41 140.16 1061.68 138.79 1060.12 138.79C1058.55 138.79 1057.82 140.16 1057.82 141.69ZM1015 140.86C1014.83 142.45 1014.64 143.67 1014.1 144.38L1017.78 144.38L1017.78 138.93L1015.2 138.93L1015 140.86ZM1047.04 143.36C1047.04 144.18 1047.71 144.59 1048.64 144.59C1050.04 144.59 1050.79 143.66 1050.79 142.7L1050.79 141.63C1050.59 141.87 1049.26 142.01 1048.76 142.07C1047.85 142.19 1047.04 142.47 1047.04 143.36ZM1097.06 143.36C1097.06 144.18 1097.75 144.59 1098.68 144.59C1100.06 144.59 1100.82 143.66 1100.82 142.7L1100.82 141.63C1100.63 141.87 1099.29 142.01 1098.8 142.07C1097.88 142.19 1097.06 142.47 1097.06 143.36ZM1135.91 143.36C1135.91 144.18 1136.57 144.59 1137.52 144.59C1138.91 144.59 1139.66 143.66 1139.66 142.7L1139.66 141.63C1139.47 141.87 1138.13 142.01 1137.64 142.07C1136.72 142.19 1135.91 142.47 1135.91 143.36ZM1049.66 156.26C1050.35 156.26 1050.63 155.8 1050.63 155.29L1051.73 155.29C1051.73 156.36 1050.93 157.12 1049.66 157.12C1048.41 157.12 1047.61 156.36 1047.61 155.29L1048.71 155.29C1048.71 155.8 1048.96 156.26 1049.66 156.26ZM989.16 161.69C989.16 164.06 987.77 165.63 985.7 165.63C983.63 165.63 982.24 164.06 982.24 161.69C982.24 159.3 983.63 157.74 985.7 157.74C987.77 157.74 989.16 159.3 989.16 161.69ZM997.05 163.24C996.86 164.59 995.74 165.63 994.05 165.63C991.9 165.63 990.59 163.98 990.59 161.69C990.59 159.37 991.96 157.74 994.03 157.74C995.64 157.74 996.86 158.69 997.05 160.12L995.88 160.12C995.7 159.42 995.09 158.79 994.05 158.79C992.68 158.79 991.77 159.92 991.77 161.65C991.77 163.42 992.66 164.57 994.05 164.57C994.97 164.57 995.66 164.08 995.88 163.24L997.05 163.24ZM1012.25 161.69C1012.25 164.06 1010.86 165.63 1008.79 165.63C1006.73 165.63 1005.33 164.06 1005.33 161.69C1005.33 159.3 1006.73 157.74 1008.79 157.74C1010.86 157.74 1012.25 159.3 1012.25 161.69ZM1044.77 161.69C1044.77 164.06 1043.38 165.63 1041.31 165.63C1039.24 165.63 1037.84 164.06 1037.84 161.69C1037.84 159.3 1039.24 157.74 1041.31 157.74C1043.38 157.74 1044.77 159.3 1044.77 161.69ZM1065.41 161.69C1065.41 164.06 1064.02 165.63 1061.94 165.63C1059.88 165.63 1058.49 164.06 1058.49 161.69C1058.49 159.3 1059.88 157.74 1061.94 157.74C1064.02 157.74 1065.41 159.3 1065.41 161.69ZM1073.3 163.24C1073.1 164.59 1071.99 165.63 1070.3 165.63C1068.15 165.63 1066.84 163.98 1066.84 161.69C1066.84 159.37 1068.21 157.74 1070.28 157.74C1071.89 157.74 1073.1 158.69 1073.3 160.12L1072.13 160.12C1071.94 159.42 1071.32 158.79 1070.3 158.79C1068.93 158.79 1068.02 159.92 1068.02 161.65C1068.02 163.42 1068.91 164.57 1070.3 164.57C1071.21 164.57 1071.91 164.08 1072.13 163.24L1073.3 163.24ZM1089.73 161.69C1089.73 164.06 1088.34 165.63 1086.27 165.63C1084.19 165.63 1082.81 164.06 1082.81 161.69C1082.81 159.3 1084.19 157.74 1086.27 157.74C1088.34 157.74 1089.73 159.3 1089.73 161.69ZM1105.62 163.7C1105.26 164.85 1104.13 165.63 1102.57 165.63C1100.37 165.63 1099.02 164.06 1099.02 161.71C1099.02 159.37 1100.39 157.74 1102.46 157.74C1104.05 157.74 1105.74 158.71 1105.74 161.55L1105.74 162.05L1100.18 162.05C1100.25 163.69 1101.19 164.57 1102.57 164.57C1103.5 164.57 1104.18 164.18 1104.48 163.38L1105.62 163.7ZM975.62 165.47L974.44 165.47L974.44 157.83L980.45 157.83L980.45 165.47L979.28 165.47L979.28 158.93L975.62 158.93L975.62 165.47ZM1000.7 158.93L998.17 158.93L998.17 157.83L1004.38 157.83L1004.38 158.93L1001.87 158.93L1001.87 165.47L1000.7 165.47L1000.7 158.93ZM1019.75 165.47L1018.64 165.47L1018.64 162.37L1016.59 162.37L1014.82 165.47L1013.55 165.47L1015.41 162.21C1014.49 161.89 1013.96 161.15 1013.96 160.1C1013.96 158.69 1014.96 157.83 1016.61 157.83L1019.75 157.83L1019.75 165.47ZM1021.9 157.83L1023.07 157.83L1023.07 161.12L1026.73 161.12L1026.73 157.83L1027.9 157.83L1027.9 165.47L1026.73 165.47L1026.73 162.21L1023.07 162.21L1023.07 165.47L1021.9 165.47L1021.9 157.83ZM1030.05 157.83L1031.22 157.83L1031.22 161.12L1034.88 161.12L1034.88 157.83L1036.06 157.83L1036.06 165.47L1034.88 165.47L1034.88 162.21L1031.22 162.21L1031.22 165.47L1030.05 165.47L1030.05 157.83ZM1047.73 157.83L1047.73 163.74L1051.41 157.83L1052.76 157.83L1052.76 165.47L1051.59 165.47L1051.59 159.56L1047.93 165.47L1046.56 165.47L1046.56 157.83L1047.73 157.83ZM1075.01 157.83L1076.18 157.83L1076.18 161.12L1079.85 161.12L1079.85 157.83L1081.02 157.83L1081.02 165.47L1079.85 165.47L1079.85 162.21L1076.18 162.21L1076.18 165.47L1075.01 165.47L1075.01 157.83ZM1095.12 165.47L1091.52 165.47L1091.52 157.83L1094.64 157.83C1096.28 157.83 1097.32 158.64 1097.32 159.86C1097.32 160.79 1096.71 161.27 1095.86 161.45C1096.68 161.58 1097.61 162.22 1097.61 163.42C1097.61 164.59 1096.67 165.47 1095.12 165.47ZM983.41 161.69C983.41 163.22 984.13 164.57 985.7 164.57C987.27 164.57 987.99 163.22 987.99 161.69C987.99 160.16 987.27 158.79 985.7 158.79C984.13 158.79 983.41 160.16 983.41 161.69ZM1006.51 161.69C1006.51 163.22 1007.22 164.57 1008.79 164.57C1010.36 164.57 1011.08 163.22 1011.08 161.69C1011.08 160.16 1010.36 158.79 1008.79 158.79C1007.22 158.79 1006.51 160.16 1006.51 161.69ZM1039.02 161.69C1039.02 163.22 1039.74 164.57 1041.31 164.57C1042.88 164.57 1043.59 163.22 1043.59 161.69C1043.59 160.16 1042.88 158.79 1041.31 158.79C1039.74 158.79 1039.02 160.16 1039.02 161.69ZM1059.66 161.69C1059.66 163.22 1060.38 164.57 1061.94 164.57C1063.52 164.57 1064.24 163.22 1064.24 161.69C1064.24 160.16 1063.52 158.79 1061.94 158.79C1060.38 158.79 1059.66 160.16 1059.66 161.69ZM1083.98 161.69C1083.98 163.22 1084.69 164.57 1086.27 164.57C1087.84 164.57 1088.56 163.22 1088.56 161.69C1088.56 160.16 1087.84 158.79 1086.27 158.79C1084.69 158.79 1083.98 160.16 1083.98 161.69ZM1102.46 158.79C1101.11 158.79 1100.27 159.85 1100.18 161.04L1104.55 161.04C1104.55 159.74 1103.73 158.79 1102.46 158.79ZM1016.47 161.27L1018.64 161.27L1018.64 158.91L1016.61 158.91C1015.69 158.91 1015.14 159.36 1015.14 160.1C1015.14 160.83 1015.64 161.27 1016.47 161.27ZM1092.63 158.91L1092.63 161.04L1094.64 161.04C1095.57 161.04 1096.15 160.62 1096.15 159.94C1096.15 159.3 1095.57 158.91 1094.64 158.91L1092.63 158.91ZM1092.63 162.05L1092.63 164.4L1095.12 164.4C1095.93 164.4 1096.41 163.99 1096.41 163.32C1096.41 162.53 1095.93 162.05 1095.12 162.05L1092.63 162.05Z" fill="#B3B3B3" fill-opacity="1.000000" fill-rule="evenodd"/>
	<path id="65 компаний" d="M981.67 102.89C981.68 104.9 980.2 106.41 978.01 106.4C976.05 106.39 974.11 105.19 974.12 101.46C974.12 97.98 975.66 95.94 978.11 95.94C980.03 95.94 981.36 97.18 981.58 98.82L979.77 98.82C979.57 98.04 978.98 97.53 978.11 97.53C976.7 97.53 975.91 98.84 975.91 100.98L975.97 100.98C976.46 100.1 977.43 99.57 978.52 99.57C980.31 99.57 981.68 100.97 981.67 102.89ZM1058.92 96.92C1059.62 96.92 1059.9 96.48 1059.91 96L1061.25 96C1061.25 97.16 1060.35 97.95 1058.92 97.95C1057.5 97.95 1056.6 97.16 1056.6 96L1057.93 96C1057.93 96.47 1058.21 96.92 1058.92 96.92ZM990.54 102.91C990.54 104.94 989.04 106.4 986.89 106.4C984.9 106.4 983.42 105.18 983.37 103.49L985.16 103.49C985.23 104.33 985.97 104.91 986.89 104.91C987.98 104.91 988.76 104.1 988.76 102.96C988.76 101.81 987.96 100.98 986.84 100.98C986.23 100.97 985.58 101.23 985.24 101.6L983.57 101.33L984.1 96.08L990.01 96.08L990.01 97.62L985.63 97.62L985.34 100.32L985.4 100.32C985.78 99.87 986.5 99.54 987.33 99.54C989.18 99.54 990.54 100.96 990.54 102.91ZM1010.34 102.47C1010.34 104.84 1008.92 106.41 1006.68 106.41C1004.45 106.41 1003.03 104.84 1003.03 102.47C1003.03 100.1 1004.45 98.53 1006.68 98.53C1008.92 98.53 1010.34 100.1 1010.34 102.47ZM1035.27 105.21C1034.93 105.85 1034.23 106.41 1033.03 106.41C1031.56 106.41 1030.47 105.62 1030.47 104.12C1030.47 102.4 1031.89 101.95 1033.37 101.8C1034.72 101.65 1035.26 101.63 1035.26 101.11L1035.26 101.08C1035.26 100.33 1034.8 99.9 1033.97 99.9C1033.09 99.9 1032.57 100.35 1032.4 100.87L1030.72 100.63C1031.12 99.24 1032.35 98.53 1033.96 98.53C1035.42 98.53 1037.06 99.13 1037.06 101.15L1037.06 106.26L1035.32 106.26L1035.32 105.21L1035.27 105.21ZM997.5 106.26L995.7 106.26L995.7 98.62L997.5 98.62L997.5 101.71L998.15 101.71L1000.45 98.62L1002.62 98.62L999.79 102.37L1002.65 106.26L1000.48 106.26L998.38 103.38L997.5 103.38L997.5 106.26ZM1014.05 98.62L1016.26 104.17L1018.53 98.62L1020.72 98.62L1020.72 106.26L1018.99 106.26L1018.99 101.06L1016.89 106.26L1015.63 106.26L1013.6 101.12L1013.6 106.26L1011.87 106.26L1011.87 98.62L1014.05 98.62ZM1024.25 106.26L1022.54 106.26L1022.54 98.62L1028.98 98.62L1028.98 106.26L1027.25 106.26L1027.25 100.1L1024.25 100.1L1024.25 106.26ZM1038.88 98.62L1040.61 98.62L1040.61 101.7L1043.56 101.7L1043.56 98.62L1045.3 98.62L1045.3 106.26L1043.56 106.26L1043.56 103.17L1040.61 103.17L1040.61 106.26L1038.88 106.26L1038.88 98.62ZM1048.85 98.62L1048.85 103.82L1051.91 98.62L1053.76 98.62L1053.76 106.26L1052.02 106.26L1052.02 101.05L1048.97 106.26L1047.12 106.26L1047.12 98.62L1048.85 98.62ZM1057.34 98.62L1057.34 103.82L1060.4 98.62L1062.25 98.62L1062.25 106.26L1060.51 106.26L1060.51 101.05L1057.46 106.26L1055.61 106.26L1055.61 98.62L1057.34 98.62ZM1004.85 102.47C1004.85 103.86 1005.46 104.97 1006.69 104.97C1007.91 104.97 1008.52 103.86 1008.52 102.47C1008.52 101.07 1007.91 99.95 1006.69 99.95C1005.46 99.95 1004.85 101.07 1004.85 102.47ZM976.1 102.94C976.11 104.01 976.9 104.91 978 104.91C979.07 104.91 979.89 104.04 979.88 102.93C979.89 101.83 979.1 100.98 978.02 100.98C976.94 100.98 976.12 101.88 976.1 102.94ZM1032.21 104.09C1032.21 104.75 1032.75 105.09 1033.5 105.09C1034.57 105.09 1035.27 104.37 1035.27 103.52L1035.27 102.62C1035.03 102.81 1034.09 102.93 1033.62 102.99C1032.81 103.11 1032.21 103.4 1032.21 104.09Z" fill="#000000" fill-opacity="1.000000" fill-rule="evenodd"/>
	<g filter="url(#filter_3_2996_dd)">
		<rect id="back" x="629.500000" y="107.193604" rx="7.000000" width="294.750000" height="232.806320" fill="#FFFFFF" fill-opacity="1.000000"/>
	</g>
	<g filter="url(#filter_3_2998_dd)">
		<path id="back" d="M636.5 107.19L917.25 107.19C921.11 107.19 924.25 110.32 924.25 114.19L924.25 136.6L629.5 136.6L629.5 114.19C629.5 110.32 632.63 107.19 636.5 107.19Z" fill="url(#paint_linear_3_2998_0)" fill-opacity="1.000000" fill-rule="evenodd"/>
	</g>
	<ellipse id="01" cx="644.237305" cy="121.897217" rx="4.912500" ry="4.901186" fill="#FF2F54" fill-opacity="1.000000"/>
	<ellipse id="02" cx="660.203125" cy="121.897217" rx="4.912500" ry="4.901186" fill="#FFA630" fill-opacity="1.000000"/>
	<path id="Дополнительная выгода, если занимаетесь рекламой" d="M680.15 249.63L678.98 249.63L678.98 246.08L679.64 246.08C680.31 245.46 680.93 244.21 681.07 241.28L681.29 236.99L687.33 236.99L687.33 246.08L688.51 246.08L688.51 249.62L687.33 249.62L687.33 247.17L680.15 247.17L680.15 249.63ZM682.24 241.28C682.12 243.51 681.72 245.1 681.11 246.08L686.16 246.08L686.16 238.08L682.4 238.08L682.24 241.28ZM696.78 243.39C696.78 245.76 695.39 247.33 693.32 247.33C691.25 247.33 689.85 245.76 689.85 243.39C689.85 241 691.25 239.43 693.32 239.43C695.39 239.43 696.78 241 696.78 243.39ZM713.28 243.39C713.28 245.76 711.89 247.33 709.82 247.33C707.75 247.33 706.36 245.76 706.36 243.39C706.36 241 707.75 239.43 709.82 239.43C711.89 239.43 713.28 241 713.28 243.39ZM752.56 245.4C752.2 246.55 751.07 247.33 749.52 247.33C747.31 247.33 745.95 245.76 745.95 243.41C745.95 241.06 747.33 239.43 749.4 239.43C750.99 239.43 752.68 240.41 752.68 243.25L752.68 243.75L747.13 243.75C747.19 245.39 748.14 246.27 749.52 246.27C750.44 246.27 751.13 245.88 751.42 245.08L752.56 245.4ZM783.14 246.13C782.9 246.63 782.21 247.35 780.88 247.35C779.42 247.35 778.27 246.49 778.27 245C778.27 243.25 779.82 242.94 781.23 242.75C782.63 242.58 783.2 242.63 783.2 242.06L783.2 242.02C783.2 241.04 782.67 240.47 781.59 240.47C780.47 240.47 779.86 241.06 779.6 241.62L778.49 241.22C779.09 239.83 780.4 239.43 781.55 239.43C782.53 239.43 784.38 239.71 784.38 242.14L784.38 247.17L783.2 247.17L783.2 246.13L783.14 246.13ZM829.26 243.39C829.26 245.76 827.87 247.33 825.8 247.33C823.73 247.33 822.34 245.76 822.34 243.39C822.34 241 823.73 239.43 825.8 239.43C827.87 239.43 829.26 241 829.26 243.39ZM844.29 246.13C844.05 246.63 843.36 247.35 842.03 247.35C840.58 247.35 839.42 246.49 839.42 245C839.42 243.25 840.97 242.94 842.38 242.75C843.78 242.58 844.35 242.63 844.35 242.06L844.35 242.02C844.35 241.04 843.82 240.47 842.74 240.47C841.62 240.47 841.01 241.06 840.75 241.62L839.64 241.22C840.24 239.83 841.55 239.43 842.7 239.43C843.68 239.43 845.53 239.71 845.53 242.14L845.53 247.17L844.35 247.17L844.35 246.13L844.29 246.13ZM699.74 247.17L698.57 247.17L698.57 239.53L704.57 239.53L704.57 247.17L703.4 247.17L703.4 240.63L699.74 240.63L699.74 247.17ZM714.79 247.17L714.39 247.17L714.39 246.08L714.68 246.08C715.59 246.08 715.85 245.48 715.95 242.91L716.09 239.53L721.18 239.53L721.18 247.17L720 247.17L720 240.63L717.2 240.63L717.08 243.35C716.97 245.86 716.48 247.17 714.79 247.17ZM723.32 239.53L724.5 239.53L724.5 242.81L728.16 242.81L728.16 239.53L729.33 239.53L729.33 247.17L728.16 247.17L728.16 243.91L724.5 243.91L724.5 247.17L723.32 247.17L723.32 239.53ZM732.65 239.53L732.65 245.44L736.33 239.53L737.68 239.53L737.68 247.17L736.51 247.17L736.51 241.26L732.85 247.17L731.48 247.17L731.48 239.53L732.65 239.53ZM741.32 240.63L738.8 240.63L738.8 239.53L745 239.53L745 240.63L742.49 240.63L742.49 247.17L741.32 247.17L741.32 240.63ZM754.19 247.17L753.79 247.17L753.79 246.08L754.07 246.08C754.98 246.08 755.24 245.48 755.34 242.91L755.48 239.53L760.57 239.53L760.57 247.17L759.4 247.17L759.4 240.63L756.6 240.63L756.48 243.35C756.37 245.86 755.88 247.17 754.19 247.17ZM763.89 239.53L763.89 242.3L765.92 242.3C767.71 242.3 768.69 243.31 768.69 244.7C768.69 246.08 767.71 247.17 765.92 247.17L762.72 247.17L762.72 239.53L763.89 239.53ZM770.47 239.53L771.65 239.53L771.65 242.81L775.31 242.81L775.31 239.53L776.48 239.53L776.48 247.17L775.31 247.17L775.31 243.91L771.65 243.91L771.65 247.17L770.47 247.17L770.47 239.53ZM792.23 247.17L791.12 247.17L791.12 244.07L789.07 244.07L787.3 247.17L786.03 247.17L787.89 243.91C786.97 243.59 786.44 242.85 786.44 241.8C786.44 240.39 787.44 239.53 789.09 239.53L792.23 239.53L792.23 247.17ZM801.91 247.17L798.32 247.17L798.32 239.53L801.44 239.53C803.08 239.53 804.12 240.34 804.12 241.56C804.12 242.49 803.51 242.97 802.65 243.15C803.49 243.28 804.4 243.92 804.4 245.12C804.4 246.29 803.47 247.17 801.91 247.17ZM807.34 239.53L807.34 242.3L809.37 242.3C811.16 242.3 812.14 243.31 812.14 244.7C812.14 246.08 811.16 247.17 809.37 247.17L806.17 247.17L806.17 239.53L807.34 239.53ZM814.52 247.17L813.35 247.17L813.35 239.53L814.52 239.53L814.52 247.17ZM816.67 239.53L821.38 239.53L821.38 240.63L817.84 240.63L817.84 247.17L816.67 247.17L816.67 239.53ZM831.41 249.36L830.24 249.36L830.24 246.08L830.87 246.08C831.49 245.43 831.76 244.69 831.94 242.56L832.2 239.53L837.05 239.53L837.05 246.08L838.23 246.08L838.23 249.36L837.05 249.36L837.05 247.17L831.41 247.17L831.41 249.36ZM691.03 243.39C691.03 244.92 691.74 246.27 693.32 246.27C694.89 246.27 695.6 244.92 695.6 243.39C695.6 241.86 694.89 240.49 693.32 240.49C691.74 240.49 691.03 241.86 691.03 243.39ZM707.54 243.39C707.54 244.92 708.25 246.27 709.82 246.27C711.39 246.27 712.11 244.92 712.11 243.39C712.11 241.86 711.39 240.49 709.82 240.49C708.25 240.49 707.54 241.86 707.54 243.39ZM749.4 240.49C748.05 240.49 747.21 241.55 747.13 242.74L751.48 242.74C751.48 241.44 750.67 240.49 749.4 240.49ZM823.51 243.39C823.51 244.92 824.23 246.27 825.8 246.27C827.37 246.27 828.09 244.92 828.09 243.39C828.09 241.86 827.37 240.49 825.8 240.49C824.23 240.49 823.51 241.86 823.51 243.39ZM788.95 242.97L791.12 242.97L791.12 240.61L789.09 240.61C788.17 240.61 787.62 241.06 787.62 241.8C787.62 242.53 788.12 242.97 788.95 242.97ZM799.43 240.61L799.43 242.74L801.44 242.74C802.38 242.74 802.95 242.32 802.95 241.64C802.95 241 802.38 240.61 801.44 240.61L799.43 240.61ZM833.1 242.56C832.93 244.15 832.74 245.37 832.2 246.08L835.88 246.08L835.88 240.63L833.3 240.63L833.1 242.56ZM779.45 245.06C779.45 245.88 780.12 246.29 781.06 246.29C782.45 246.29 783.2 245.36 783.2 244.4L783.2 243.33C783 243.57 781.67 243.71 781.17 243.77C780.26 243.89 779.45 244.16 779.45 245.06ZM840.6 245.06C840.6 245.88 841.27 246.29 842.21 246.29C843.6 246.29 844.35 245.36 844.35 244.4L844.35 243.33C844.15 243.57 842.82 243.71 842.33 243.77C841.41 243.89 840.6 244.16 840.6 245.06ZM765.92 243.39L763.89 243.39L763.89 246.08L765.92 246.08C766.85 246.08 767.51 245.53 767.51 244.76C767.51 243.96 766.85 243.39 765.92 243.39ZM809.37 243.39L807.34 243.39L807.34 246.08L809.37 246.08C810.3 246.08 810.96 245.53 810.96 244.76C810.96 243.96 810.3 243.39 809.37 243.39ZM799.43 243.75L799.43 246.1L801.91 246.1C802.72 246.1 803.21 245.69 803.21 245.02C803.21 244.23 802.72 243.75 801.91 243.75L799.43 243.75ZM848.15 245.78L849.42 245.78L849.35 246.31C849.17 247.45 848.67 248.98 848.43 249.65L847.53 249.65C847.66 249.03 847.95 247.68 848.09 246.34L848.15 245.78ZM870.84 257.96C871.54 257.96 871.82 257.5 871.82 256.99L872.91 256.99C872.91 258.06 872.11 258.82 870.84 258.82C869.59 258.82 868.8 258.06 868.8 256.99L869.89 256.99C869.89 257.5 870.15 257.96 870.84 257.96ZM685.94 265.4C685.58 266.55 684.45 267.33 682.9 267.33C680.69 267.33 679.33 265.76 679.33 263.41C679.33 261.06 680.71 259.43 682.78 259.43C684.37 259.43 686.06 260.41 686.06 263.25L686.06 263.75L680.51 263.75C680.57 265.39 681.52 266.27 682.9 266.27C683.82 266.27 684.51 265.88 684.8 265.08L685.94 265.4ZM693.95 264.94C693.75 266.29 692.64 267.33 690.95 267.33C688.8 267.33 687.49 265.68 687.49 263.39C687.49 261.06 688.86 259.43 690.93 259.43C692.54 259.43 693.75 260.39 693.95 261.82L692.78 261.82C692.6 261.12 691.98 260.49 690.95 260.49C689.58 260.49 688.66 261.62 688.66 263.35C688.66 265.12 689.56 266.27 690.95 266.27C691.86 266.27 692.56 265.78 692.78 264.94L693.95 264.94ZM718.59 267.33C716.97 267.33 715.77 266.47 715.73 265.22L716.98 265.22C717.04 265.91 717.65 266.27 718.57 266.27C719.51 266.27 720.28 265.91 720.28 265.04C720.28 264.28 719.68 263.77 718.75 263.77L717.44 263.77L717.44 262.72L718.75 262.72C719.68 262.72 720.12 262.24 720.12 261.6C720.12 260.92 719.62 260.47 718.73 260.47C717.84 260.47 717.18 260.91 717.14 261.54L715.91 261.54C715.95 260.31 717.08 259.43 718.67 259.43C720.28 259.43 721.31 260.35 721.31 261.56C721.31 262.42 720.77 262.95 720.04 263.17L720.04 263.25C720.9 263.31 721.48 264.09 721.48 265.04C721.48 266.43 720.26 267.33 718.59 267.33ZM727.64 266.13C727.4 266.63 726.7 267.35 725.37 267.35C723.92 267.35 722.77 266.49 722.77 265C722.77 263.25 724.32 262.94 725.73 262.75C727.12 262.57 727.7 262.63 727.7 262.06L727.7 262.02C727.7 261.04 727.17 260.47 726.09 260.47C724.97 260.47 724.36 261.06 724.1 261.62L722.99 261.22C723.58 259.83 724.9 259.43 726.05 259.43C727.03 259.43 728.87 259.71 728.87 262.14L728.87 267.17L727.7 267.17L727.7 266.13L727.64 266.13ZM762.54 266.13C762.3 266.63 761.6 267.35 760.28 267.35C758.82 267.35 757.67 266.49 757.67 265C757.67 263.25 759.22 262.94 760.63 262.75C762.03 262.57 762.6 262.63 762.6 262.06L762.6 262.02C762.6 261.04 762.07 260.47 760.99 260.47C759.87 260.47 759.26 261.06 759 261.62L757.89 261.22C758.48 259.83 759.8 259.43 760.95 259.43C761.93 259.43 763.78 259.71 763.78 262.14L763.78 267.17L762.6 267.17L762.6 266.13L762.54 266.13ZM772.17 265.4C771.81 266.55 770.68 267.33 769.12 267.33C766.92 267.33 765.56 265.76 765.56 263.41C765.56 261.06 766.94 259.43 769 259.43C770.59 259.43 772.29 260.41 772.29 263.25L772.29 263.75L766.74 263.75C766.8 265.39 767.75 266.27 769.12 266.27C770.04 266.27 770.73 265.88 771.03 265.08L772.17 265.4ZM787.12 265.4C786.76 266.55 785.63 267.33 784.08 267.33C781.87 267.33 780.52 265.76 780.52 263.41C780.52 261.06 781.89 259.43 783.96 259.43C785.55 259.43 787.24 260.41 787.24 263.25L787.24 263.75L781.7 263.75C781.75 265.39 782.7 266.27 784.08 266.27C785 266.27 785.69 265.88 785.99 265.08L787.12 265.4ZM795.13 264.94C794.94 266.29 793.82 267.33 792.13 267.33C789.98 267.33 788.67 265.68 788.67 263.39C788.67 261.06 790.04 259.43 792.11 259.43C793.72 259.43 794.94 260.39 795.13 261.82L793.96 261.82C793.78 261.12 793.16 260.49 792.13 260.49C790.76 260.49 789.85 261.62 789.85 263.35C789.85 265.12 790.74 266.27 792.13 266.27C793.05 266.27 793.74 265.78 793.96 264.94L795.13 264.94ZM809.71 270.03L808.54 270.03L808.54 259.53L809.67 259.53L809.67 260.75L809.81 260.75C810.07 260.35 810.53 259.43 812.02 259.43C813.95 259.43 815.28 260.97 815.28 263.37C815.28 265.8 813.95 267.33 812.04 267.33C810.57 267.33 810.07 266.41 809.81 266L809.71 266L809.71 270.03ZM823.31 265.4C822.95 266.55 821.82 267.33 820.27 267.33C818.06 267.33 816.71 265.76 816.71 263.41C816.71 261.06 818.08 259.43 820.15 259.43C821.74 259.43 823.43 260.41 823.43 263.25L823.43 263.75L817.89 263.75C817.94 265.39 818.89 266.27 820.27 266.27C821.19 266.27 821.88 265.88 822.18 265.08L823.31 265.4ZM845.51 266.13C845.27 266.63 844.57 267.35 843.24 267.35C841.79 267.35 840.63 266.49 840.63 265C840.63 263.25 842.18 262.94 843.6 262.75C844.99 262.57 845.57 262.63 845.57 262.06L845.57 262.02C845.57 261.04 845.04 260.47 843.96 260.47C842.84 260.47 842.23 261.06 841.97 261.62L840.85 261.22C841.45 259.83 842.76 259.43 843.91 259.43C844.89 259.43 846.74 259.71 846.74 262.14L846.74 267.17L845.57 267.17L845.57 266.13L845.51 266.13ZM865.95 263.39C865.95 265.76 864.56 267.33 862.49 267.33C860.42 267.33 859.03 265.76 859.03 263.39C859.03 261 860.42 259.43 862.49 259.43C864.56 259.43 865.95 261 865.95 263.39ZM695.39 267.17L694.99 267.17L694.99 266.07L695.27 266.07C696.18 266.07 696.44 265.48 696.54 262.91L696.68 259.53L701.77 259.53L701.77 267.17L700.59 267.17L700.59 260.63L697.79 260.63L697.67 263.35C697.56 265.86 697.07 267.17 695.39 267.17ZM705.09 259.53L705.09 265.44L708.77 259.53L710.12 259.53L710.12 267.17L708.95 267.17L708.95 261.26L705.29 267.17L703.92 267.17L703.92 259.53L705.09 259.53ZM731.02 259.53L732.19 259.53L732.19 262.81L735.85 262.81L735.85 259.53L737.03 259.53L737.03 267.17L735.85 267.17L735.85 263.91L732.19 263.91L732.19 267.17L731.02 267.17L731.02 259.53ZM740.35 259.53L740.35 265.44L744.03 259.53L745.38 259.53L745.38 267.17L744.21 267.17L744.21 261.26L740.55 267.17L739.17 267.17L739.17 259.53L740.35 259.53ZM749.08 259.53L751.7 265.58L754.37 259.53L755.88 259.53L755.88 267.17L754.71 267.17L754.71 261.33L752.18 267.17L751.22 267.17L748.7 261.22L748.7 267.17L747.53 267.17L747.53 259.53L749.08 259.53ZM775.88 260.63L773.36 260.63L773.36 259.53L779.56 259.53L779.56 260.63L777.06 260.63L777.06 267.17L775.88 267.17L775.88 260.63ZM798.02 259.53L798.02 262.3L800.05 262.3C801.84 262.3 802.81 263.31 802.81 264.7C802.81 266.07 801.84 267.17 800.05 267.17L796.84 267.17L796.84 259.53L798.02 259.53ZM826.39 267.17L825.22 267.17L825.22 259.53L826.39 259.53L826.39 262.85L827.17 262.85L829.92 259.53L831.43 259.53L828.35 263.21L831.47 267.17L829.96 267.17L827.45 263.95L826.39 263.95L826.39 267.17ZM832.46 267.17L832.06 267.17L832.06 266.07L832.34 266.07C833.26 266.07 833.52 265.48 833.61 262.91L833.75 259.53L838.84 259.53L838.84 267.17L837.67 267.17L837.67 260.63L834.87 260.63L834.75 263.35C834.64 265.86 834.15 267.17 832.46 267.17ZM850.44 259.53L853.06 265.58L855.73 259.53L857.24 259.53L857.24 267.17L856.07 267.17L856.07 261.33L853.54 267.17L852.59 267.17L850.06 261.22L850.06 267.17L848.89 267.17L848.89 259.53L850.44 259.53ZM868.91 259.53L868.91 265.44L872.59 259.53L873.94 259.53L873.94 267.17L872.77 267.17L872.77 261.26L869.11 267.17L867.74 267.17L867.74 259.53L868.91 259.53ZM682.78 260.49C681.43 260.49 680.59 261.55 680.51 262.74L684.87 262.74C684.87 261.44 684.05 260.49 682.78 260.49ZM769 260.49C767.66 260.49 766.82 261.55 766.74 262.74L771.09 262.74C771.09 261.44 770.28 260.49 769 260.49ZM783.96 260.49C782.62 260.49 781.77 261.55 781.7 262.74L786.05 262.74C786.05 261.44 785.23 260.49 783.96 260.49ZM811.88 260.49C810.45 260.49 809.69 261.64 809.69 263.35C809.69 265.08 810.47 266.27 811.88 266.27C813.35 266.27 814.11 264.98 814.11 263.35C814.11 261.74 813.37 260.49 811.88 260.49ZM820.15 260.49C818.81 260.49 817.97 261.55 817.89 262.74L822.24 262.74C822.24 261.44 821.42 260.49 820.15 260.49ZM860.2 263.39C860.2 264.92 860.92 266.27 862.49 266.27C864.06 266.27 864.78 264.92 864.78 263.39C864.78 261.86 864.06 260.49 862.49 260.49C860.92 260.49 860.2 261.86 860.2 263.39ZM723.94 265.06C723.94 265.88 724.62 266.29 725.55 266.29C726.94 266.29 727.7 265.36 727.7 264.4L727.7 263.33C727.5 263.57 726.17 263.71 725.67 263.77C724.76 263.89 723.94 264.16 723.94 265.06ZM758.84 265.06C758.84 265.88 759.52 266.29 760.45 266.29C761.84 266.29 762.6 265.36 762.6 264.4L762.6 263.33C762.4 263.57 761.07 263.71 760.57 263.77C759.66 263.89 758.84 264.16 758.84 265.06ZM841.81 265.06C841.81 265.88 842.49 266.29 843.42 266.29C844.81 266.29 845.57 265.36 845.57 264.4L845.57 263.33C845.37 263.57 844.03 263.71 843.54 263.77C842.62 263.89 841.81 264.16 841.81 265.06ZM800.05 263.39L798.02 263.39L798.02 266.07L800.05 266.07C800.98 266.07 801.64 265.53 801.64 264.76C801.64 263.96 800.98 263.39 800.05 263.39Z" fill="#B3B3B3" fill-opacity="1.000000" fill-rule="evenodd"/>
	<path id="Для рекламных агентств" d="M680.73 185.91L678.96 185.91L678.96 181.95L679.65 181.95C680.34 181.4 680.92 180.32 681.08 177.58L681.35 173.27L687.86 173.27L687.86 181.95L688.99 181.95L688.99 185.9L687.22 185.9L687.22 183.45L680.73 183.45L680.73 185.91ZM682.85 177.58C682.73 179.66 682.34 181.06 681.79 181.95L686.09 181.95L686.09 174.82L683.01 174.82L682.85 177.58ZM712.09 186.32L710.3 186.32L710.3 175.82L712.06 175.82L712.06 177.08L712.17 177.08C712.44 176.53 713 175.72 714.35 175.72C716.12 175.72 717.5 177.1 717.5 179.65C717.5 182.16 716.15 183.59 714.36 183.59C713.04 183.59 712.45 182.81 712.17 182.25L712.09 182.25L712.09 186.32ZM725.74 181.41C725.42 182.73 724.2 183.6 722.42 183.6C720.12 183.6 718.71 182.08 718.71 179.68C718.71 177.33 720.14 175.72 722.33 175.72C724.21 175.72 725.82 176.89 725.82 179.57L725.82 180.13L720.5 180.13C720.51 181.43 721.28 182.2 722.45 182.2C723.22 182.2 723.82 181.86 724.06 181.22L725.74 181.41ZM748.14 182.4C747.81 183.05 747.1 183.61 745.9 183.61C744.44 183.61 743.35 182.81 743.35 181.31C743.35 179.59 744.76 179.15 746.24 178.99C747.59 178.85 748.13 178.82 748.13 178.3L748.13 178.27C748.13 177.52 747.68 177.1 746.84 177.1C745.96 177.1 745.46 177.54 745.27 178.06L743.6 177.82C743.99 176.43 745.23 175.72 746.83 175.72C748.29 175.72 749.93 176.32 749.93 178.34L749.93 183.45L748.2 183.45L748.2 182.4L748.14 182.4ZM797.58 182.4C797.26 183.05 796.54 183.61 795.34 183.61C793.89 183.61 792.79 182.81 792.79 181.31C792.79 179.59 794.2 179.15 795.69 178.99C797.03 178.85 797.58 178.82 797.58 178.3L797.58 178.27C797.58 177.52 797.12 177.1 796.28 177.1C795.4 177.1 794.9 177.54 794.72 178.06L793.04 177.82C793.43 176.43 794.67 175.72 796.27 175.72C797.73 175.72 799.38 176.32 799.38 178.34L799.38 183.45L797.65 183.45L797.65 182.4L797.58 182.4ZM814.06 181.41C813.74 182.73 812.52 183.6 810.74 183.6C808.44 183.6 807.03 182.08 807.03 179.68C807.03 177.33 808.46 175.72 810.65 175.72C812.53 175.72 814.14 176.89 814.14 179.57L814.14 180.13L808.82 180.13C808.83 181.43 809.6 182.2 810.77 182.2C811.54 182.2 812.14 181.86 812.38 181.22L814.06 181.41ZM837.45 180.84C837.32 182.47 836.1 183.6 834.18 183.6C831.89 183.6 830.52 181.98 830.52 179.67C830.52 177.33 831.93 175.72 834.17 175.72C836.03 175.72 837.32 176.81 837.45 178.46L835.73 178.46C835.59 177.73 835.06 177.17 834.19 177.17C833.08 177.17 832.34 178.09 832.34 179.64C832.34 181.2 833.07 182.14 834.19 182.14C834.98 182.14 835.57 181.66 835.73 180.84L837.45 180.84ZM690.44 183.45L689.88 183.45L689.87 181.97L690.14 181.97C690.93 181.97 691.2 181.34 691.29 179.2L691.42 175.82L696.99 175.82L696.99 183.45L695.25 183.45L695.25 177.29L693.06 177.29L692.94 179.76C692.82 182.3 692.08 183.45 690.44 183.45ZM705 183.45L703.32 183.45L703.32 180.58L701.72 180.58L700.16 183.45L698.39 183.45L700.1 180.31C699.19 179.94 698.66 179.21 698.67 178.25C698.66 176.78 699.82 175.82 701.69 175.82L705 175.82L705 183.45ZM729.14 183.45L727.34 183.45L727.34 175.82L729.14 175.82L729.14 178.9L729.79 178.9L732.09 175.82L734.26 175.82L731.43 179.57L734.29 183.45L732.11 183.45L730.02 180.58L729.14 180.58L729.14 183.45ZM735.34 183.45L734.78 183.45L734.77 181.97L735.03 181.97C735.82 181.97 736.1 181.34 736.19 179.2L736.32 175.82L741.89 175.82L741.89 183.45L740.15 183.45L740.15 177.29L737.96 177.29L737.84 179.76C737.72 182.3 736.98 183.45 735.34 183.45ZM753.94 175.82L756.14 181.36L758.41 175.82L760.6 175.82L760.6 183.45L758.88 183.45L758.88 178.26L756.77 183.45L755.52 183.45L753.48 178.31L753.48 183.45L751.75 183.45L751.75 175.82L753.94 175.82ZM762.42 175.82L764.15 175.82L764.15 178.89L767.11 178.89L767.11 175.82L768.84 175.82L768.84 183.45L767.11 183.45L767.11 180.37L764.15 180.37L764.15 183.45L762.42 183.45L762.42 175.82ZM772.39 175.82L772.39 178.3L774.13 178.3C776.08 178.3 777.19 179.34 777.2 180.88C777.19 182.38 776.08 183.45 774.13 183.45L770.66 183.45L770.66 175.82L772.39 175.82ZM779.95 183.45L778.15 183.45L778.15 175.82L779.95 175.82L779.95 183.45ZM781.36 175.82L783.27 175.82L784.81 178.64L786.37 175.82L788.28 175.82L785.98 179.64L788.32 183.45L786.43 183.45L784.81 180.71L783.21 183.45L781.3 183.45L783.63 179.64L781.36 175.82ZM801.19 175.82L806.24 175.82L806.24 177.29L802.95 177.29L802.95 183.45L801.19 183.45L801.19 175.82ZM815.66 175.82L817.39 175.82L817.39 178.89L820.35 178.89L820.35 175.82L822.08 175.82L822.08 183.45L820.35 183.45L820.35 180.37L817.39 180.37L817.39 183.45L815.66 183.45L815.66 175.82ZM825.52 177.29L823.04 177.29L823.04 175.82L829.73 175.82L829.73 177.29L827.25 177.29L827.25 183.45L825.52 183.45L825.52 177.29ZM840.85 177.29L838.38 177.29L838.38 175.82L845.06 175.82L845.06 177.29L842.59 177.29L842.59 183.45L840.85 183.45L840.85 177.29ZM850.2 183.45L846.5 183.45L846.5 175.82L849.71 175.82C851.51 175.82 852.64 176.58 852.64 177.87C852.64 178.73 852.01 179.27 850.99 179.46C852.18 179.57 853.01 180.31 853.01 181.38C853.01 182.64 851.99 183.45 850.2 183.45ZM722.35 177.12C721.28 177.12 720.56 177.94 720.5 178.91L724.09 178.91C724.08 177.88 723.39 177.12 722.35 177.12ZM810.67 177.12C809.6 177.12 808.88 177.94 808.82 178.91L812.41 178.91C812.4 177.88 811.71 177.12 810.67 177.12ZM713.85 177.2C712.7 177.2 712.06 178.15 712.06 179.64C712.06 181.12 712.71 182.11 713.85 182.11C715.04 182.11 715.67 181.07 715.67 179.64C715.67 178.21 715.05 177.2 713.85 177.2ZM848.19 177.26L848.19 178.98L849.74 178.98C850.47 178.98 850.92 178.64 850.92 178.1C850.92 177.58 850.46 177.26 849.71 177.26L848.19 177.26ZM701.63 179.27L703.32 179.27L703.32 177.28L701.69 177.28C700.86 177.28 700.4 177.71 700.41 178.28C700.4 178.86 700.84 179.27 701.63 179.27ZM774.13 179.78L772.39 179.78L772.39 181.98L774.13 181.98C774.91 181.98 775.47 181.54 775.47 180.9C775.47 180.24 774.91 179.78 774.13 179.78ZM745.08 181.28C745.08 181.94 745.62 182.29 746.37 182.29C747.45 182.29 748.14 181.56 748.14 180.72L748.14 179.81C747.91 180.01 746.96 180.12 746.49 180.19C745.68 180.3 745.08 180.59 745.08 181.28ZM794.52 181.28C794.52 181.94 795.06 182.29 795.81 182.29C796.89 182.29 797.58 181.56 797.58 180.72L797.58 179.81C797.35 180.01 796.4 180.12 795.93 180.19C795.12 180.3 794.52 180.59 794.52 181.28ZM848.19 180.14L848.19 182.04L850.2 182.04C850.86 182.04 851.26 181.7 851.26 181.16C851.26 180.52 850.86 180.14 850.2 180.14L848.19 180.14Z" fill="#000000" fill-opacity="1.000000" fill-rule="evenodd"/>
</svg>
