<svg width="394.000000" height="79.000000" viewBox="0 0 394 79" fill="none" xmlns="http://www.w3.org/2000/svg" xmlns:xlink="http://www.w3.org/1999/xlink">
	<desc>
			Created with Pixso.
	</desc>
	<defs/>
	<path id="Форма 1" d="M375.24 79L1 79L20.5 39L1.49 0L375.24 0L393.77 39.01L375.24 79Z" fill="#333F70" fill-opacity="1.000000" fill-rule="evenodd"/>
	<path id="3" d="M209.84 46.7C209.85 52.66 204.25 56.98 196.41 56.98C188.73 56.98 183.28 52.73 183.15 46.63L190.59 46.63C190.72 49.18 193.16 50.88 196.42 50.88C199.79 50.88 202.18 48.98 202.16 46.19C202.18 43.38 199.71 41.41 195.75 41.41L192.49 41.41L192.49 35.99L195.75 35.99C199.11 35.99 201.45 34.14 201.43 31.38C201.45 28.76 199.45 26.95 196.47 26.95C193.45 26.95 191.02 28.67 190.93 31.33L183.86 31.33C183.96 25.3 189.34 21.1 196.5 21.1C203.73 21.1 208.56 25.44 208.54 30.95C208.56 34.86 205.86 37.63 201.96 38.32L201.96 38.6C207.09 39.25 209.85 42.35 209.84 46.7Z" fill="#FEFEFE" fill-opacity="1.000000" fill-rule="evenodd"/>
</svg>
