<svg width="32.000000" height="32.000000" viewBox="0 0 32 32" fill="none" xmlns="http://www.w3.org/2000/svg" xmlns:xlink="http://www.w3.org/1999/xlink">
	<desc>
			Created with Pixso.
	</desc>
	<defs/>
	<path id="logo 1 (Traced)" d="M5.15 16.19C5.15 16.21 5.09 16.22 5 16.22C4.91 16.22 4.85 16.23 4.85 16.25C4.85 16.26 4.79 16.28 4.72 16.28C4.65 16.28 4.59 16.29 4.59 16.3C4.59 16.32 4.54 16.33 4.48 16.33C4.41 16.33 4.36 16.34 4.36 16.36C4.36 16.37 4.31 16.38 4.25 16.38C4.19 16.38 4.14 16.4 4.14 16.41C4.14 16.43 4.1 16.44 4.05 16.44C4 16.44 3.95 16.45 3.95 16.47C3.95 16.48 3.91 16.49 3.86 16.49C3.81 16.49 3.77 16.51 3.77 16.52C3.77 16.54 3.72 16.55 3.67 16.55C3.62 16.55 3.58 16.56 3.58 16.58C3.58 16.59 3.55 16.6 3.5 16.6C3.46 16.6 3.43 16.62 3.43 16.63C3.43 16.65 3.4 16.66 3.36 16.66C3.31 16.66 3.28 16.67 3.28 16.68C3.28 16.7 3.25 16.71 3.21 16.71C3.16 16.71 3.13 16.72 3.13 16.74C3.13 16.75 3.11 16.77 3.08 16.77C3.04 16.77 3.02 16.78 3.02 16.79C3.02 16.81 2.99 16.82 2.94 16.82C2.9 16.82 2.87 16.83 2.87 16.85C2.87 16.86 2.84 16.88 2.81 16.88C2.78 16.88 2.76 16.89 2.76 16.9C2.76 16.92 2.73 16.93 2.7 16.93C2.67 16.93 2.65 16.94 2.65 16.96C2.65 16.97 2.62 16.99 2.59 16.99C2.56 16.99 2.53 17 2.53 17.01C2.53 17.03 2.52 17.04 2.5 17.04C2.48 17.04 2.46 17.05 2.46 17.07C2.46 17.08 2.43 17.09 2.4 17.09C2.37 17.09 2.35 17.11 2.35 17.12C2.35 17.14 2.33 17.15 2.31 17.15C2.29 17.15 2.27 17.16 2.27 17.18C2.27 17.19 2.25 17.2 2.23 17.2C2.21 17.2 2.2 17.22 2.2 17.23C2.2 17.25 2.18 17.26 2.16 17.26C2.14 17.26 2.12 17.27 2.12 17.29C2.12 17.3 2.1 17.31 2.08 17.31C2.06 17.31 2.05 17.32 2.05 17.34C2.05 17.35 2.03 17.37 2.01 17.37C2 17.37 1.97 17.39 1.95 17.42C1.94 17.45 1.91 17.48 1.9 17.48C1.88 17.48 1.86 17.5 1.84 17.53C1.83 17.56 1.8 17.59 1.79 17.59C1.76 17.59 1.56 17.88 1.56 17.93C1.56 17.95 1.55 17.97 1.54 17.97C1.53 17.97 1.52 17.99 1.52 18.02C1.52 18.05 1.52 18.08 1.5 18.08C1.49 18.08 1.49 18.1 1.49 18.13C1.49 18.16 1.48 18.19 1.47 18.19C1.46 18.19 1.45 18.22 1.45 18.27C1.45 18.31 1.44 18.35 1.43 18.35C1.42 18.35 1.41 18.44 1.41 18.57C1.41 18.7 1.42 18.79 1.43 18.79C1.44 18.79 1.45 18.84 1.45 18.9C1.45 18.96 1.46 19 1.47 19C1.48 19 1.49 19.03 1.49 19.06C1.49 19.09 1.49 19.11 1.5 19.11C1.52 19.11 1.52 19.13 1.52 19.16C1.52 19.2 1.68 19.44 1.71 19.44C1.72 19.44 1.76 19.48 1.79 19.52C1.81 19.57 1.85 19.6 1.87 19.6C1.88 19.6 1.9 19.62 1.9 19.63C1.9 19.65 1.91 19.66 1.93 19.66C1.95 19.66 1.98 19.68 1.99 19.71C2.01 19.74 2.03 19.77 2.04 19.77C2.08 19.77 2.35 20.17 2.35 20.22C2.35 20.24 2.35 20.26 2.36 20.26C2.38 20.26 2.38 20.28 2.38 20.31C2.38 20.34 2.39 20.37 2.4 20.37C2.41 20.37 2.42 20.39 2.42 20.42C2.42 20.45 2.43 20.48 2.44 20.48C2.45 20.48 2.46 20.5 2.46 20.53C2.46 20.56 2.47 20.59 2.48 20.59C2.49 20.59 2.5 20.64 2.5 20.7C2.5 20.76 2.5 20.81 2.51 20.81C2.52 20.81 2.53 20.87 2.53 20.94C2.53 21.02 2.54 21.08 2.55 21.08C2.56 21.08 2.57 21.19 2.57 21.35C2.57 21.52 2.58 21.62 2.59 21.62C2.6 21.62 2.61 21.85 2.61 22.25C2.61 22.65 2.61 22.88 2.63 22.88C2.64 22.88 2.65 23.41 2.65 24.41C2.65 25.41 2.64 25.94 2.63 25.94C2.61 25.94 2.61 26.18 2.61 26.62C2.61 27.06 2.6 27.3 2.59 27.3C2.58 27.3 2.57 27.45 2.57 27.68C2.57 27.92 2.56 28.07 2.55 28.07C2.54 28.07 2.53 28.17 2.53 28.34C2.53 28.5 2.53 28.61 2.51 28.61C2.5 28.61 2.5 28.67 2.5 28.75C2.5 28.82 2.49 28.88 2.48 28.88C2.47 28.88 2.46 28.93 2.46 28.99C2.46 29.05 2.45 29.1 2.44 29.1C2.43 29.1 2.42 29.13 2.42 29.16C2.42 29.19 2.41 29.21 2.4 29.21C2.39 29.21 2.38 29.24 2.38 29.27C2.38 29.3 2.38 29.32 2.36 29.32C2.35 29.32 2.35 29.34 2.35 29.36C2.35 29.42 2.23 29.59 2.19 29.59C2.17 29.59 2.16 29.61 2.16 29.62C2.16 29.64 2.14 29.65 2.12 29.65C2.1 29.65 2.08 29.66 2.08 29.68C2.08 29.69 2.07 29.7 2.05 29.7C2.03 29.7 2.01 29.72 2.01 29.73C2.01 29.75 1.99 29.76 1.97 29.76C1.95 29.76 1.93 29.77 1.93 29.78C1.93 29.8 1.92 29.81 1.9 29.81C1.88 29.81 1.86 29.84 1.84 29.87C1.83 29.9 1.8 29.92 1.79 29.92C1.76 29.92 1.67 30.05 1.67 30.1C1.67 30.12 1.66 30.14 1.65 30.14C1.64 30.14 1.64 30.26 1.64 30.44C1.64 30.62 1.64 30.74 1.65 30.74C1.66 30.74 1.67 30.77 1.67 30.82C1.67 30.86 1.69 30.91 1.71 30.93C1.73 30.95 1.75 30.99 1.75 31.01C1.75 31.06 1.98 31.39 2.02 31.39C2.03 31.39 2.05 31.41 2.05 31.42C2.05 31.44 2.06 31.45 2.08 31.45C2.1 31.45 2.12 31.46 2.12 31.48C2.12 31.49 2.14 31.5 2.16 31.5C2.18 31.5 2.2 31.52 2.2 31.53C2.2 31.55 2.21 31.56 2.23 31.56C2.25 31.56 2.27 31.57 2.27 31.59C2.27 31.6 2.3 31.61 2.33 31.61C2.36 31.61 2.38 31.63 2.38 31.64C2.38 31.66 2.42 31.67 2.46 31.67C2.5 31.67 2.53 31.68 2.53 31.7C2.53 31.71 2.58 31.72 2.63 31.72C2.68 31.72 2.72 31.73 2.72 31.75C2.72 31.77 2.78 31.78 2.85 31.78C2.93 31.78 2.98 31.79 2.98 31.8C2.98 31.82 3.06 31.83 3.17 31.83C3.28 31.83 3.36 31.84 3.36 31.86C3.36 31.88 3.7 31.89 4.36 31.89C5.03 31.89 5.37 31.88 5.37 31.86C5.37 31.84 5.46 31.83 5.58 31.83C5.7 31.83 5.79 31.82 5.79 31.8C5.79 31.79 5.84 31.78 5.9 31.78C5.96 31.78 6.01 31.76 6.01 31.75C6.01 31.73 6.05 31.72 6.1 31.72C6.15 31.72 6.2 31.71 6.2 31.7C6.2 31.68 6.22 31.67 6.25 31.67C6.28 31.67 6.31 31.66 6.31 31.64C6.31 31.63 6.33 31.61 6.36 31.61C6.4 31.61 6.42 31.6 6.42 31.59C6.42 31.57 6.44 31.56 6.46 31.56C6.48 31.56 6.5 31.55 6.5 31.53C6.5 31.52 6.51 31.5 6.53 31.5C6.55 31.5 6.57 31.48 6.59 31.45C6.6 31.42 6.63 31.39 6.64 31.39C6.67 31.39 6.79 31.22 6.79 31.17C6.79 31.15 6.81 31.12 6.83 31.09C6.85 31.07 6.87 31.03 6.87 31.01C6.87 30.98 6.88 30.96 6.89 30.96C6.9 30.96 6.91 30.92 6.91 30.88C6.91 30.83 6.92 30.79 6.93 30.79C6.94 30.79 6.94 30.69 6.94 30.52C6.94 30.36 6.94 30.25 6.93 30.25C6.92 30.25 6.91 30.22 6.91 30.19C6.91 30.16 6.9 30.14 6.89 30.14C6.88 30.14 6.87 30.12 6.87 30.1C6.87 30.05 6.79 29.92 6.75 29.92C6.74 29.92 6.72 29.9 6.7 29.87C6.69 29.84 6.66 29.81 6.64 29.81C6.62 29.81 6.61 29.8 6.61 29.78C6.61 29.77 6.58 29.76 6.55 29.76C6.52 29.76 6.5 29.75 6.5 29.73C6.5 29.72 6.48 29.7 6.46 29.7C6.44 29.7 6.42 29.69 6.42 29.68C6.42 29.66 6.41 29.65 6.39 29.65C6.36 29.65 6.12 29.31 6.12 29.25C6.12 29.23 6.11 29.21 6.1 29.21C6.09 29.21 6.08 29.13 6.08 29.02C6.08 28.91 6.08 28.83 6.07 28.83C6.05 28.83 6.05 27.52 6.05 24.95C6.05 22.39 6.05 21.08 6.07 21.08C6.08 21.08 6.08 20.89 6.08 20.56C6.08 20.23 6.09 20.04 6.1 20.04C6.11 20.04 6.12 19.88 6.12 19.6C6.12 19.33 6.13 19.17 6.14 19.17C6.15 19.17 6.16 19.04 6.16 18.84C6.16 18.64 6.17 18.51 6.18 18.51C6.19 18.51 6.2 18.37 6.2 18.13C6.2 17.89 6.2 17.75 6.22 17.75C6.23 17.75 6.23 17.6 6.23 17.37C6.23 17.13 6.23 16.99 6.22 16.99C6.2 16.99 6.2 16.92 6.2 16.85C6.2 16.77 6.19 16.71 6.18 16.71C6.17 16.71 6.16 16.69 6.16 16.66C6.16 16.63 6.15 16.6 6.14 16.6C6.13 16.6 6.12 16.58 6.12 16.56C6.12 16.49 5.92 16.22 5.87 16.22C5.84 16.22 5.82 16.21 5.82 16.19C5.82 16.18 5.7 16.17 5.49 16.17C5.27 16.17 5.15 16.18 5.15 16.19ZM11.5 20.34C11.5 20.36 11.41 20.37 11.24 20.37C11.08 20.37 10.98 20.38 10.98 20.4C10.98 20.41 10.93 20.42 10.85 20.42C10.78 20.42 10.72 20.44 10.72 20.45C10.72 20.47 10.69 20.48 10.65 20.48C10.6 20.48 10.57 20.49 10.57 20.51C10.57 20.52 10.54 20.53 10.5 20.53C10.45 20.53 10.42 20.55 10.42 20.56C10.42 20.58 10.39 20.59 10.35 20.59C10.3 20.59 10.27 20.6 10.27 20.61C10.27 20.63 10.25 20.64 10.22 20.64C10.18 20.64 10.16 20.65 10.16 20.67C10.16 20.68 10.13 20.7 10.1 20.7C10.07 20.7 10.05 20.71 10.05 20.72C10.05 20.74 10.03 20.75 10.01 20.75C9.99 20.75 9.97 20.76 9.97 20.78C9.97 20.79 9.95 20.81 9.92 20.81C9.89 20.81 9.86 20.82 9.86 20.83C9.86 20.85 9.84 20.86 9.82 20.86C9.8 20.86 9.79 20.87 9.79 20.89C9.79 20.9 9.77 20.91 9.75 20.91C9.73 20.91 9.71 20.93 9.71 20.94C9.71 20.96 9.69 20.97 9.66 20.97C9.63 20.97 9.6 20.99 9.58 21.02C9.56 21.05 9.54 21.08 9.52 21.08C9.5 21.08 9.49 21.09 9.49 21.11C9.49 21.12 9.47 21.13 9.45 21.13C9.43 21.13 9.41 21.15 9.41 21.16C9.41 21.18 9.39 21.19 9.37 21.19C9.35 21.19 9.34 21.2 9.34 21.22C9.34 21.23 9.32 21.24 9.3 21.24C9.29 21.24 9.26 21.27 9.24 21.3C9.23 21.33 9.2 21.35 9.19 21.35C9.17 21.35 9.15 21.38 9.13 21.41C9.12 21.44 9.09 21.46 9.08 21.46C9.06 21.46 9.03 21.5 9 21.54C8.97 21.59 8.94 21.62 8.93 21.62C8.91 21.62 8.87 21.67 8.83 21.73C8.79 21.79 8.75 21.84 8.74 21.84C8.71 21.84 8.29 22.46 8.29 22.5C8.29 22.52 8.26 22.58 8.22 22.63C8.17 22.69 8.14 22.75 8.14 22.77C8.14 22.79 8.12 22.84 8.08 22.88C8.05 22.92 8.03 22.97 8.03 22.99C8.03 23.01 8.01 23.05 7.99 23.07C7.97 23.09 7.95 23.13 7.95 23.15C7.95 23.18 7.94 23.21 7.92 23.23C7.9 23.26 7.88 23.3 7.88 23.32C7.88 23.35 7.87 23.37 7.86 23.37C7.85 23.37 7.84 23.4 7.84 23.43C7.84 23.46 7.83 23.48 7.82 23.48C7.81 23.48 7.8 23.5 7.8 23.53C7.8 23.56 7.8 23.59 7.79 23.59C7.78 23.59 7.77 23.61 7.77 23.64C7.77 23.67 7.76 23.7 7.75 23.7C7.74 23.7 7.73 23.72 7.73 23.75C7.73 23.78 7.72 23.81 7.71 23.81C7.7 23.81 7.69 23.83 7.69 23.86C7.69 23.89 7.68 23.92 7.67 23.92C7.66 23.92 7.65 23.94 7.65 23.97C7.65 24 7.65 24.03 7.64 24.03C7.63 24.03 7.62 24.05 7.62 24.08C7.62 24.11 7.61 24.14 7.6 24.14C7.59 24.14 7.58 24.17 7.58 24.22C7.58 24.26 7.57 24.3 7.56 24.3C7.55 24.3 7.54 24.34 7.54 24.38C7.54 24.43 7.53 24.46 7.52 24.46C7.51 24.46 7.5 24.5 7.5 24.54C7.5 24.59 7.5 24.63 7.49 24.63C7.48 24.63 7.47 24.68 7.47 24.74C7.47 24.8 7.46 24.84 7.45 24.84C7.44 24.84 7.43 24.91 7.43 24.98C7.43 25.06 7.42 25.12 7.41 25.12C7.4 25.12 7.39 25.19 7.39 25.28C7.39 25.37 7.38 25.45 7.37 25.45C7.36 25.45 7.36 25.73 7.36 26.24C7.36 26.75 7.36 27.03 7.37 27.03C7.38 27.03 7.39 27.1 7.39 27.19C7.39 27.28 7.4 27.36 7.41 27.36C7.42 27.36 7.43 27.42 7.43 27.49C7.43 27.57 7.44 27.63 7.45 27.63C7.46 27.63 7.47 27.68 7.47 27.74C7.47 27.8 7.48 27.85 7.49 27.85C7.5 27.85 7.5 27.88 7.5 27.93C7.5 27.97 7.51 28.01 7.52 28.01C7.53 28.01 7.54 28.05 7.54 28.09C7.54 28.14 7.55 28.17 7.56 28.17C7.57 28.17 7.58 28.21 7.58 28.26C7.58 28.3 7.59 28.34 7.6 28.34C7.61 28.34 7.62 28.36 7.62 28.39C7.62 28.42 7.63 28.45 7.64 28.45C7.65 28.45 7.65 28.47 7.65 28.5C7.65 28.53 7.66 28.56 7.67 28.56C7.68 28.56 7.69 28.59 7.69 28.64C7.69 28.68 7.7 28.72 7.71 28.72C7.72 28.72 7.73 28.74 7.73 28.77C7.73 28.8 7.74 28.83 7.75 28.83C7.76 28.83 7.77 28.85 7.77 28.88C7.77 28.91 7.78 28.94 7.79 28.94C7.8 28.94 7.8 28.96 7.8 28.99C7.8 29.01 7.82 29.05 7.84 29.07C7.86 29.1 7.88 29.14 7.88 29.16C7.88 29.19 7.89 29.21 7.9 29.21C7.91 29.21 7.92 29.23 7.92 29.26C7.92 29.29 7.93 29.33 7.95 29.35C7.97 29.37 7.99 29.41 7.99 29.43C7.99 29.45 8.01 29.49 8.03 29.51C8.05 29.53 8.07 29.57 8.07 29.59C8.07 29.62 8.08 29.65 8.1 29.68C8.12 29.7 8.14 29.73 8.14 29.75C8.14 29.77 8.18 29.85 8.23 29.92C8.29 29.99 8.33 30.07 8.33 30.08C8.33 30.12 8.68 30.63 8.7 30.63C8.71 30.63 8.76 30.68 8.79 30.74C8.83 30.8 8.88 30.85 8.89 30.85C8.91 30.85 8.93 30.87 8.94 30.9C8.96 30.93 8.98 30.96 9 30.96C9.02 30.96 9.04 30.98 9.06 31.01C9.07 31.04 9.1 31.07 9.11 31.07C9.13 31.07 9.15 31.09 9.17 31.12C9.18 31.15 9.21 31.18 9.23 31.18C9.25 31.18 9.26 31.19 9.26 31.2C9.26 31.22 9.28 31.23 9.3 31.23C9.32 31.23 9.34 31.24 9.34 31.26C9.34 31.27 9.35 31.29 9.37 31.29C9.39 31.29 9.41 31.3 9.41 31.31C9.41 31.33 9.43 31.34 9.45 31.34C9.47 31.34 9.49 31.35 9.49 31.37C9.49 31.38 9.5 31.39 9.52 31.39C9.54 31.39 9.56 31.41 9.56 31.42C9.56 31.44 9.58 31.45 9.6 31.45C9.62 31.45 9.64 31.46 9.64 31.48C9.64 31.49 9.65 31.5 9.67 31.5C9.69 31.5 9.71 31.52 9.71 31.53C9.71 31.55 9.74 31.56 9.77 31.56C9.8 31.56 9.82 31.57 9.82 31.59C9.82 31.6 9.85 31.61 9.88 31.61C9.91 31.61 9.93 31.63 9.93 31.64C9.93 31.66 9.96 31.67 9.99 31.67C10.02 31.67 10.05 31.68 10.05 31.7C10.05 31.71 10.07 31.72 10.1 31.72C10.13 31.72 10.16 31.73 10.16 31.75C10.16 31.76 10.19 31.78 10.23 31.78C10.28 31.78 10.31 31.79 10.31 31.8C10.31 31.82 10.35 31.83 10.4 31.83C10.45 31.83 10.5 31.84 10.5 31.86C10.5 31.87 10.55 31.89 10.61 31.89C10.67 31.89 10.72 31.9 10.72 31.91C10.72 31.93 10.79 31.94 10.91 31.94C11.02 31.94 11.09 31.95 11.09 31.97C11.09 31.99 11.22 32 11.43 32C11.64 32 11.77 31.99 11.77 31.97C11.77 31.95 11.85 31.94 11.97 31.94C12.1 31.94 12.18 31.93 12.18 31.91C12.18 31.9 12.23 31.89 12.29 31.89C12.35 31.89 12.4 31.87 12.4 31.86C12.4 31.84 12.44 31.83 12.5 31.83C12.55 31.83 12.59 31.82 12.59 31.8C12.59 31.79 12.62 31.78 12.66 31.78C12.71 31.78 12.74 31.76 12.74 31.75C12.74 31.73 12.76 31.72 12.79 31.72C12.83 31.72 12.85 31.71 12.85 31.7C12.85 31.68 12.88 31.67 12.91 31.67C12.94 31.67 12.96 31.66 12.96 31.64C12.96 31.63 12.99 31.61 13.02 31.61C13.05 31.61 13.08 31.6 13.08 31.59C13.08 31.57 13.1 31.56 13.13 31.56C13.16 31.56 13.19 31.55 13.19 31.53C13.19 31.52 13.21 31.5 13.24 31.5C13.27 31.5 13.3 31.49 13.3 31.48C13.3 31.46 13.32 31.45 13.34 31.45C13.36 31.45 13.37 31.44 13.37 31.42C13.37 31.41 13.39 31.39 13.41 31.39C13.43 31.39 13.45 31.38 13.45 31.37C13.45 31.35 13.47 31.34 13.49 31.34C13.51 31.34 13.52 31.33 13.52 31.31C13.52 31.3 13.54 31.29 13.56 31.29C13.58 31.29 13.6 31.27 13.6 31.26C13.6 31.24 13.62 31.23 13.64 31.23C13.66 31.23 13.67 31.22 13.67 31.2C13.67 31.19 13.69 31.18 13.71 31.18C13.73 31.18 13.75 31.16 13.75 31.15C13.75 31.13 13.76 31.12 13.78 31.12C13.8 31.12 13.83 31.1 13.84 31.07C13.86 31.04 13.88 31.01 13.9 31.01C13.92 31.01 13.93 31 13.93 30.99C13.93 30.97 13.95 30.96 13.97 30.96C13.99 30.96 14.01 30.93 14.03 30.9C14.04 30.87 14.07 30.85 14.08 30.85C14.1 30.85 14.13 30.82 14.14 30.79C14.16 30.76 14.18 30.74 14.19 30.74C14.21 30.74 14.24 30.7 14.27 30.66C14.3 30.61 14.33 30.58 14.34 30.58C14.37 30.58 14.79 29.96 14.79 29.91C14.79 29.89 14.81 29.86 14.83 29.84C14.85 29.82 14.87 29.78 14.87 29.75C14.87 29.72 14.88 29.7 14.89 29.7C14.9 29.7 14.91 29.68 14.91 29.65C14.91 29.62 14.92 29.59 14.93 29.59C14.94 29.59 14.94 29.56 14.94 29.51C14.94 29.47 14.95 29.43 14.96 29.43C14.97 29.43 14.98 29.29 14.98 29.07C14.98 28.86 14.97 28.72 14.96 28.72C14.95 28.72 14.94 28.68 14.94 28.64C14.94 28.59 14.94 28.56 14.93 28.56C14.92 28.56 14.91 28.53 14.91 28.5C14.91 28.47 14.9 28.45 14.89 28.45C14.88 28.45 14.87 28.43 14.87 28.41C14.87 28.35 14.6 27.96 14.56 27.96C14.55 27.96 14.53 27.94 14.53 27.93C14.53 27.91 14.48 27.9 14.4 27.9C14.33 27.9 14.27 27.91 14.27 27.93C14.27 27.94 14.25 27.96 14.22 27.96C14.18 27.96 14.16 27.97 14.16 27.98C14.16 28 14.14 28.01 14.13 28.01C14.11 28.01 14.08 28.04 14.07 28.07C14.05 28.1 14.03 28.12 14.01 28.12C13.99 28.12 13.97 28.14 13.95 28.17C13.94 28.2 13.91 28.23 13.89 28.23C13.88 28.23 13.86 28.24 13.86 28.26C13.86 28.27 13.85 28.28 13.83 28.28C13.81 28.28 13.78 28.31 13.77 28.34C13.75 28.37 13.72 28.39 13.71 28.39C13.69 28.39 13.67 28.4 13.67 28.42C13.67 28.43 13.66 28.45 13.64 28.45C13.62 28.45 13.6 28.46 13.6 28.47C13.6 28.49 13.57 28.5 13.54 28.5C13.51 28.5 13.49 28.51 13.49 28.53C13.49 28.54 13.47 28.56 13.45 28.56C13.43 28.56 13.41 28.57 13.41 28.58C13.41 28.6 13.39 28.61 13.36 28.61C13.32 28.61 13.3 28.62 13.3 28.64C13.3 28.65 13.27 28.67 13.24 28.67C13.21 28.67 13.19 28.68 13.19 28.69C13.19 28.71 13.16 28.72 13.13 28.72C13.1 28.72 13.08 28.73 13.08 28.75C13.08 28.76 13.04 28.77 13 28.77C12.96 28.77 12.93 28.79 12.93 28.8C12.93 28.82 12.88 28.83 12.81 28.83C12.75 28.83 12.7 28.84 12.7 28.86C12.7 28.87 12.59 28.88 12.4 28.88C12.22 28.88 12.1 28.87 12.1 28.86C12.1 28.84 12.07 28.83 12.03 28.83C11.99 28.83 11.95 28.82 11.95 28.8C11.95 28.79 11.93 28.77 11.9 28.77C11.87 28.77 11.84 28.76 11.84 28.75C11.84 28.73 11.82 28.72 11.79 28.72C11.75 28.72 11.73 28.71 11.73 28.69C11.73 28.68 11.71 28.67 11.69 28.67C11.67 28.67 11.65 28.65 11.65 28.64C11.65 28.62 11.64 28.61 11.62 28.61C11.6 28.61 11.58 28.6 11.58 28.58C11.58 28.57 11.56 28.56 11.55 28.56C11.53 28.56 11.5 28.53 11.49 28.5C11.47 28.47 11.45 28.45 11.43 28.45C11.41 28.45 11.39 28.42 11.37 28.39C11.36 28.36 11.34 28.34 11.32 28.34C11.29 28.34 10.87 27.72 10.87 27.67C10.87 27.65 10.86 27.63 10.85 27.63C10.84 27.63 10.83 27.6 10.83 27.57C10.83 27.54 10.82 27.52 10.81 27.52C10.8 27.52 10.79 27.49 10.79 27.46C10.79 27.43 10.79 27.41 10.78 27.41C10.77 27.41 10.76 27.39 10.76 27.36C10.76 27.33 10.75 27.3 10.74 27.3C10.73 27.3 10.72 27.25 10.72 27.19C10.72 27.13 10.71 27.08 10.7 27.08C10.69 27.08 10.68 27.02 10.68 26.95C10.68 26.87 10.69 26.81 10.7 26.81C10.71 26.81 10.72 26.79 10.72 26.77C10.72 26.71 10.76 26.65 10.8 26.65C10.82 26.65 10.83 26.63 10.83 26.62C10.83 26.6 11.5 26.59 12.79 26.59C14.09 26.59 14.76 26.58 14.76 26.56C14.76 26.55 14.77 26.54 14.79 26.54C14.82 26.54 14.83 26.52 14.83 26.51C14.83 26.49 14.84 26.48 14.86 26.48C14.9 26.48 15.13 26.14 15.13 26.09C15.13 26.06 15.14 26.05 15.15 26.05C15.16 26.05 15.17 26.02 15.17 25.99C15.17 25.96 15.18 25.94 15.19 25.94C15.2 25.94 15.21 25.91 15.21 25.88C15.21 25.85 15.21 25.83 15.22 25.83C15.23 25.83 15.24 25.79 15.24 25.75C15.24 25.7 15.25 25.66 15.26 25.66C15.27 25.66 15.28 25.61 15.28 25.55C15.28 25.49 15.29 25.45 15.3 25.45C15.31 25.45 15.32 25.25 15.32 24.9C15.32 24.55 15.31 24.35 15.3 24.35C15.29 24.35 15.28 24.29 15.28 24.22C15.28 24.14 15.27 24.08 15.26 24.08C15.25 24.08 15.24 24.04 15.24 24C15.24 23.95 15.23 23.92 15.22 23.92C15.21 23.92 15.21 23.87 15.21 23.81C15.21 23.75 15.2 23.7 15.19 23.7C15.18 23.7 15.17 23.67 15.17 23.64C15.17 23.61 15.16 23.59 15.15 23.59C15.14 23.59 15.13 23.55 15.13 23.51C15.13 23.46 15.12 23.43 15.11 23.43C15.1 23.43 15.09 23.4 15.09 23.37C15.09 23.34 15.09 23.32 15.08 23.32C15.06 23.32 15.06 23.29 15.06 23.26C15.06 23.23 15.05 23.21 15.04 23.21C15.03 23.21 15.02 23.18 15.02 23.15C15.02 23.12 15.01 23.1 15 23.1C14.99 23.1 14.98 23.08 14.98 23.05C14.98 23.02 14.96 22.98 14.94 22.96C14.92 22.94 14.91 22.9 14.91 22.87C14.91 22.85 14.9 22.83 14.89 22.83C14.88 22.83 14.87 22.8 14.87 22.78C14.87 22.75 14.85 22.71 14.83 22.69C14.81 22.67 14.79 22.63 14.79 22.61C14.79 22.59 14.77 22.54 14.74 22.5C14.71 22.46 14.68 22.41 14.68 22.39C14.68 22.35 14.11 21.52 14.08 21.52C14.07 21.52 14.04 21.48 14.01 21.43C13.98 21.39 13.95 21.35 13.93 21.35C13.92 21.35 13.89 21.33 13.88 21.3C13.86 21.27 13.84 21.24 13.82 21.24C13.81 21.24 13.78 21.22 13.77 21.19C13.75 21.16 13.72 21.13 13.71 21.13C13.69 21.13 13.67 21.12 13.67 21.11C13.67 21.09 13.66 21.08 13.64 21.08C13.62 21.08 13.6 21.07 13.6 21.05C13.6 21.04 13.58 21.02 13.57 21.02C13.55 21.02 13.52 21 13.5 20.97C13.49 20.94 13.46 20.91 13.43 20.91C13.4 20.91 13.37 20.9 13.37 20.89C13.37 20.87 13.36 20.86 13.34 20.86C13.32 20.86 13.3 20.85 13.3 20.83C13.3 20.82 13.28 20.81 13.26 20.81C13.24 20.81 13.22 20.79 13.22 20.78C13.22 20.76 13.2 20.75 13.17 20.75C13.14 20.75 13.11 20.74 13.11 20.72C13.11 20.71 13.1 20.7 13.08 20.7C13.05 20.7 13.04 20.68 13.04 20.67C13.04 20.65 13.01 20.64 12.98 20.64C12.95 20.64 12.93 20.63 12.93 20.61C12.93 20.6 12.89 20.59 12.85 20.59C12.81 20.59 12.78 20.58 12.78 20.56C12.78 20.55 12.74 20.53 12.7 20.53C12.66 20.53 12.63 20.52 12.63 20.51C12.63 20.49 12.59 20.48 12.55 20.48C12.51 20.48 12.48 20.47 12.48 20.45C12.48 20.44 12.42 20.42 12.35 20.42C12.27 20.42 12.22 20.41 12.22 20.4C12.22 20.38 12.12 20.37 11.95 20.37C11.79 20.37 11.69 20.36 11.69 20.34C11.69 20.33 11.65 20.31 11.6 20.31C11.55 20.31 11.5 20.33 11.5 20.34ZM19.24 20.45C19.24 20.47 19.18 20.48 19.09 20.48C19.01 20.48 18.94 20.49 18.94 20.51C18.94 20.52 18.89 20.53 18.83 20.53C18.77 20.53 18.72 20.54 18.72 20.56C18.72 20.58 18.68 20.59 18.63 20.59C18.58 20.59 18.53 20.6 18.53 20.61C18.53 20.63 18.5 20.64 18.46 20.64C18.42 20.64 18.38 20.65 18.38 20.67C18.38 20.68 18.35 20.7 18.31 20.7C18.27 20.7 18.23 20.71 18.23 20.72C18.23 20.74 18.2 20.75 18.16 20.75C18.12 20.75 18.08 20.76 18.08 20.78C18.08 20.79 18.05 20.81 18.01 20.81C17.97 20.81 17.93 20.82 17.93 20.83C17.93 20.85 17.91 20.86 17.88 20.86C17.85 20.86 17.82 20.87 17.82 20.89C17.82 20.9 17.8 20.91 17.77 20.91C17.74 20.91 17.71 20.93 17.71 20.94C17.71 20.96 17.68 20.97 17.64 20.97C17.59 20.97 17.56 20.98 17.56 21C17.56 21.01 17.54 21.02 17.5 21.02C17.47 21.02 17.45 21.04 17.45 21.05C17.45 21.07 17.42 21.08 17.39 21.08C17.36 21.08 17.34 21.09 17.34 21.11C17.34 21.12 17.31 21.13 17.28 21.13C17.25 21.13 17.22 21.15 17.22 21.16C17.22 21.18 17.2 21.19 17.17 21.19C17.14 21.19 17.11 21.2 17.11 21.22C17.11 21.23 17.09 21.24 17.06 21.24C17.03 21.24 17 21.25 17 21.27C17 21.28 16.98 21.3 16.94 21.3C16.91 21.3 16.89 21.31 16.89 21.32C16.89 21.34 16.86 21.35 16.83 21.35C16.8 21.35 16.78 21.36 16.78 21.38C16.78 21.39 16.75 21.41 16.72 21.41C16.69 21.41 16.66 21.42 16.66 21.43C16.66 21.45 16.65 21.46 16.63 21.46C16.61 21.46 16.59 21.47 16.59 21.49C16.59 21.5 16.56 21.52 16.53 21.52C16.5 21.52 16.48 21.53 16.48 21.54C16.48 21.56 16.46 21.57 16.44 21.57C16.42 21.57 16.4 21.58 16.4 21.6C16.4 21.61 16.39 21.62 16.36 21.62C16.34 21.62 16.33 21.64 16.33 21.65C16.33 21.67 16.31 21.68 16.29 21.68C16.28 21.68 16.25 21.7 16.23 21.73C16.22 21.76 16.2 21.79 16.18 21.79C16.15 21.79 15.88 22.19 15.88 22.24C15.88 22.26 15.87 22.28 15.86 22.28C15.85 22.28 15.84 22.32 15.84 22.36C15.84 22.41 15.83 22.44 15.82 22.44C15.81 22.44 15.8 22.54 15.8 22.69C15.8 22.83 15.81 22.93 15.82 22.93C15.83 22.93 15.84 22.96 15.84 22.99C15.84 23.02 15.85 23.04 15.86 23.04C15.87 23.04 15.88 23.06 15.88 23.09C15.88 23.13 16 23.32 16.03 23.32C16.04 23.32 16.08 23.37 16.12 23.43C16.16 23.49 16.2 23.53 16.22 23.53C16.24 23.53 16.29 23.6 16.29 23.64C16.29 23.66 16.32 23.71 16.35 23.75C16.38 23.8 16.4 23.85 16.4 23.87C16.4 23.9 16.41 23.92 16.42 23.92C16.43 23.92 16.44 23.94 16.44 23.97C16.44 24 16.45 24.03 16.46 24.03C16.47 24.03 16.48 24.08 16.48 24.14C16.48 24.2 16.49 24.24 16.5 24.24C16.51 24.24 16.51 24.34 16.51 24.46C16.51 24.59 16.52 24.68 16.53 24.68C16.55 24.68 16.55 25.12 16.55 25.94C16.55 26.76 16.55 27.19 16.53 27.19C16.52 27.19 16.51 27.36 16.51 27.66C16.51 27.95 16.51 28.12 16.5 28.12C16.48 28.12 16.48 28.24 16.48 28.42C16.48 28.6 16.47 28.72 16.46 28.72C16.45 28.72 16.44 28.77 16.44 28.83C16.44 28.89 16.43 28.94 16.42 28.94C16.41 28.94 16.4 28.98 16.4 29.02C16.4 29.07 16.39 29.1 16.38 29.1C16.37 29.1 16.36 29.14 16.36 29.18C16.36 29.23 16.36 29.27 16.35 29.27C16.34 29.27 16.33 29.29 16.33 29.32C16.33 29.35 16.32 29.38 16.31 29.38C16.3 29.38 16.29 29.39 16.29 29.42C16.29 29.44 16.26 29.5 16.23 29.54C16.2 29.58 16.18 29.63 16.18 29.65C16.18 29.69 16.06 29.87 16.03 29.87C16 29.87 15.77 30.21 15.77 30.26C15.77 30.28 15.75 30.31 15.73 30.33C15.71 30.35 15.69 30.4 15.69 30.45C15.69 30.49 15.68 30.52 15.67 30.52C15.66 30.52 15.65 30.6 15.65 30.71C15.65 30.82 15.66 30.9 15.67 30.9C15.68 30.9 15.69 30.94 15.69 30.99C15.69 31.03 15.7 31.07 15.71 31.07C15.72 31.07 15.73 31.09 15.73 31.11C15.73 31.16 15.93 31.45 15.96 31.45C15.98 31.45 15.99 31.46 15.99 31.48C15.99 31.49 16.01 31.5 16.03 31.5C16.05 31.5 16.07 31.52 16.07 31.53C16.07 31.55 16.08 31.56 16.1 31.56C16.12 31.56 16.14 31.57 16.14 31.59C16.14 31.6 16.17 31.61 16.2 31.61C16.23 31.61 16.25 31.63 16.25 31.64C16.25 31.66 16.28 31.67 16.31 31.67C16.34 31.67 16.36 31.68 16.36 31.7C16.36 31.71 16.41 31.72 16.46 31.72C16.51 31.72 16.55 31.73 16.55 31.75C16.55 31.76 16.6 31.78 16.66 31.78C16.73 31.78 16.78 31.79 16.78 31.8C16.78 31.82 16.84 31.83 16.94 31.83C17.04 31.83 17.11 31.84 17.11 31.86C17.11 31.88 17.39 31.89 17.9 31.89C18.41 31.89 18.68 31.88 18.68 31.86C18.68 31.84 18.75 31.83 18.85 31.83C18.95 31.83 19.02 31.82 19.02 31.8C19.02 31.79 19.07 31.78 19.13 31.78C19.19 31.78 19.24 31.76 19.24 31.75C19.24 31.73 19.29 31.72 19.34 31.72C19.39 31.72 19.43 31.71 19.43 31.7C19.43 31.68 19.46 31.67 19.5 31.67C19.55 31.67 19.58 31.66 19.58 31.64C19.58 31.63 19.61 31.61 19.65 31.61C19.7 31.61 19.73 31.6 19.73 31.59C19.73 31.57 19.75 31.56 19.79 31.56C19.82 31.56 19.84 31.55 19.84 31.53C19.84 31.52 19.86 31.5 19.88 31.5C19.9 31.5 19.92 31.49 19.92 31.48C19.92 31.46 19.94 31.45 19.97 31.45C20 31.45 20.03 31.43 20.05 31.39C20.06 31.36 20.08 31.34 20.1 31.34C20.13 31.34 20.33 31.05 20.33 31C20.33 30.98 20.34 30.96 20.35 30.96C20.36 30.96 20.36 30.92 20.36 30.88C20.36 30.83 20.37 30.79 20.38 30.79C20.39 30.79 20.4 30.69 20.4 30.55C20.4 30.4 20.39 30.3 20.38 30.3C20.37 30.3 20.36 30.27 20.36 30.22C20.36 30.18 20.36 30.14 20.35 30.14C20.34 30.14 20.33 30.1 20.33 30.06C20.33 30.01 20.32 29.98 20.31 29.98C20.3 29.98 20.29 29.95 20.29 29.92C20.29 29.89 20.28 29.87 20.27 29.87C20.26 29.87 20.25 29.84 20.25 29.81C20.25 29.78 20.24 29.76 20.23 29.76C20.22 29.76 20.22 29.73 20.22 29.7C20.22 29.67 20.21 29.65 20.2 29.65C20.19 29.65 20.18 29.62 20.18 29.59C20.18 29.56 20.17 29.54 20.16 29.54C20.15 29.54 20.14 29.51 20.14 29.48C20.14 29.45 20.13 29.43 20.12 29.43C20.11 29.43 20.1 29.39 20.1 29.35C20.1 29.3 20.09 29.27 20.08 29.27C20.07 29.27 20.07 29.23 20.07 29.18C20.07 29.14 20.06 29.1 20.05 29.1C20.04 29.1 20.03 29 20.03 28.86C20.03 28.71 20.02 28.61 20.01 28.61C20 28.61 19.99 28.17 19.99 27.36C19.99 26.54 20 26.1 20.01 26.1C20.02 26.1 20.03 25.95 20.03 25.69C20.03 25.44 20.04 25.28 20.05 25.28C20.06 25.28 20.07 25.18 20.07 25.04C20.07 24.89 20.07 24.79 20.08 24.79C20.09 24.79 20.1 24.74 20.1 24.68C20.1 24.62 20.11 24.57 20.12 24.57C20.13 24.57 20.14 24.54 20.14 24.49C20.14 24.45 20.15 24.41 20.16 24.41C20.17 24.41 20.18 24.38 20.18 24.35C20.18 24.32 20.19 24.3 20.2 24.3C20.21 24.3 20.22 24.28 20.22 24.26C20.22 24.2 20.37 23.97 20.41 23.97C20.43 23.97 20.44 23.96 20.44 23.94C20.44 23.93 20.46 23.92 20.5 23.92C20.53 23.92 20.55 23.9 20.55 23.89C20.55 23.87 20.63 23.86 20.76 23.86C20.88 23.86 20.96 23.87 20.96 23.89C20.96 23.9 20.98 23.92 21 23.92C21.02 23.92 21.04 23.93 21.04 23.94C21.04 23.96 21.05 23.97 21.07 23.97C21.1 23.97 21.26 24.2 21.26 24.25C21.26 24.27 21.28 24.3 21.3 24.33C21.32 24.35 21.34 24.4 21.34 24.44C21.34 24.48 21.35 24.52 21.36 24.52C21.37 24.52 21.37 24.54 21.37 24.57C21.37 24.6 21.38 24.63 21.39 24.63C21.4 24.63 21.41 24.68 21.41 24.74C21.41 24.8 21.42 24.84 21.43 24.84C21.44 24.84 21.45 24.89 21.45 24.95C21.45 25.01 21.46 25.06 21.47 25.06C21.48 25.06 21.49 25.16 21.49 25.31C21.49 25.45 21.49 25.55 21.5 25.55C21.52 25.55 21.52 25.85 21.52 26.37C21.52 26.9 21.52 27.19 21.5 27.19C21.49 27.19 21.49 27.41 21.49 27.79C21.49 28.17 21.48 28.39 21.47 28.39C21.46 28.39 21.45 28.51 21.45 28.69C21.45 28.87 21.44 28.99 21.43 28.99C21.42 28.99 21.41 29.05 21.41 29.13C21.41 29.2 21.4 29.27 21.39 29.27C21.38 29.27 21.37 29.29 21.37 29.32C21.37 29.35 21.37 29.38 21.36 29.38C21.35 29.38 21.34 29.4 21.34 29.42C21.34 29.45 21.32 29.49 21.3 29.51C21.28 29.53 21.26 29.57 21.26 29.59C21.26 29.63 21.14 29.81 21.11 29.81C21.08 29.81 20.89 30.1 20.89 30.15C20.89 30.17 20.87 30.2 20.85 30.22C20.83 30.24 20.81 30.28 20.81 30.31C20.81 30.34 20.8 30.36 20.79 30.36C20.78 30.36 20.78 30.49 20.78 30.69C20.78 30.89 20.78 31.01 20.79 31.01C20.8 31.01 20.81 31.04 20.81 31.07C20.81 31.1 20.82 31.12 20.83 31.12C20.84 31.12 20.85 31.14 20.85 31.16C20.85 31.22 21.05 31.5 21.08 31.5C21.1 31.5 21.11 31.52 21.11 31.53C21.11 31.55 21.13 31.56 21.15 31.56C21.17 31.56 21.19 31.57 21.19 31.59C21.19 31.6 21.2 31.61 21.22 31.61C21.25 31.61 21.26 31.63 21.26 31.64C21.26 31.66 21.3 31.67 21.34 31.67C21.38 31.67 21.41 31.68 21.41 31.7C21.41 31.71 21.45 31.72 21.49 31.72C21.53 31.72 21.56 31.73 21.56 31.75C21.56 31.76 21.61 31.78 21.67 31.78C21.74 31.78 21.79 31.79 21.79 31.8C21.79 31.82 21.86 31.83 21.97 31.83C22.08 31.83 22.16 31.84 22.16 31.86C22.16 31.88 22.48 31.89 23.08 31.89C23.67 31.89 23.99 31.88 23.99 31.86C23.99 31.84 24.05 31.83 24.14 31.83C24.23 31.83 24.29 31.82 24.29 31.8C24.29 31.79 24.34 31.78 24.4 31.78C24.46 31.78 24.51 31.76 24.51 31.75C24.51 31.73 24.56 31.72 24.61 31.72C24.66 31.72 24.7 31.71 24.7 31.7C24.7 31.68 24.73 31.67 24.76 31.67C24.79 31.67 24.81 31.66 24.81 31.64C24.81 31.63 24.84 31.61 24.87 31.61C24.9 31.61 24.93 31.6 24.93 31.59C24.93 31.57 24.95 31.56 24.98 31.56C25.01 31.56 25.04 31.55 25.04 31.53C25.04 31.52 25.05 31.5 25.08 31.5C25.1 31.5 25.11 31.49 25.11 31.48C25.11 31.46 25.13 31.45 25.15 31.45C25.17 31.45 25.19 31.44 25.19 31.42C25.19 31.41 25.2 31.39 25.22 31.39C25.25 31.39 25.49 31.05 25.49 31C25.49 30.98 25.49 30.96 25.5 30.96C25.52 30.96 25.52 30.93 25.52 30.9C25.52 30.87 25.53 30.85 25.54 30.85C25.55 30.85 25.56 30.79 25.56 30.71C25.56 30.63 25.57 30.57 25.58 30.56C25.6 30.55 25.6 30.55 25.58 30.53C25.57 30.52 25.56 30.46 25.56 30.36C25.56 30.27 25.55 30.19 25.54 30.19C25.53 30.19 25.52 30.17 25.52 30.14C25.52 30.11 25.52 30.08 25.5 30.08C25.49 30.08 25.49 30.06 25.49 30.04C25.49 30.01 25.47 29.97 25.45 29.95C25.43 29.93 25.41 29.89 25.41 29.87C25.41 29.84 25.39 29.81 25.37 29.78C25.35 29.76 25.34 29.72 25.34 29.7C25.34 29.67 25.33 29.65 25.32 29.65C25.31 29.65 25.3 29.62 25.3 29.59C25.3 29.56 25.29 29.54 25.28 29.54C25.27 29.54 25.26 29.51 25.26 29.48C25.26 29.45 25.25 29.43 25.24 29.43C25.23 29.43 25.22 29.41 25.22 29.38C25.22 29.35 25.22 29.32 25.21 29.32C25.2 29.32 25.19 29.3 25.19 29.27C25.19 29.24 25.18 29.21 25.17 29.21C25.16 29.21 25.15 29.17 25.15 29.13C25.15 29.08 25.14 29.05 25.13 29.05C25.12 29.05 25.11 28.99 25.11 28.91C25.11 28.84 25.1 28.77 25.09 28.77C25.08 28.77 25.08 28.63 25.08 28.39C25.08 28.16 25.07 28.01 25.06 28.01C25.04 28.01 25.04 27.52 25.04 26.59C25.04 25.66 25.04 25.17 25.06 25.17C25.07 25.17 25.08 25.05 25.08 24.87C25.08 24.69 25.08 24.57 25.09 24.57C25.1 24.57 25.11 24.54 25.11 24.49C25.11 24.45 25.12 24.41 25.13 24.41C25.14 24.41 25.15 24.37 25.15 24.33C25.15 24.29 25.17 24.24 25.19 24.22C25.21 24.2 25.22 24.16 25.22 24.14C25.22 24.1 25.35 23.92 25.38 23.92C25.39 23.92 25.42 23.89 25.43 23.86C25.45 23.83 25.47 23.81 25.49 23.81C25.51 23.81 25.52 23.8 25.52 23.78C25.52 23.77 25.55 23.75 25.58 23.75C25.61 23.75 25.64 23.74 25.64 23.73C25.64 23.71 25.7 23.7 25.8 23.7C25.9 23.7 25.97 23.71 25.97 23.73C25.97 23.74 26 23.75 26.03 23.75C26.06 23.75 26.08 23.77 26.08 23.78C26.08 23.8 26.1 23.81 26.12 23.81C26.14 23.81 26.16 23.82 26.16 23.84C26.16 23.85 26.17 23.86 26.19 23.86C26.22 23.86 26.38 24.09 26.38 24.15C26.38 24.17 26.39 24.19 26.4 24.19C26.41 24.19 26.42 24.21 26.42 24.24C26.42 24.27 26.43 24.3 26.44 24.3C26.45 24.3 26.46 24.34 26.46 24.38C26.46 24.43 26.47 24.46 26.48 24.46C26.49 24.46 26.5 24.5 26.5 24.54C26.5 24.59 26.5 24.63 26.51 24.63C26.52 24.63 26.53 24.7 26.53 24.79C26.53 24.88 26.54 24.95 26.55 24.95C26.56 24.95 26.57 25.05 26.57 25.2C26.57 25.35 26.58 25.45 26.59 25.45C26.6 25.45 26.61 25.88 26.61 26.7C26.61 27.52 26.6 27.96 26.59 27.96C26.58 27.96 26.57 28.08 26.57 28.28C26.57 28.48 26.56 28.61 26.55 28.61C26.54 28.61 26.53 28.69 26.53 28.8C26.53 28.91 26.53 28.99 26.51 28.99C26.5 28.99 26.5 29.04 26.5 29.1C26.5 29.16 26.49 29.21 26.48 29.21C26.47 29.21 26.46 29.25 26.46 29.29C26.46 29.34 26.45 29.38 26.44 29.38C26.43 29.38 26.42 29.4 26.42 29.43C26.42 29.46 26.41 29.48 26.4 29.48C26.39 29.48 26.38 29.51 26.38 29.53C26.38 29.56 26.37 29.6 26.35 29.62C26.33 29.64 26.31 29.68 26.31 29.7C26.31 29.73 26.29 29.76 26.27 29.78C26.25 29.81 26.23 29.84 26.23 29.86C26.23 29.88 26.21 29.93 26.18 29.98C26.15 30.02 26.12 30.07 26.12 30.1C26.12 30.12 26.11 30.14 26.1 30.14C26.09 30.14 26.08 30.16 26.08 30.19C26.08 30.22 26.08 30.25 26.07 30.25C26.05 30.25 26.05 30.37 26.05 30.55C26.05 30.73 26.05 30.85 26.07 30.85C26.08 30.85 26.08 30.87 26.08 30.9C26.08 30.93 26.09 30.96 26.1 30.96C26.11 30.96 26.12 30.98 26.12 31C26.12 31.05 26.28 31.29 26.31 31.29C26.33 31.29 26.35 31.31 26.36 31.34C26.38 31.37 26.41 31.39 26.43 31.39C26.44 31.39 26.46 31.41 26.46 31.42C26.46 31.44 26.48 31.45 26.5 31.45C26.52 31.45 26.53 31.46 26.53 31.48C26.53 31.49 26.56 31.5 26.59 31.5C26.62 31.5 26.65 31.52 26.65 31.53C26.65 31.55 26.66 31.56 26.68 31.56C26.7 31.56 26.72 31.57 26.72 31.59C26.72 31.6 26.75 31.61 26.78 31.61C26.81 31.61 26.83 31.63 26.83 31.64C26.83 31.66 26.87 31.67 26.91 31.67C26.95 31.67 26.98 31.68 26.98 31.7C26.98 31.71 27.02 31.72 27.06 31.72C27.1 31.72 27.13 31.73 27.13 31.75C27.13 31.76 27.17 31.78 27.22 31.78C27.28 31.78 27.32 31.79 27.32 31.8C27.32 31.82 27.37 31.83 27.45 31.83C27.52 31.83 27.58 31.84 27.58 31.86C27.58 31.88 27.69 31.89 27.86 31.89C28.03 31.89 28.14 31.9 28.14 31.91C28.14 31.93 28.23 31.94 28.36 31.94C28.5 31.94 28.59 31.93 28.59 31.91C28.59 31.9 28.7 31.89 28.89 31.89C29.08 31.89 29.19 31.88 29.19 31.86C29.19 31.84 29.25 31.83 29.34 31.83C29.42 31.83 29.49 31.82 29.49 31.8C29.49 31.79 29.53 31.78 29.58 31.78C29.63 31.78 29.67 31.76 29.67 31.75C29.67 31.73 29.71 31.72 29.75 31.72C29.79 31.72 29.82 31.71 29.82 31.7C29.82 31.68 29.85 31.67 29.88 31.67C29.91 31.67 29.93 31.66 29.93 31.64C29.93 31.63 29.96 31.61 29.99 31.61C30.02 31.61 30.05 31.59 30.07 31.56C30.08 31.53 30.11 31.5 30.13 31.5C30.14 31.5 30.16 31.49 30.16 31.48C30.16 31.46 30.18 31.45 30.2 31.45C30.22 31.45 30.23 31.44 30.23 31.42C30.23 31.41 30.25 31.39 30.27 31.39C30.29 31.39 30.31 31.38 30.31 31.37C30.31 31.35 30.32 31.34 30.34 31.34C30.37 31.34 30.57 31.05 30.57 31C30.57 30.98 30.58 30.96 30.59 30.96C30.6 30.96 30.61 30.93 30.61 30.9C30.61 30.87 30.62 30.85 30.63 30.85C30.64 30.85 30.65 30.81 30.65 30.77C30.65 30.72 30.65 30.69 30.66 30.69C30.67 30.69 30.68 30.59 30.68 30.47C30.68 30.34 30.67 30.25 30.66 30.25C30.65 30.25 30.65 30.22 30.65 30.19C30.65 30.16 30.64 30.14 30.63 30.14C30.62 30.14 30.61 30.12 30.61 30.09C30.61 30.06 30.59 30.02 30.57 30C30.55 29.98 30.53 29.94 30.53 29.91C30.53 29.89 30.52 29.87 30.51 29.87C30.5 29.87 30.5 29.85 30.5 29.82C30.5 29.8 30.46 29.73 30.42 29.68C30.38 29.62 30.35 29.55 30.35 29.53C30.35 29.5 30.34 29.48 30.33 29.48C30.32 29.48 30.31 29.46 30.31 29.43C30.31 29.4 30.3 29.38 30.29 29.38C30.28 29.38 30.27 29.35 30.27 29.32C30.27 29.29 30.26 29.27 30.25 29.27C30.24 29.27 30.23 29.24 30.23 29.21C30.23 29.18 30.23 29.16 30.22 29.16C30.21 29.16 30.2 29.12 30.2 29.07C30.2 29.03 30.19 28.99 30.18 28.99C30.17 28.99 30.16 28.94 30.16 28.88C30.16 28.82 30.15 28.77 30.14 28.77C30.13 28.77 30.12 28.21 30.12 27.14C30.12 26.06 30.13 25.5 30.14 25.5C30.15 25.5 30.16 25.09 30.16 24.33C30.16 23.56 30.15 23.15 30.14 23.15C30.13 23.15 30.12 23.08 30.12 22.99C30.12 22.9 30.11 22.83 30.1 22.83C30.09 22.83 30.08 22.76 30.08 22.69C30.08 22.61 30.08 22.55 30.07 22.55C30.06 22.55 30.05 22.52 30.05 22.47C30.05 22.43 30.04 22.39 30.03 22.39C30.02 22.39 30.01 22.35 30.01 22.31C30.01 22.26 30 22.22 29.99 22.22C29.98 22.22 29.97 22.2 29.97 22.17C29.97 22.14 29.96 22.12 29.95 22.12C29.94 22.12 29.93 22.09 29.93 22.06C29.93 22.03 29.93 22.01 29.92 22.01C29.91 22.01 29.9 21.98 29.9 21.95C29.9 21.92 29.89 21.9 29.88 21.9C29.87 21.9 29.86 21.88 29.86 21.85C29.86 21.82 29.84 21.78 29.82 21.76C29.8 21.74 29.79 21.71 29.79 21.69C29.79 21.64 29.4 21.08 29.37 21.08C29.36 21.08 29.33 21.05 29.32 21.02C29.3 20.99 29.28 20.97 29.26 20.97C29.25 20.97 29.22 20.95 29.21 20.91C29.19 20.88 29.16 20.86 29.15 20.86C29.13 20.86 29.11 20.85 29.11 20.83C29.11 20.82 29.1 20.81 29.08 20.81C29.05 20.81 29.04 20.79 29.04 20.78C29.04 20.76 29.02 20.75 29 20.75C28.98 20.75 28.96 20.74 28.96 20.72C28.96 20.71 28.94 20.7 28.91 20.7C28.88 20.7 28.85 20.68 28.85 20.67C28.85 20.65 28.83 20.64 28.79 20.64C28.76 20.64 28.74 20.63 28.74 20.61C28.74 20.6 28.71 20.59 28.68 20.59C28.65 20.59 28.63 20.58 28.63 20.56C28.63 20.55 28.59 20.53 28.55 20.53C28.51 20.53 28.48 20.52 28.48 20.51C28.48 20.49 28.42 20.48 28.35 20.48C28.27 20.48 28.22 20.47 28.22 20.45C28.22 20.43 28.08 20.42 27.84 20.42C27.6 20.42 27.47 20.43 27.47 20.45C27.47 20.47 27.42 20.48 27.36 20.48C27.29 20.48 27.24 20.49 27.24 20.51C27.24 20.52 27.2 20.53 27.15 20.53C27.1 20.53 27.06 20.55 27.06 20.56C27.06 20.58 27.03 20.59 27 20.59C26.97 20.59 26.94 20.6 26.94 20.61C26.94 20.63 26.92 20.64 26.89 20.64C26.86 20.64 26.83 20.65 26.83 20.67C26.83 20.68 26.81 20.7 26.78 20.7C26.75 20.7 26.72 20.71 26.72 20.72C26.72 20.74 26.69 20.75 26.66 20.75C26.63 20.75 26.61 20.76 26.61 20.78C26.61 20.79 26.59 20.81 26.57 20.81C26.55 20.81 26.53 20.82 26.53 20.83C26.53 20.85 26.52 20.86 26.5 20.86C26.48 20.86 26.46 20.87 26.46 20.89C26.46 20.9 26.44 20.91 26.42 20.91C26.4 20.91 26.38 20.93 26.38 20.94C26.38 20.96 26.37 20.97 26.35 20.97C26.33 20.97 26.3 20.99 26.29 21.02C26.28 21.05 26.25 21.08 26.23 21.08C26.21 21.08 26.2 21.09 26.2 21.11C26.2 21.12 26.18 21.13 26.16 21.13C26.15 21.13 26.12 21.16 26.1 21.19C26.09 21.22 26.06 21.24 26.05 21.24C26.04 21.24 26 21.28 25.97 21.32C25.94 21.37 25.91 21.41 25.9 21.41C25.89 21.41 25.84 21.46 25.8 21.52C25.76 21.58 25.72 21.62 25.71 21.62C25.7 21.62 25.61 21.75 25.5 21.9C25.4 22.05 25.31 22.17 25.29 22.17C25.28 22.17 25.26 22.19 25.24 22.22C25.2 22.31 25.1 22.3 25.03 22.18C24.99 22.13 24.96 22.07 24.96 22.05C24.96 22.03 24.95 22 24.93 21.98C24.91 21.96 24.89 21.92 24.89 21.89C24.89 21.86 24.88 21.84 24.87 21.84C24.86 21.84 24.85 21.82 24.85 21.79C24.85 21.77 24.83 21.73 24.81 21.71C24.79 21.68 24.78 21.65 24.78 21.62C24.78 21.6 24.76 21.56 24.74 21.54C24.72 21.52 24.7 21.49 24.7 21.47C24.7 21.42 24.39 20.97 24.36 20.97C24.35 20.97 24.32 20.95 24.31 20.91C24.29 20.88 24.27 20.86 24.25 20.86C24.24 20.86 24.21 20.84 24.2 20.81C24.18 20.78 24.15 20.75 24.14 20.75C24.12 20.75 24.1 20.74 24.1 20.72C24.1 20.71 24.08 20.7 24.05 20.7C24.02 20.7 23.99 20.68 23.99 20.67C23.99 20.65 23.97 20.64 23.95 20.64C23.93 20.64 23.92 20.63 23.92 20.61C23.92 20.6 23.89 20.59 23.86 20.59C23.83 20.59 23.8 20.58 23.8 20.56C23.8 20.55 23.77 20.53 23.73 20.53C23.69 20.53 23.65 20.52 23.65 20.51C23.65 20.49 23.6 20.48 23.52 20.48C23.45 20.48 23.39 20.47 23.39 20.45C23.39 20.43 23.26 20.42 23.04 20.42C22.81 20.42 22.68 20.43 22.68 20.45C22.68 20.47 22.63 20.48 22.55 20.48C22.48 20.48 22.42 20.49 22.42 20.51C22.42 20.52 22.39 20.53 22.35 20.53C22.3 20.53 22.27 20.55 22.27 20.56C22.27 20.58 22.24 20.59 22.2 20.59C22.16 20.59 22.12 20.6 22.12 20.61C22.12 20.63 22.1 20.64 22.07 20.64C22.03 20.64 22.01 20.65 22.01 20.67C22.01 20.68 21.98 20.7 21.95 20.7C21.92 20.7 21.9 20.71 21.9 20.72C21.9 20.74 21.87 20.75 21.84 20.75C21.81 20.75 21.79 20.76 21.79 20.78C21.79 20.79 21.77 20.81 21.75 20.81C21.73 20.81 21.71 20.82 21.71 20.83C21.71 20.85 21.69 20.86 21.67 20.86C21.65 20.86 21.64 20.87 21.64 20.89C21.64 20.9 21.62 20.91 21.6 20.91C21.58 20.91 21.56 20.93 21.56 20.94C21.56 20.96 21.54 20.97 21.52 20.97C21.5 20.97 21.49 20.98 21.49 21C21.49 21.01 21.47 21.02 21.45 21.02C21.43 21.02 21.41 21.04 21.41 21.05C21.41 21.07 21.4 21.08 21.38 21.08C21.36 21.08 21.33 21.1 21.32 21.13C21.3 21.16 21.28 21.19 21.26 21.19C21.25 21.19 21.22 21.21 21.21 21.24C21.19 21.27 21.17 21.3 21.15 21.3C21.14 21.3 21.1 21.35 21.06 21.41C21.02 21.47 20.98 21.52 20.96 21.52C20.94 21.52 20.59 22.02 20.59 22.06C20.59 22.1 20.46 22.28 20.43 22.28C20.42 22.28 20.4 22.3 20.38 22.33C20.37 22.36 20.34 22.39 20.32 22.39C20.31 22.39 20.29 22.4 20.29 22.42C20.29 22.43 20.27 22.44 20.24 22.44C20.18 22.44 20.07 22.28 20.07 22.18C20.07 22.15 20.06 22.12 20.05 22.12C20.04 22.12 20.03 21.9 20.03 21.52C20.03 21.13 20.02 20.91 20.01 20.91C20 20.91 19.99 20.88 19.99 20.83C19.99 20.79 19.98 20.75 19.97 20.75C19.96 20.75 19.95 20.73 19.95 20.71C19.95 20.65 19.87 20.53 19.83 20.53C19.82 20.53 19.8 20.52 19.8 20.51C19.8 20.49 19.79 20.48 19.77 20.48C19.75 20.48 19.73 20.47 19.73 20.45C19.73 20.43 19.64 20.42 19.49 20.42C19.34 20.42 19.24 20.43 19.24 20.45ZM11.73 22.47C11.73 22.49 11.75 22.5 11.79 22.5C11.82 22.5 11.84 22.51 11.84 22.53C11.84 22.54 11.86 22.55 11.88 22.55C11.9 22.55 11.92 22.56 11.92 22.58C11.92 22.59 11.93 22.61 11.94 22.61C11.98 22.61 12.25 23 12.25 23.06C12.25 23.08 12.26 23.1 12.27 23.1C12.28 23.1 12.29 23.13 12.29 23.18C12.29 23.23 12.3 23.26 12.31 23.26C12.32 23.26 12.33 23.3 12.33 23.34C12.33 23.39 12.34 23.43 12.35 23.43C12.36 23.43 12.36 23.54 12.36 23.73C12.36 23.91 12.36 24.03 12.35 24.03C12.34 24.03 12.33 24.06 12.33 24.1C12.33 24.17 12.25 24.3 12.21 24.3C12.19 24.3 12.18 24.31 12.18 24.33C12.18 24.34 12.16 24.35 12.14 24.35C12.12 24.35 12.1 24.37 12.1 24.38C12.1 24.4 11.89 24.41 11.49 24.41C11.09 24.41 10.87 24.4 10.87 24.38C10.87 24.37 10.85 24.35 10.82 24.35C10.77 24.35 10.68 24.24 10.68 24.18C10.68 24.15 10.67 24.14 10.66 24.14C10.65 24.14 10.65 24.01 10.65 23.81C10.65 23.61 10.65 23.48 10.66 23.48C10.67 23.48 10.68 23.44 10.68 23.4C10.68 23.35 10.69 23.32 10.7 23.32C10.71 23.32 10.72 23.29 10.72 23.26C10.72 23.23 10.73 23.21 10.74 23.21C10.75 23.21 10.76 23.19 10.76 23.16C10.76 23.13 10.77 23.09 10.79 23.07C10.82 23.05 10.83 23.02 10.83 23C10.83 22.95 11.07 22.61 11.1 22.61C11.12 22.61 11.13 22.59 11.13 22.58C11.13 22.56 11.15 22.55 11.17 22.55C11.19 22.55 11.21 22.54 11.21 22.53C11.21 22.51 11.23 22.5 11.26 22.5C11.29 22.5 11.32 22.49 11.32 22.47C11.32 22.45 11.4 22.44 11.52 22.44C11.65 22.44 11.73 22.45 11.73 22.47Z" fill="#E62A4C" fill-opacity="1.000000" fill-rule="evenodd"/>
	<path id="logo 1 (Traced)" d="M6.28 0.02C6.28 0.04 6.16 0.05 5.98 0.05C5.79 0.05 5.68 0.06 5.68 0.08C5.68 0.09 5.58 0.1 5.42 0.1C5.25 0.1 5.15 0.11 5.15 0.13C5.15 0.15 5.04 0.16 4.85 0.16C4.67 0.16 4.56 0.17 4.56 0.19C4.56 0.2 4.26 0.21 3.71 0.21C3.17 0.21 2.87 0.2 2.87 0.19C2.87 0.17 2.77 0.16 2.59 0.16C2.42 0.16 2.31 0.15 2.31 0.13C2.31 0.11 2.11 0.1 1.75 0.1C1.39 0.1 1.19 0.11 1.19 0.13C1.19 0.15 1.14 0.16 1.06 0.16C0.99 0.16 0.93 0.17 0.93 0.19C0.93 0.2 0.9 0.21 0.85 0.21C0.81 0.21 0.78 0.23 0.78 0.24C0.78 0.26 0.75 0.27 0.72 0.27C0.69 0.27 0.67 0.28 0.67 0.3C0.67 0.31 0.64 0.32 0.61 0.32C0.58 0.32 0.56 0.33 0.56 0.35C0.56 0.36 0.54 0.38 0.52 0.38C0.5 0.38 0.48 0.39 0.48 0.4C0.48 0.42 0.46 0.43 0.44 0.43C0.42 0.43 0.41 0.44 0.41 0.46C0.41 0.47 0.39 0.49 0.38 0.49C0.34 0.49 0.07 0.88 0.07 0.94C0.07 0.96 0.06 0.98 0.05 0.98C0.04 0.98 0.03 1.01 0.03 1.06C0.03 1.1 0.02 1.14 0.01 1.14C0 1.14 0 1.26 0 1.44C0 1.62 0 1.74 0.01 1.74C0.02 1.74 0.03 1.77 0.03 1.8C0.03 1.83 0.04 1.85 0.05 1.85C0.06 1.85 0.07 1.87 0.07 1.89C0.07 1.94 0.19 2.12 0.22 2.12C0.24 2.12 0.26 2.15 0.28 2.18C0.29 2.21 0.32 2.23 0.33 2.23C0.35 2.23 0.37 2.26 0.39 2.29C0.4 2.32 0.43 2.34 0.45 2.34C0.47 2.34 0.48 2.35 0.48 2.37C0.48 2.38 0.5 2.4 0.52 2.4C0.54 2.4 0.56 2.41 0.56 2.42C0.56 2.44 0.57 2.45 0.59 2.45C0.61 2.45 0.63 2.46 0.63 2.48C0.63 2.49 0.64 2.51 0.66 2.51C0.69 2.51 0.89 2.79 0.89 2.84C0.89 2.86 0.91 2.89 0.93 2.92C0.95 2.94 0.97 2.98 0.97 3C0.97 3.03 0.98 3.05 0.99 3.05C1 3.05 1 3.09 1 3.13C1 3.18 1.01 3.22 1.02 3.22C1.03 3.22 1.04 3.28 1.04 3.35C1.04 3.43 1.05 3.49 1.06 3.49C1.07 3.49 1.08 3.58 1.08 3.71C1.08 3.83 1.09 3.92 1.1 3.92C1.11 3.92 1.12 5.12 1.12 7.45C1.12 9.77 1.11 10.97 1.1 10.97C1.09 10.97 1.08 11.1 1.08 11.32C1.08 11.54 1.07 11.68 1.06 11.68C1.05 11.68 1.04 11.76 1.04 11.87C1.04 11.98 1.03 12.06 1.02 12.06C1.01 12.06 1 12.12 1 12.19C1 12.27 1 12.33 0.99 12.33C0.98 12.33 0.97 12.38 0.97 12.44C0.97 12.5 0.96 12.55 0.95 12.55C0.94 12.55 0.93 12.59 0.93 12.63C0.93 12.68 0.92 12.71 0.91 12.71C0.9 12.71 0.89 12.73 0.89 12.76C0.89 12.79 0.88 12.83 0.85 12.85C0.83 12.87 0.82 12.9 0.82 12.92C0.82 12.97 0.55 13.37 0.51 13.37C0.5 13.37 0.48 13.39 0.46 13.42C0.45 13.45 0.42 13.48 0.41 13.48C0.4 13.48 0.36 13.51 0.33 13.56C0.3 13.6 0.27 13.64 0.26 13.64C0.25 13.64 0.19 13.71 0.13 13.79C0.06 13.89 0.03 13.96 0.03 14.01C0.03 14.05 0.02 14.08 0.01 14.08C0 14.08 0 14.19 0 14.35C0 14.51 0 14.62 0.01 14.62C0.02 14.62 0.03 14.66 0.03 14.71C0.03 14.75 0.04 14.79 0.05 14.79C0.06 14.79 0.07 14.81 0.07 14.84C0.07 14.86 0.09 14.9 0.11 14.92C0.13 14.95 0.14 14.98 0.14 15C0.14 15.05 0.27 15.22 0.3 15.22C0.31 15.22 0.34 15.25 0.35 15.28C0.36 15.31 0.39 15.33 0.41 15.33C0.42 15.33 0.45 15.36 0.46 15.39C0.48 15.42 0.5 15.44 0.52 15.44C0.54 15.44 0.56 15.45 0.56 15.47C0.56 15.48 0.58 15.5 0.61 15.5C0.64 15.5 0.67 15.51 0.67 15.52C0.67 15.54 0.68 15.55 0.71 15.55C0.73 15.55 0.74 15.56 0.74 15.58C0.74 15.59 0.77 15.61 0.8 15.61C0.83 15.61 0.85 15.62 0.85 15.63C0.85 15.65 0.89 15.66 0.93 15.66C0.97 15.66 1 15.67 1 15.69C1 15.7 1.04 15.71 1.08 15.71C1.12 15.71 1.15 15.73 1.15 15.74C1.15 15.76 1.2 15.77 1.25 15.77C1.3 15.77 1.34 15.78 1.34 15.8C1.34 15.81 1.4 15.82 1.47 15.82C1.55 15.82 1.6 15.84 1.6 15.85C1.6 15.87 1.68 15.88 1.79 15.88C1.9 15.88 1.98 15.89 1.98 15.91C1.98 15.92 2.32 15.93 2.97 15.93C3.61 15.93 3.96 15.92 3.96 15.91C3.96 15.89 4.04 15.88 4.16 15.88C4.29 15.88 4.37 15.87 4.37 15.85C4.37 15.84 4.42 15.82 4.5 15.82C4.57 15.82 4.63 15.81 4.63 15.8C4.63 15.78 4.67 15.77 4.72 15.77C4.78 15.77 4.82 15.76 4.82 15.74C4.82 15.73 4.85 15.71 4.89 15.71C4.93 15.71 4.97 15.7 4.97 15.69C4.97 15.67 5 15.66 5.04 15.66C5.08 15.66 5.12 15.65 5.12 15.63C5.12 15.62 5.13 15.61 5.15 15.61C5.17 15.61 5.19 15.59 5.19 15.58C5.19 15.56 5.21 15.55 5.24 15.55C5.27 15.55 5.31 15.53 5.32 15.5C5.34 15.47 5.36 15.44 5.38 15.44C5.39 15.44 5.42 15.42 5.43 15.39C5.45 15.36 5.47 15.33 5.49 15.33C5.52 15.33 5.6 15.21 5.6 15.16C5.6 15.14 5.62 15.11 5.64 15.09C5.66 15.07 5.68 15.03 5.68 15C5.68 14.97 5.69 14.95 5.7 14.95C5.71 14.95 5.71 14.89 5.71 14.81C5.71 14.74 5.72 14.68 5.73 14.68C5.74 14.68 5.75 14.62 5.75 14.54C5.75 14.47 5.74 14.4 5.73 14.4C5.72 14.4 5.71 14.36 5.71 14.3C5.71 14.24 5.71 14.19 5.7 14.19C5.69 14.19 5.68 14.16 5.68 14.13C5.68 14.1 5.67 14.08 5.66 14.08C5.65 14.08 5.64 14.06 5.64 14.04C5.64 13.99 5.41 13.64 5.37 13.64C5.36 13.64 5.34 13.62 5.32 13.59C5.31 13.56 5.28 13.53 5.26 13.53C5.24 13.53 5.23 13.52 5.23 13.5C5.23 13.49 5.21 13.48 5.2 13.48C5.18 13.48 5.15 13.45 5.14 13.42C5.12 13.39 5.1 13.37 5.08 13.37C5.05 13.37 4.93 13.19 4.93 13.14C4.93 13.11 4.92 13.09 4.91 13.09C4.9 13.09 4.89 13.06 4.89 13.01C4.89 12.97 4.88 12.93 4.87 12.93C4.86 12.93 4.85 12.88 4.85 12.82C4.85 12.76 4.85 12.71 4.84 12.71C4.83 12.71 4.82 12.63 4.82 12.52C4.82 12.41 4.81 12.33 4.8 12.33C4.79 12.33 4.78 12.22 4.78 12.06C4.78 11.89 4.77 11.78 4.76 11.78C4.75 11.78 4.74 11.45 4.74 10.83C4.74 10.21 4.75 9.87 4.76 9.87C4.77 9.87 4.78 9.8 4.78 9.71C4.78 9.62 4.79 9.55 4.8 9.55C4.81 9.55 4.82 9.53 4.82 9.51C4.82 9.44 4.94 9.27 4.99 9.27C5.02 9.27 5.04 9.26 5.04 9.25C5.04 9.23 5.1 9.22 5.19 9.22C5.28 9.22 5.34 9.23 5.34 9.25C5.34 9.26 5.37 9.27 5.42 9.27C5.46 9.27 5.49 9.29 5.49 9.3C5.49 9.32 5.52 9.33 5.55 9.33C5.58 9.33 5.6 9.34 5.6 9.36C5.6 9.37 5.62 9.38 5.64 9.38C5.66 9.38 5.68 9.4 5.68 9.41C5.68 9.43 5.69 9.44 5.71 9.44C5.74 9.44 5.75 9.45 5.75 9.47C5.75 9.48 5.76 9.49 5.78 9.49C5.82 9.49 6.01 9.78 6.01 9.83C6.01 9.85 6.03 9.88 6.05 9.9C6.07 9.92 6.09 9.96 6.09 9.99C6.09 10.02 6.1 10.04 6.11 10.04C6.12 10.04 6.13 10.06 6.13 10.09C6.13 10.12 6.13 10.15 6.14 10.15C6.15 10.15 6.16 10.17 6.16 10.2C6.16 10.23 6.17 10.26 6.18 10.26C6.19 10.26 6.2 10.28 6.2 10.31C6.2 10.34 6.21 10.37 6.22 10.37C6.23 10.37 6.24 10.4 6.24 10.45C6.24 10.49 6.25 10.53 6.26 10.53C6.27 10.53 6.28 10.57 6.28 10.61C6.28 10.66 6.28 10.69 6.29 10.69C6.3 10.69 6.31 10.73 6.31 10.78C6.31 10.82 6.32 10.86 6.33 10.86C6.34 10.86 6.35 10.89 6.35 10.94C6.35 10.98 6.36 11.02 6.37 11.02C6.38 11.02 6.39 11.07 6.39 11.13C6.39 11.19 6.4 11.24 6.41 11.24C6.42 11.24 6.42 11.29 6.42 11.35C6.42 11.41 6.43 11.46 6.44 11.46C6.45 11.46 6.46 11.51 6.46 11.57C6.46 11.63 6.47 11.68 6.48 11.68C6.49 11.68 6.5 11.72 6.5 11.78C6.5 11.84 6.51 11.89 6.52 11.89C6.53 11.89 6.54 11.94 6.54 12C6.54 12.06 6.55 12.11 6.56 12.11C6.57 12.11 6.57 12.16 6.57 12.22C6.57 12.28 6.58 12.33 6.59 12.33C6.6 12.33 6.61 12.37 6.61 12.41C6.61 12.46 6.62 12.49 6.63 12.49C6.64 12.49 6.65 12.54 6.65 12.6C6.65 12.66 6.66 12.71 6.67 12.71C6.68 12.71 6.69 12.75 6.69 12.79C6.69 12.84 6.7 12.88 6.71 12.88C6.72 12.88 6.72 12.93 6.72 12.99C6.72 13.05 6.73 13.09 6.74 13.09C6.75 13.09 6.76 13.13 6.76 13.18C6.76 13.22 6.77 13.26 6.78 13.26C6.79 13.26 6.8 13.3 6.8 13.34C6.8 13.39 6.81 13.42 6.82 13.42C6.83 13.42 6.84 13.46 6.84 13.5C6.84 13.55 6.84 13.59 6.85 13.59C6.87 13.59 6.87 13.61 6.87 13.64C6.87 13.67 6.88 13.7 6.89 13.7C6.9 13.7 6.91 13.73 6.91 13.78C6.91 13.82 6.92 13.86 6.93 13.86C6.94 13.86 6.95 13.88 6.95 13.91C6.95 13.94 6.96 13.97 6.97 13.97C6.98 13.97 6.99 13.99 6.99 14.02C6.99 14.05 6.99 14.08 7 14.08C7.01 14.08 7.02 14.1 7.02 14.13C7.02 14.16 7.03 14.19 7.04 14.19C7.05 14.19 7.06 14.21 7.06 14.24C7.06 14.27 7.07 14.3 7.08 14.3C7.09 14.3 7.1 14.32 7.1 14.35C7.1 14.38 7.11 14.4 7.12 14.4C7.13 14.4 7.14 14.43 7.14 14.46C7.14 14.49 7.14 14.51 7.15 14.51C7.16 14.51 7.17 14.54 7.17 14.56C7.17 14.59 7.19 14.63 7.21 14.65C7.23 14.67 7.25 14.71 7.25 14.73C7.25 14.75 7.27 14.8 7.3 14.84C7.33 14.88 7.36 14.93 7.36 14.95C7.36 14.99 7.63 15.39 7.66 15.39C7.67 15.39 7.7 15.42 7.73 15.47C7.76 15.51 7.8 15.55 7.81 15.55C7.83 15.55 7.85 15.58 7.86 15.61C7.88 15.64 7.91 15.66 7.92 15.66C7.94 15.66 7.96 15.67 7.96 15.69C7.96 15.7 7.97 15.71 8 15.71C8.02 15.71 8.03 15.73 8.03 15.74C8.03 15.76 8.05 15.77 8.07 15.77C8.09 15.77 8.11 15.78 8.11 15.8C8.11 15.81 8.13 15.82 8.16 15.82C8.19 15.82 8.22 15.84 8.22 15.85C8.22 15.87 8.24 15.88 8.28 15.88C8.31 15.88 8.33 15.89 8.33 15.91C8.33 15.92 8.36 15.93 8.39 15.93C8.42 15.93 8.44 15.95 8.44 15.96C8.44 15.98 8.48 15.99 8.52 15.99C8.56 15.99 8.59 16 8.59 16.02C8.59 16.03 8.63 16.04 8.67 16.04C8.71 16.04 8.74 16.05 8.74 16.07C8.74 16.09 8.8 16.1 8.87 16.1C8.95 16.1 9 16.11 9 16.12C9 16.14 9.22 16.15 9.62 16.15C10.02 16.15 10.24 16.14 10.24 16.12C10.24 16.11 10.3 16.1 10.39 16.1C10.47 16.1 10.54 16.09 10.54 16.07C10.54 16.05 10.59 16.04 10.65 16.04C10.71 16.04 10.76 16.03 10.76 16.02C10.76 16 10.8 15.99 10.84 15.99C10.88 15.99 10.91 15.98 10.91 15.96C10.91 15.95 10.94 15.93 10.97 15.93C11 15.93 11.02 15.92 11.02 15.91C11.02 15.89 11.06 15.88 11.1 15.88C11.14 15.88 11.17 15.87 11.17 15.85C11.17 15.84 11.19 15.82 11.21 15.82C11.23 15.82 11.25 15.81 11.25 15.8C11.25 15.78 11.27 15.77 11.3 15.77C11.33 15.77 11.36 15.76 11.36 15.74C11.36 15.73 11.37 15.71 11.39 15.71C11.41 15.71 11.44 15.69 11.45 15.66C11.47 15.63 11.49 15.61 11.51 15.61C11.53 15.61 11.55 15.58 11.57 15.55C11.58 15.52 11.6 15.5 11.62 15.5C11.65 15.5 11.85 15.21 11.85 15.16C11.85 15.14 11.86 15.11 11.88 15.09C11.9 15.07 11.92 15.03 11.92 15C11.92 14.97 11.93 14.95 11.94 14.95C11.95 14.95 11.96 14.93 11.96 14.9C11.96 14.87 11.97 14.84 11.98 14.84C11.99 14.84 12 14.82 12 14.79C12 14.76 12 14.73 12.01 14.73C12.03 14.73 12.03 14.61 12.03 14.43C12.03 14.25 12.03 14.13 12.01 14.13C12 14.13 12 14.11 12 14.08C12 14.05 11.99 14.02 11.98 14.02C11.97 14.02 11.96 14 11.96 13.98C11.96 13.91 11.76 13.64 11.71 13.64C11.68 13.64 11.66 13.63 11.66 13.61C11.66 13.6 11.63 13.59 11.6 13.59C11.57 13.59 11.55 13.57 11.55 13.56C11.55 13.54 11.52 13.53 11.49 13.53C11.46 13.53 11.43 13.52 11.43 13.5C11.43 13.49 11.42 13.48 11.4 13.48C11.38 13.48 11.36 13.46 11.36 13.45C11.36 13.43 11.34 13.42 11.32 13.42C11.3 13.42 11.28 13.41 11.28 13.4C11.28 13.38 11.27 13.37 11.25 13.37C11.23 13.37 11.21 13.36 11.21 13.34C11.21 13.33 11.2 13.31 11.18 13.31C11.14 13.31 11.02 13.14 11.02 13.08C11.02 13.06 11.01 13.04 11 13.04C10.99 13.04 10.99 13 10.99 12.96C10.99 12.91 10.98 12.88 10.97 12.88C10.96 12.88 10.95 12.83 10.95 12.77C10.95 12.71 10.94 12.66 10.93 12.66C10.92 12.66 10.91 12.6 10.91 12.52C10.91 12.45 10.9 12.39 10.89 12.39C10.88 12.39 10.87 12.3 10.87 12.19C10.87 12.09 10.87 12 10.85 12C10.84 12 10.84 11.93 10.84 11.84C10.84 11.75 10.83 11.68 10.82 11.68C10.81 11.68 10.8 11.61 10.8 11.54C10.8 11.46 10.79 11.4 10.78 11.4C10.77 11.4 10.76 11.34 10.76 11.27C10.76 11.19 10.75 11.13 10.74 11.13C10.73 11.13 10.72 11.08 10.72 11.02C10.72 10.96 10.72 10.91 10.71 10.91C10.7 10.91 10.69 10.86 10.69 10.8C10.69 10.74 10.68 10.69 10.67 10.69C10.66 10.69 10.65 10.66 10.65 10.61C10.65 10.57 10.64 10.53 10.63 10.53C10.62 10.53 10.61 10.49 10.61 10.45C10.61 10.4 10.6 10.37 10.59 10.37C10.58 10.37 10.57 10.33 10.57 10.28C10.57 10.24 10.57 10.2 10.56 10.2C10.55 10.2 10.54 10.18 10.54 10.15C10.54 10.12 10.53 10.09 10.52 10.09C10.51 10.09 10.5 10.07 10.5 10.04C10.5 10.01 10.49 9.98 10.48 9.98C10.47 9.98 10.46 9.95 10.46 9.91C10.46 9.86 10.45 9.82 10.42 9.79C10.4 9.77 10.39 9.73 10.39 9.7C10.39 9.68 10.38 9.66 10.37 9.66C10.36 9.66 10.35 9.63 10.35 9.61C10.35 9.58 10.33 9.54 10.31 9.52C10.29 9.5 10.28 9.46 10.28 9.44C10.28 9.42 10.24 9.36 10.2 9.3C10.16 9.24 10.13 9.18 10.13 9.17C10.13 9.13 10.04 9 10.01 9C10 9 9.96 8.95 9.92 8.89C9.88 8.83 9.84 8.78 9.83 8.78C9.81 8.78 9.78 8.75 9.75 8.7C9.72 8.66 9.69 8.62 9.67 8.62C9.65 8.62 9.64 8.61 9.64 8.59C9.64 8.58 9.62 8.56 9.6 8.56C9.58 8.56 9.57 8.55 9.57 8.54C9.57 8.52 9.55 8.51 9.53 8.51C9.51 8.51 9.49 8.5 9.49 8.48C9.49 8.47 9.47 8.46 9.45 8.46C9.43 8.46 9.42 8.44 9.42 8.43C9.42 8.41 9.4 8.4 9.38 8.4C9.36 8.4 9.34 8.39 9.34 8.37C9.34 8.36 9.32 8.35 9.3 8.35C9.28 8.35 9.27 8.33 9.27 8.32C9.27 8.3 9.24 8.29 9.21 8.29C9.18 8.29 9.15 8.28 9.15 8.26C9.15 8.25 9.14 8.24 9.12 8.24C9.1 8.24 9.08 8.22 9.08 8.21C9.08 8.19 9.06 8.18 9.04 8.18C9.02 8.18 9 8.17 9 8.16C9 8.14 8.99 8.13 8.97 8.13C8.95 8.13 8.93 8.1 8.91 8.07C8.9 8.04 8.87 8.02 8.85 8.02C8.83 8.02 8.82 8 8.82 7.96C8.82 7.93 8.81 7.91 8.8 7.91C8.79 7.91 8.78 7.88 8.78 7.85C8.78 7.82 8.77 7.8 8.76 7.8C8.75 7.8 8.74 7.78 8.74 7.75C8.74 7.72 8.75 7.69 8.76 7.69C8.77 7.69 8.78 7.67 8.78 7.65C8.78 7.6 8.94 7.36 8.98 7.36C8.99 7.36 9 7.35 9 7.34C9 7.32 9.02 7.31 9.04 7.31C9.06 7.31 9.08 7.3 9.08 7.28C9.08 7.27 9.1 7.25 9.12 7.25C9.14 7.25 9.15 7.24 9.15 7.23C9.15 7.21 9.17 7.2 9.18 7.2C9.2 7.2 9.24 7.16 9.27 7.12C9.29 7.07 9.33 7.04 9.34 7.04C9.35 7.04 9.39 6.99 9.43 6.93C9.47 6.87 9.52 6.82 9.53 6.82C9.55 6.82 9.64 6.69 9.64 6.65C9.64 6.64 9.68 6.56 9.73 6.49C9.78 6.42 9.83 6.34 9.83 6.32C9.83 6.3 9.84 6.27 9.86 6.24C9.88 6.22 9.9 6.18 9.9 6.16C9.9 6.13 9.91 6.11 9.92 6.11C9.93 6.11 9.94 6.08 9.94 6.05C9.94 6.02 9.95 6 9.96 6C9.97 6 9.98 5.98 9.98 5.95C9.98 5.92 9.99 5.88 10.01 5.86C10.04 5.84 10.05 5.79 10.05 5.75C10.05 5.71 10.06 5.67 10.07 5.67C10.08 5.67 10.09 5.65 10.09 5.62C10.09 5.59 10.1 5.56 10.11 5.56C10.12 5.56 10.13 5.53 10.13 5.48C10.13 5.44 10.13 5.4 10.14 5.4C10.15 5.4 10.16 5.36 10.16 5.32C10.16 5.27 10.17 5.23 10.18 5.23C10.19 5.23 10.2 5.19 10.2 5.13C10.2 5.07 10.21 5.02 10.22 5.02C10.23 5.02 10.24 4.96 10.24 4.88C10.24 4.81 10.25 4.74 10.26 4.74C10.27 4.74 10.28 4.52 10.28 4.12C10.28 3.72 10.27 3.49 10.26 3.49C10.25 3.49 10.24 3.43 10.24 3.35C10.24 3.28 10.23 3.22 10.22 3.22C10.21 3.22 10.2 3.17 10.2 3.11C10.2 3.05 10.19 3 10.18 3C10.17 3 10.16 2.96 10.16 2.92C10.16 2.87 10.15 2.83 10.14 2.83C10.13 2.83 10.13 2.8 10.13 2.75C10.13 2.71 10.12 2.67 10.11 2.67C10.1 2.67 10.09 2.64 10.09 2.61C10.09 2.58 10.08 2.56 10.07 2.56C10.06 2.56 10.05 2.53 10.05 2.48C10.05 2.44 10.04 2.39 10.01 2.37C9.99 2.35 9.98 2.31 9.98 2.28C9.98 2.25 9.97 2.23 9.96 2.23C9.95 2.23 9.94 2.21 9.94 2.18C9.94 2.16 9.92 2.12 9.9 2.1C9.88 2.07 9.86 2.04 9.86 2.02C9.86 2 9.84 1.95 9.81 1.91C9.78 1.86 9.75 1.82 9.75 1.8C9.75 1.76 9.44 1.31 9.41 1.31C9.4 1.31 9.37 1.27 9.34 1.22C9.31 1.18 9.28 1.14 9.26 1.14C9.25 1.14 9.22 1.12 9.21 1.09C9.2 1.06 9.17 1.03 9.15 1.03C9.14 1.03 9.11 1.01 9.1 0.98C9.08 0.95 9.06 0.92 9.04 0.92C9.02 0.92 9 0.91 9 0.9C9 0.88 8.99 0.87 8.97 0.87C8.95 0.87 8.93 0.84 8.91 0.81C8.9 0.78 8.87 0.76 8.85 0.76C8.83 0.76 8.82 0.75 8.82 0.73C8.82 0.72 8.8 0.7 8.78 0.7C8.76 0.7 8.74 0.69 8.74 0.68C8.74 0.66 8.73 0.65 8.71 0.65C8.68 0.65 8.67 0.64 8.67 0.62C8.67 0.61 8.65 0.6 8.63 0.6C8.61 0.6 8.59 0.58 8.59 0.57C8.59 0.55 8.57 0.54 8.54 0.54C8.51 0.54 8.48 0.53 8.48 0.51C8.48 0.5 8.46 0.49 8.44 0.49C8.42 0.49 8.41 0.47 8.41 0.46C8.41 0.44 8.38 0.43 8.35 0.43C8.32 0.43 8.29 0.42 8.29 0.4C8.29 0.39 8.27 0.38 8.24 0.38C8.21 0.38 8.18 0.36 8.18 0.35C8.18 0.33 8.15 0.32 8.11 0.32C8.07 0.32 8.03 0.31 8.03 0.3C8.03 0.28 8.01 0.27 7.98 0.27C7.95 0.27 7.92 0.26 7.92 0.24C7.92 0.23 7.88 0.21 7.83 0.21C7.78 0.21 7.73 0.2 7.73 0.19C7.73 0.17 7.69 0.16 7.64 0.16C7.59 0.16 7.55 0.15 7.55 0.13C7.55 0.12 7.49 0.1 7.42 0.1C7.34 0.1 7.28 0.09 7.28 0.08C7.28 0.06 7.2 0.05 7.06 0.05C6.92 0.05 6.84 0.04 6.84 0.02C6.84 0.01 6.73 0 6.56 0C6.38 0 6.28 0.01 6.28 0.02ZM24.29 0.24C24.29 0.26 24.24 0.27 24.16 0.27C24.09 0.27 24.03 0.28 24.03 0.3C24.03 0.31 23.99 0.32 23.94 0.32C23.89 0.32 23.85 0.33 23.85 0.35C23.85 0.36 23.8 0.38 23.75 0.38C23.7 0.38 23.66 0.39 23.66 0.4C23.66 0.42 23.62 0.43 23.58 0.43C23.54 0.43 23.51 0.44 23.51 0.46C23.51 0.47 23.48 0.49 23.43 0.49C23.39 0.49 23.36 0.5 23.36 0.51C23.36 0.53 23.33 0.54 23.28 0.54C23.24 0.54 23.21 0.55 23.21 0.57C23.21 0.58 23.18 0.6 23.14 0.6C23.09 0.6 23.06 0.61 23.06 0.62C23.06 0.64 23.04 0.65 23 0.65C22.97 0.65 22.95 0.66 22.95 0.68C22.95 0.69 22.91 0.7 22.87 0.7C22.83 0.7 22.8 0.72 22.8 0.73C22.8 0.75 22.77 0.76 22.74 0.76C22.71 0.76 22.69 0.77 22.69 0.79C22.69 0.8 22.66 0.81 22.63 0.81C22.6 0.81 22.57 0.83 22.57 0.84C22.57 0.86 22.55 0.87 22.52 0.87C22.49 0.87 22.46 0.88 22.46 0.9C22.46 0.91 22.44 0.92 22.41 0.92C22.38 0.92 22.35 0.94 22.35 0.95C22.35 0.97 22.32 0.98 22.29 0.98C22.26 0.98 22.24 0.99 22.24 1C22.24 1.02 22.21 1.03 22.18 1.03C22.15 1.03 22.13 1.04 22.13 1.06C22.13 1.07 22.1 1.09 22.07 1.09C22.04 1.09 22.01 1.1 22.01 1.11C22.01 1.13 21.99 1.14 21.96 1.14C21.93 1.14 21.9 1.15 21.9 1.17C21.9 1.18 21.88 1.2 21.86 1.2C21.84 1.2 21.83 1.21 21.83 1.22C21.83 1.24 21.8 1.25 21.77 1.25C21.74 1.25 21.71 1.26 21.71 1.28C21.71 1.29 21.69 1.31 21.66 1.31C21.63 1.31 21.6 1.32 21.6 1.33C21.6 1.35 21.59 1.36 21.57 1.36C21.54 1.36 21.53 1.37 21.53 1.39C21.53 1.4 21.5 1.41 21.47 1.41C21.44 1.41 21.42 1.43 21.42 1.44C21.42 1.46 21.4 1.47 21.38 1.47C21.36 1.47 21.34 1.48 21.34 1.5C21.34 1.51 21.32 1.52 21.3 1.52C21.28 1.52 21.27 1.54 21.27 1.55C21.27 1.57 21.24 1.58 21.21 1.58C21.18 1.58 21.15 1.59 21.15 1.61C21.15 1.62 21.14 1.63 21.12 1.63C21.1 1.63 21.08 1.66 21.06 1.69C21.05 1.72 21.02 1.74 21 1.74C20.98 1.74 20.97 1.75 20.97 1.77C20.97 1.78 20.95 1.8 20.93 1.8C20.92 1.8 20.89 1.82 20.87 1.85C20.86 1.88 20.84 1.91 20.82 1.91C20.79 1.91 20.56 2.25 20.56 2.3C20.56 2.32 20.55 2.34 20.54 2.34C20.53 2.34 20.52 2.37 20.52 2.4C20.52 2.43 20.51 2.45 20.5 2.45C20.49 2.45 20.48 2.52 20.48 2.61C20.48 2.72 20.47 2.78 20.46 2.79C20.44 2.8 20.44 2.81 20.46 2.82C20.47 2.83 20.48 2.89 20.48 2.97C20.48 3.05 20.49 3.11 20.5 3.11C20.51 3.11 20.52 3.13 20.52 3.15C20.52 3.2 20.64 3.38 20.68 3.38C20.69 3.38 20.71 3.39 20.71 3.41C20.71 3.42 20.72 3.43 20.74 3.43C20.76 3.43 20.78 3.45 20.78 3.46C20.78 3.48 20.8 3.49 20.82 3.49C20.84 3.49 20.85 3.5 20.85 3.52C20.85 3.53 20.89 3.54 20.93 3.54C20.97 3.54 21 3.56 21 3.57C21 3.59 21.05 3.6 21.12 3.6C21.18 3.6 21.23 3.61 21.23 3.62C21.23 3.64 21.25 3.65 21.27 3.65C21.29 3.65 21.3 3.66 21.3 3.68C21.3 3.69 21.32 3.71 21.34 3.71C21.36 3.71 21.38 3.72 21.38 3.73C21.38 3.75 21.4 3.76 21.42 3.76C21.44 3.76 21.45 3.78 21.45 3.81C21.45 3.84 21.47 3.88 21.49 3.9C21.51 3.92 21.53 3.97 21.53 4.01C21.53 4.05 21.54 4.09 21.55 4.09C21.56 4.09 21.57 4.15 21.57 4.23C21.57 4.3 21.57 4.36 21.58 4.36C21.6 4.36 21.6 4.52 21.6 4.77C21.6 5.03 21.61 5.18 21.62 5.18C21.63 5.18 21.64 5.87 21.64 7.2C21.64 8.53 21.63 9.22 21.62 9.22C21.61 9.22 21.6 9.54 21.6 10.12C21.6 10.7 21.6 11.02 21.58 11.02C21.57 11.02 21.57 11.18 21.57 11.43C21.57 11.68 21.56 11.84 21.55 11.84C21.54 11.84 21.53 11.95 21.53 12.11C21.53 12.28 21.52 12.39 21.51 12.39C21.5 12.39 21.49 12.48 21.49 12.6C21.49 12.73 21.48 12.82 21.47 12.82C21.46 12.82 21.45 12.88 21.45 12.96C21.45 13.03 21.44 13.09 21.43 13.09C21.42 13.09 21.42 13.12 21.42 13.15C21.42 13.18 21.41 13.2 21.4 13.2C21.39 13.2 21.38 13.23 21.38 13.26C21.38 13.29 21.37 13.31 21.36 13.31C21.35 13.31 21.34 13.33 21.34 13.36C21.34 13.41 21.3 13.48 21.27 13.48C21.25 13.48 21.22 13.51 21.19 13.56C21.16 13.6 21.13 13.64 21.11 13.64C21.1 13.64 21.08 13.67 21.06 13.7C21.05 13.73 21.02 13.75 21.01 13.75C20.99 13.75 20.96 13.79 20.93 13.83C20.9 13.88 20.86 13.91 20.85 13.91C20.83 13.91 20.82 13.93 20.82 13.96C20.82 13.98 20.79 14.04 20.76 14.08C20.73 14.12 20.71 14.17 20.71 14.2C20.71 14.22 20.7 14.24 20.69 14.24C20.68 14.24 20.67 14.29 20.67 14.35C20.67 14.41 20.66 14.46 20.65 14.46C20.64 14.46 20.63 14.5 20.63 14.54C20.63 14.59 20.64 14.62 20.65 14.62C20.66 14.62 20.67 14.68 20.67 14.76C20.67 14.83 20.68 14.9 20.69 14.9C20.7 14.9 20.71 14.93 20.71 14.98C20.71 15.02 20.71 15.06 20.72 15.06C20.73 15.06 20.74 15.08 20.74 15.11C20.74 15.14 20.76 15.17 20.78 15.2C20.8 15.22 20.82 15.25 20.82 15.27C20.82 15.32 21.02 15.61 21.05 15.61C21.07 15.61 21.08 15.62 21.08 15.63C21.08 15.65 21.1 15.66 21.12 15.66C21.14 15.66 21.15 15.67 21.15 15.69C21.15 15.7 21.17 15.71 21.19 15.71C21.21 15.71 21.23 15.73 21.23 15.74C21.23 15.76 21.25 15.77 21.28 15.77C21.32 15.77 21.34 15.78 21.34 15.8C21.34 15.81 21.39 15.82 21.45 15.82C21.52 15.82 21.57 15.84 21.57 15.85C21.57 15.87 21.64 15.88 21.75 15.88C21.86 15.88 21.94 15.89 21.94 15.91C21.94 15.92 22.11 15.93 22.42 15.93C22.74 15.93 22.91 15.94 22.91 15.96C22.91 15.98 23.03 15.99 23.23 15.99C23.43 15.99 23.55 15.98 23.55 15.96C23.55 15.94 23.68 15.93 23.9 15.93C24.13 15.93 24.26 15.92 24.26 15.91C24.26 15.89 24.33 15.88 24.42 15.88C24.52 15.88 24.59 15.87 24.59 15.85C24.59 15.84 24.64 15.82 24.69 15.82C24.74 15.82 24.78 15.81 24.78 15.8C24.78 15.78 24.82 15.77 24.87 15.77C24.92 15.77 24.97 15.76 24.97 15.74C24.97 15.73 24.99 15.71 25.02 15.71C25.05 15.71 25.08 15.7 25.08 15.69C25.08 15.67 25.1 15.66 25.14 15.66C25.17 15.66 25.19 15.65 25.19 15.63C25.19 15.62 25.21 15.61 25.23 15.61C25.25 15.61 25.27 15.59 25.27 15.58C25.27 15.56 25.28 15.55 25.3 15.55C25.32 15.55 25.34 15.54 25.34 15.52C25.34 15.51 25.36 15.5 25.38 15.5C25.4 15.5 25.42 15.48 25.42 15.47C25.42 15.45 25.43 15.44 25.44 15.44C25.48 15.44 25.68 15.16 25.68 15.1C25.68 15.08 25.69 15.06 25.7 15.06C25.71 15.06 25.71 15.04 25.71 15.01C25.71 14.98 25.72 14.95 25.73 14.95C25.74 14.95 25.75 14.93 25.75 14.9C25.75 14.87 25.76 14.84 25.77 14.84C25.78 14.84 25.79 14.7 25.79 14.46C25.79 14.22 25.78 14.08 25.77 14.08C25.76 14.08 25.75 14.05 25.75 14.02C25.75 13.99 25.74 13.97 25.73 13.97C25.72 13.97 25.71 13.95 25.71 13.93C25.71 13.9 25.61 13.74 25.49 13.56C25.37 13.38 25.27 13.21 25.27 13.19C25.27 13.17 25.26 13.15 25.25 13.15C25.24 13.15 25.23 13.11 25.23 13.07C25.23 13.02 25.22 12.99 25.21 12.99C25.2 12.99 25.19 12.91 25.19 12.82C25.19 12.73 25.18 12.66 25.17 12.66C25.16 12.66 25.15 12.55 25.15 12.39C25.15 12.22 25.16 12.11 25.17 12.11C25.18 12.11 25.19 12.01 25.19 11.87C25.19 11.72 25.2 11.62 25.21 11.62C25.22 11.62 25.23 11.6 25.23 11.57C25.23 11.52 25.24 11.51 25.29 11.51C25.35 11.51 25.38 11.54 25.5 11.72C25.58 11.83 25.64 11.93 25.64 11.95C25.64 11.97 25.67 12.03 25.71 12.09C25.76 12.14 25.79 12.2 25.79 12.22C25.79 12.24 25.82 12.3 25.86 12.36C25.91 12.42 25.94 12.48 25.94 12.49C25.94 12.51 25.97 12.57 26.01 12.63C26.05 12.69 26.09 12.75 26.09 12.77C26.09 12.79 26.11 12.83 26.14 12.88C26.18 12.92 26.2 12.97 26.2 12.99C26.2 13 26.23 13.06 26.28 13.12C26.32 13.18 26.35 13.24 26.35 13.26C26.35 13.28 26.38 13.33 26.41 13.37C26.44 13.41 26.46 13.46 26.46 13.48C26.46 13.49 26.5 13.56 26.54 13.61C26.58 13.67 26.61 13.73 26.61 13.75C26.61 13.77 26.64 13.82 26.67 13.86C26.7 13.9 26.72 13.95 26.72 13.97C26.72 13.99 26.76 14.05 26.8 14.1C26.84 14.16 26.87 14.22 26.87 14.24C26.87 14.26 26.9 14.31 26.93 14.35C26.96 14.39 26.99 14.44 26.99 14.46C26.99 14.48 27.02 14.54 27.06 14.6C27.1 14.65 27.14 14.72 27.14 14.73C27.14 14.75 27.16 14.8 27.19 14.84C27.22 14.88 27.25 14.93 27.25 14.95C27.25 14.97 27.28 15.03 27.32 15.09C27.36 15.14 27.4 15.21 27.4 15.22C27.4 15.26 27.52 15.44 27.55 15.44C27.56 15.44 27.59 15.47 27.6 15.5C27.62 15.53 27.64 15.55 27.66 15.55C27.68 15.55 27.7 15.56 27.7 15.58C27.7 15.59 27.71 15.61 27.73 15.61C27.75 15.61 27.77 15.62 27.77 15.63C27.77 15.65 27.8 15.66 27.83 15.66C27.86 15.66 27.88 15.67 27.88 15.69C27.88 15.71 28.42 15.71 29.47 15.71C30.52 15.71 31.06 15.71 31.06 15.69C31.06 15.67 31.1 15.66 31.15 15.66C31.21 15.66 31.25 15.65 31.25 15.63C31.25 15.62 31.27 15.61 31.3 15.61C31.33 15.61 31.36 15.59 31.36 15.58C31.36 15.56 31.38 15.55 31.42 15.55C31.45 15.55 31.47 15.54 31.47 15.52C31.47 15.51 31.49 15.5 31.51 15.5C31.53 15.5 31.55 15.48 31.55 15.47C31.55 15.45 31.56 15.44 31.58 15.44C31.6 15.44 31.63 15.42 31.64 15.39C31.65 15.36 31.68 15.33 31.69 15.33C31.72 15.33 31.85 15.15 31.85 15.11C31.85 15.09 31.86 15.05 31.88 15.03C31.9 15.01 31.92 14.97 31.92 14.94C31.92 14.92 31.93 14.9 31.94 14.9C31.95 14.9 31.96 14.86 31.96 14.81C31.96 14.77 31.97 14.73 31.98 14.73C31.99 14.73 32 14.62 32 14.46C32 14.3 31.99 14.19 31.98 14.19C31.97 14.19 31.96 14.15 31.96 14.11C31.96 14.07 31.94 14.02 31.92 14C31.9 13.97 31.88 13.94 31.88 13.92C31.88 13.87 31.69 13.59 31.65 13.59C31.64 13.59 31.62 13.56 31.6 13.53C31.59 13.5 31.56 13.48 31.54 13.48C31.52 13.48 31.51 13.46 31.51 13.45C31.51 13.43 31.49 13.42 31.48 13.42C31.46 13.42 31.43 13.4 31.42 13.37C31.4 13.34 31.37 13.31 31.36 13.31C31.34 13.31 31.32 13.3 31.32 13.29C31.32 13.27 31.31 13.26 31.29 13.26C31.27 13.26 31.24 13.23 31.23 13.2C31.21 13.17 31.19 13.15 31.17 13.15C31.16 13.15 31.13 13.12 31.12 13.09C31.1 13.06 31.08 13.04 31.06 13.04C31.04 13.04 31.02 13.02 31 12.99C30.99 12.96 30.97 12.93 30.95 12.93C30.92 12.93 30.54 12.37 30.54 12.33C30.54 12.31 30.49 12.23 30.42 12.14C30.36 12.05 30.31 11.97 30.31 11.95C30.31 11.93 30.27 11.86 30.22 11.78C30.17 11.71 30.13 11.64 30.13 11.62C30.13 11.6 30.09 11.54 30.05 11.48C30.01 11.43 29.98 11.37 29.98 11.35C29.98 11.33 29.94 11.27 29.9 11.21C29.86 11.15 29.83 11.09 29.83 11.07C29.83 11.06 29.8 11.01 29.77 10.97C29.74 10.92 29.71 10.88 29.71 10.86C29.71 10.84 29.68 10.78 29.64 10.72C29.6 10.66 29.57 10.6 29.57 10.58C29.57 10.57 29.54 10.52 29.51 10.48C29.48 10.43 29.45 10.38 29.45 10.37C29.45 10.35 29.43 10.3 29.4 10.26C29.37 10.21 29.34 10.16 29.34 10.14C29.34 10.12 29.32 10.09 29.3 10.07C29.28 10.04 29.27 10.01 29.27 9.99C29.27 9.97 29.24 9.92 29.21 9.87C29.18 9.83 29.15 9.78 29.15 9.77C29.15 9.75 29.13 9.7 29.1 9.66C29.07 9.61 29.04 9.56 29.04 9.54C29.04 9.52 29.02 9.49 29 9.47C28.98 9.44 28.97 9.41 28.97 9.39C28.97 9.37 28.94 9.32 28.91 9.27C28.88 9.23 28.85 9.18 28.85 9.16C28.85 9.14 28.84 9.1 28.82 9.08C28.8 9.06 28.78 9.02 28.78 9C28.78 8.98 28.76 8.94 28.74 8.92C28.72 8.9 28.71 8.86 28.71 8.84C28.71 8.81 28.69 8.78 28.67 8.76C28.65 8.73 28.63 8.7 28.63 8.67C28.63 8.65 28.61 8.61 28.59 8.59C28.57 8.57 28.56 8.53 28.56 8.5C28.56 8.48 28.55 8.46 28.54 8.46C28.53 8.46 28.52 8.43 28.52 8.41C28.52 8.38 28.5 8.34 28.48 8.32C28.45 8.29 28.44 8.25 28.44 8.16C28.44 8.05 28.45 8.03 28.6 7.81C28.69 7.69 28.77 7.58 28.79 7.58C28.8 7.58 28.82 7.56 28.84 7.53C28.85 7.5 28.88 7.47 28.89 7.47C28.91 7.47 28.93 7.45 28.95 7.42C28.96 7.39 28.99 7.36 29 7.36C29.02 7.36 29.05 7.34 29.06 7.31C29.08 7.28 29.1 7.25 29.12 7.25C29.14 7.25 29.15 7.24 29.15 7.23C29.15 7.21 29.17 7.2 29.19 7.2C29.21 7.2 29.23 7.18 29.25 7.15C29.26 7.12 29.29 7.09 29.31 7.09C29.33 7.09 29.34 7.08 29.34 7.06C29.34 7.05 29.36 7.04 29.38 7.04C29.4 7.04 29.42 7.02 29.42 7.01C29.42 6.99 29.43 6.98 29.45 6.98C29.47 6.98 29.49 6.97 29.49 6.95C29.49 6.94 29.52 6.93 29.55 6.93C29.58 6.93 29.6 6.91 29.6 6.9C29.6 6.88 29.62 6.87 29.64 6.87C29.66 6.87 29.68 6.86 29.68 6.85C29.68 6.83 29.71 6.82 29.75 6.82C29.79 6.82 29.83 6.81 29.83 6.79C29.83 6.78 29.87 6.76 29.92 6.76C29.97 6.76 30.01 6.75 30.01 6.74C30.01 6.72 30.06 6.71 30.11 6.71C30.16 6.71 30.2 6.7 30.2 6.68C30.2 6.67 30.23 6.65 30.26 6.65C30.29 6.65 30.31 6.64 30.31 6.63C30.31 6.61 30.33 6.6 30.35 6.6C30.36 6.6 30.39 6.57 30.41 6.54C30.42 6.52 30.44 6.49 30.46 6.49C30.49 6.49 30.54 6.42 30.54 6.37C30.54 6.35 30.55 6.33 30.56 6.33C30.57 6.33 30.57 6.3 30.57 6.27C30.57 6.24 30.58 6.22 30.59 6.22C30.6 6.22 30.61 6.17 30.61 6.11C30.61 6.05 30.62 6 30.63 6C30.64 6 30.65 5.96 30.65 5.92C30.65 5.87 30.64 5.84 30.63 5.84C30.62 5.84 30.61 5.77 30.61 5.7C30.61 5.62 30.6 5.56 30.59 5.56C30.58 5.56 30.57 5.53 30.57 5.49C30.57 5.44 30.56 5.39 30.54 5.37C30.52 5.35 30.5 5.32 30.5 5.3C30.5 5.25 30.26 4.91 30.23 4.91C30.21 4.91 30.2 4.9 30.2 4.88C30.2 4.87 30.18 4.85 30.16 4.85C30.14 4.85 30.13 4.84 30.13 4.83C30.13 4.81 30.1 4.8 30.07 4.8C30.04 4.8 30.01 4.79 30.01 4.77C30.01 4.76 29.99 4.74 29.96 4.74C29.93 4.74 29.9 4.73 29.9 4.72C29.9 4.7 29.87 4.69 29.83 4.69C29.79 4.69 29.75 4.68 29.75 4.66C29.75 4.65 29.71 4.63 29.66 4.63C29.61 4.63 29.57 4.62 29.57 4.61C29.57 4.59 29.52 4.58 29.45 4.58C29.39 4.58 29.34 4.57 29.34 4.55C29.34 4.54 29.27 4.53 29.15 4.53C29.04 4.53 28.97 4.51 28.97 4.5C28.97 4.48 28.76 4.47 28.37 4.47C27.98 4.47 27.77 4.48 27.77 4.5C27.77 4.51 27.7 4.53 27.58 4.53C27.47 4.53 27.4 4.54 27.4 4.55C27.4 4.57 27.35 4.58 27.28 4.58C27.22 4.58 27.17 4.59 27.17 4.61C27.17 4.62 27.14 4.63 27.1 4.63C27.06 4.63 27.02 4.65 27.02 4.66C27.02 4.68 26.99 4.69 26.95 4.69C26.91 4.69 26.87 4.7 26.87 4.72C26.87 4.73 26.86 4.74 26.84 4.74C26.82 4.74 26.8 4.76 26.8 4.77C26.8 4.79 26.78 4.8 26.75 4.8C26.72 4.8 26.68 4.82 26.67 4.85C26.65 4.88 26.63 4.91 26.61 4.91C26.59 4.91 26.57 4.92 26.57 4.93C26.57 4.95 26.56 4.96 26.55 4.96C26.51 4.96 26.35 5.19 26.35 5.25C26.35 5.27 26.34 5.29 26.33 5.29C26.32 5.29 26.31 5.31 26.31 5.34C26.31 5.37 26.3 5.4 26.29 5.4C26.28 5.4 26.28 5.51 26.28 5.67C26.28 5.84 26.28 5.94 26.29 5.94C26.3 5.94 26.31 5.97 26.31 6C26.31 6.03 26.32 6.05 26.33 6.05C26.34 6.05 26.35 6.08 26.35 6.1C26.35 6.13 26.37 6.17 26.39 6.19C26.41 6.21 26.42 6.25 26.42 6.27C26.42 6.3 26.44 6.33 26.46 6.35C26.48 6.38 26.5 6.42 26.5 6.44C26.5 6.47 26.51 6.49 26.52 6.49C26.53 6.49 26.54 6.51 26.54 6.54C26.54 6.57 26.55 6.6 26.56 6.61C26.58 6.62 26.58 6.63 26.56 6.64C26.55 6.65 26.54 6.68 26.54 6.7C26.54 6.74 26.38 6.98 26.35 6.98C26.34 6.98 26.3 7.02 26.28 7.06C26.25 7.11 26.21 7.15 26.19 7.15C26.18 7.15 26.16 7.16 26.16 7.17C26.16 7.19 26.15 7.2 26.13 7.2C26.11 7.2 26.08 7.22 26.07 7.25C26.05 7.28 26.03 7.31 26.01 7.31C25.99 7.31 25.98 7.32 25.98 7.34C25.98 7.35 25.96 7.36 25.94 7.36C25.92 7.36 25.9 7.39 25.88 7.42C25.87 7.45 25.84 7.47 25.82 7.47C25.8 7.47 25.79 7.48 25.79 7.5C25.79 7.52 25.76 7.53 25.73 7.53C25.7 7.53 25.68 7.54 25.68 7.55C25.68 7.57 25.66 7.58 25.64 7.58C25.62 7.58 25.6 7.59 25.6 7.61C25.6 7.62 25.58 7.64 25.55 7.64C25.52 7.64 25.49 7.65 25.49 7.66C25.49 7.68 25.45 7.69 25.4 7.69C25.35 7.69 25.3 7.68 25.3 7.66C25.3 7.65 25.29 7.64 25.27 7.64C25.24 7.64 25.12 7.46 25.12 7.41C25.12 7.38 25.11 7.36 25.1 7.36C25.09 7.36 25.08 7.27 25.08 7.15C25.08 7.02 25.07 6.93 25.06 6.93C25.05 6.93 25.04 6.47 25.04 5.62C25.04 4.76 25.05 4.31 25.06 4.31C25.07 4.31 25.08 3.98 25.08 3.38C25.08 2.78 25.09 2.45 25.1 2.45C25.11 2.45 25.12 2.11 25.12 1.47C25.12 0.83 25.11 0.49 25.1 0.49C25.09 0.49 25.08 0.47 25.08 0.44C25.08 0.39 25.03 0.32 25 0.32C24.98 0.32 24.97 0.31 24.97 0.3C24.97 0.28 24.95 0.27 24.93 0.27C24.91 0.27 24.89 0.26 24.89 0.24C24.89 0.22 24.78 0.21 24.59 0.21C24.41 0.21 24.29 0.22 24.29 0.24ZM5.45 2.53C5.45 2.55 5.5 2.56 5.55 2.56C5.6 2.56 5.64 2.57 5.64 2.59C5.64 2.6 5.66 2.61 5.68 2.61C5.7 2.61 5.71 2.63 5.71 2.64C5.71 2.66 5.73 2.67 5.75 2.67C5.77 2.67 5.79 2.68 5.79 2.7C5.79 2.71 5.8 2.72 5.82 2.72C5.85 2.72 6.13 3.12 6.13 3.17C6.13 3.2 6.13 3.22 6.14 3.22C6.15 3.22 6.16 3.24 6.16 3.27C6.16 3.3 6.17 3.32 6.18 3.32C6.19 3.32 6.2 3.36 6.2 3.41C6.2 3.45 6.21 3.49 6.22 3.49C6.23 3.49 6.24 3.53 6.24 3.57C6.24 3.62 6.25 3.65 6.26 3.65C6.27 3.65 6.28 3.7 6.28 3.76C6.28 3.82 6.28 3.87 6.29 3.87C6.31 3.87 6.31 3.97 6.31 4.12C6.31 4.26 6.32 4.36 6.33 4.36C6.34 4.36 6.35 4.49 6.35 4.69C6.35 4.89 6.34 5.02 6.33 5.02C6.32 5.02 6.31 5.11 6.31 5.23C6.31 5.36 6.3 5.45 6.29 5.45C6.28 5.45 6.28 5.5 6.28 5.56C6.28 5.62 6.27 5.67 6.26 5.67C6.25 5.67 6.24 5.71 6.24 5.75C6.24 5.8 6.23 5.84 6.22 5.84C6.21 5.84 6.2 5.86 6.2 5.89C6.2 5.92 6.19 5.94 6.18 5.94C6.17 5.94 6.16 5.97 6.16 6C6.16 6.03 6.15 6.05 6.14 6.05C6.13 6.05 6.13 6.07 6.13 6.1C6.13 6.15 5.85 6.54 5.82 6.54C5.8 6.54 5.79 6.56 5.79 6.57C5.79 6.59 5.77 6.6 5.75 6.6C5.73 6.6 5.71 6.61 5.71 6.63C5.71 6.64 5.7 6.65 5.68 6.65C5.66 6.65 5.64 6.67 5.64 6.68C5.64 6.7 5.61 6.71 5.57 6.71C5.52 6.71 5.49 6.72 5.49 6.74C5.49 6.75 5.45 6.76 5.4 6.76C5.35 6.76 5.3 6.78 5.3 6.79C5.3 6.81 5.22 6.82 5.1 6.82C4.97 6.82 4.89 6.81 4.89 6.79C4.89 6.78 4.87 6.76 4.84 6.76C4.78 6.76 4.71 6.65 4.71 6.56C4.71 6.52 4.7 6.49 4.69 6.49C4.67 6.49 4.67 6.26 4.67 5.86C4.67 5.46 4.67 5.23 4.69 5.23C4.7 5.23 4.71 5.03 4.71 4.66C4.71 4.3 4.71 4.09 4.72 4.09C4.74 4.09 4.74 3.92 4.74 3.62C4.74 3.33 4.75 3.16 4.76 3.16C4.77 3.16 4.78 3.11 4.78 3.05C4.78 2.99 4.79 2.94 4.8 2.94C4.81 2.94 4.82 2.92 4.82 2.89C4.82 2.86 4.83 2.83 4.84 2.83C4.85 2.83 4.85 2.81 4.85 2.79C4.85 2.74 4.94 2.61 4.98 2.61C4.99 2.61 5 2.6 5 2.59C5 2.57 5.04 2.56 5.08 2.56C5.12 2.56 5.15 2.55 5.15 2.53C5.15 2.52 5.22 2.51 5.3 2.51C5.39 2.51 5.45 2.52 5.45 2.53ZM16.29 4.39C16.29 4.41 16.19 4.42 16.03 4.42C15.87 4.42 15.77 4.43 15.77 4.44C15.77 4.46 15.72 4.47 15.66 4.47C15.6 4.47 15.55 4.48 15.55 4.5C15.55 4.51 15.5 4.53 15.45 4.53C15.4 4.53 15.36 4.54 15.36 4.55C15.36 4.57 15.33 4.58 15.28 4.58C15.24 4.58 15.21 4.59 15.21 4.61C15.21 4.62 15.18 4.63 15.14 4.63C15.09 4.63 15.06 4.65 15.06 4.66C15.06 4.68 15.04 4.69 15 4.69C14.97 4.69 14.95 4.7 14.95 4.72C14.95 4.73 14.93 4.74 14.91 4.74C14.89 4.74 14.87 4.76 14.87 4.77C14.87 4.79 14.85 4.8 14.82 4.8C14.79 4.8 14.76 4.81 14.76 4.83C14.76 4.84 14.74 4.85 14.71 4.85C14.67 4.85 14.65 4.87 14.65 4.88C14.65 4.9 14.63 4.91 14.61 4.91C14.59 4.91 14.57 4.92 14.57 4.93C14.57 4.95 14.56 4.96 14.54 4.96C14.52 4.96 14.5 4.97 14.5 4.99C14.5 5 14.48 5.02 14.46 5.02C14.44 5.02 14.42 5.03 14.42 5.04C14.42 5.06 14.41 5.07 14.39 5.07C14.37 5.07 14.35 5.08 14.35 5.1C14.35 5.11 14.33 5.13 14.31 5.13C14.29 5.13 14.28 5.14 14.28 5.15C14.28 5.17 14.26 5.18 14.24 5.18C14.22 5.18 14.2 5.19 14.2 5.21C14.2 5.22 14.19 5.23 14.17 5.23C14.15 5.23 14.12 5.26 14.11 5.29C14.09 5.32 14.07 5.34 14.05 5.34C14.04 5.34 14.01 5.37 14 5.4C13.98 5.43 13.96 5.45 13.94 5.45C13.92 5.45 13.9 5.48 13.88 5.51C13.87 5.54 13.84 5.56 13.83 5.56C13.82 5.56 13.78 5.6 13.75 5.64C13.72 5.69 13.69 5.73 13.68 5.73C13.67 5.73 13.61 5.8 13.55 5.89C13.49 5.98 13.43 6.05 13.42 6.05C13.39 6.05 13.23 6.29 13.23 6.33C13.23 6.34 13.18 6.43 13.12 6.52C13.05 6.61 13 6.69 13 6.71C13 6.73 12.98 6.78 12.95 6.82C12.92 6.86 12.89 6.91 12.89 6.93C12.89 6.94 12.87 6.99 12.84 7.04C12.81 7.08 12.78 7.13 12.78 7.15C12.78 7.17 12.76 7.21 12.74 7.23C12.72 7.25 12.71 7.29 12.71 7.32C12.71 7.34 12.7 7.36 12.69 7.36C12.68 7.36 12.67 7.39 12.67 7.42C12.67 7.45 12.66 7.47 12.65 7.47C12.64 7.47 12.63 7.49 12.63 7.52C12.63 7.55 12.61 7.59 12.59 7.61C12.57 7.63 12.56 7.67 12.56 7.7C12.56 7.72 12.55 7.75 12.54 7.75C12.53 7.75 12.52 7.77 12.52 7.8C12.52 7.83 12.51 7.85 12.5 7.85C12.49 7.85 12.48 7.89 12.48 7.94C12.48 7.98 12.47 8.02 12.46 8.02C12.45 8.02 12.44 8.04 12.44 8.07C12.44 8.1 12.44 8.13 12.42 8.13C12.41 8.13 12.41 8.15 12.41 8.18C12.41 8.21 12.4 8.24 12.39 8.24C12.38 8.24 12.37 8.27 12.37 8.32C12.37 8.36 12.36 8.4 12.35 8.4C12.34 8.4 12.33 8.44 12.33 8.48C12.33 8.53 12.32 8.56 12.31 8.56C12.3 8.56 12.29 8.61 12.29 8.67C12.29 8.73 12.29 8.78 12.28 8.78C12.27 8.78 12.26 8.83 12.26 8.89C12.26 8.95 12.25 9 12.24 9C12.23 9 12.22 9.06 12.22 9.14C12.22 9.21 12.21 9.27 12.2 9.27C12.19 9.27 12.18 9.36 12.18 9.47C12.18 9.57 12.17 9.66 12.16 9.66C12.15 9.66 12.14 9.88 12.14 10.28C12.14 10.68 12.15 10.91 12.16 10.91C12.17 10.91 12.18 10.99 12.18 11.1C12.18 11.21 12.19 11.29 12.2 11.29C12.21 11.29 12.22 11.36 12.22 11.43C12.22 11.51 12.23 11.57 12.24 11.57C12.25 11.57 12.26 11.62 12.26 11.68C12.26 11.74 12.27 11.78 12.28 11.78C12.29 11.78 12.29 11.83 12.29 11.89C12.29 11.95 12.3 12 12.31 12C12.32 12 12.33 12.04 12.33 12.09C12.33 12.13 12.34 12.17 12.35 12.17C12.36 12.17 12.37 12.2 12.37 12.25C12.37 12.29 12.38 12.33 12.39 12.33C12.4 12.33 12.41 12.36 12.41 12.39C12.41 12.42 12.41 12.44 12.42 12.44C12.44 12.44 12.44 12.48 12.44 12.52C12.44 12.57 12.45 12.6 12.46 12.6C12.47 12.6 12.48 12.63 12.48 12.66C12.48 12.69 12.49 12.71 12.5 12.71C12.51 12.71 12.52 12.74 12.52 12.77C12.52 12.8 12.53 12.82 12.54 12.82C12.55 12.82 12.56 12.85 12.56 12.88C12.56 12.91 12.56 12.93 12.57 12.93C12.58 12.93 12.59 12.96 12.59 12.99C12.59 13.02 12.6 13.04 12.61 13.04C12.62 13.04 12.63 13.06 12.63 13.09C12.63 13.12 12.64 13.15 12.65 13.15C12.66 13.15 12.67 13.17 12.67 13.2C12.67 13.22 12.68 13.26 12.71 13.29C12.73 13.31 12.74 13.34 12.74 13.37C12.74 13.39 12.76 13.43 12.78 13.45C12.8 13.47 12.82 13.51 12.82 13.53C12.82 13.55 12.83 13.59 12.85 13.61C12.88 13.64 12.89 13.67 12.89 13.69C12.89 13.71 12.92 13.76 12.95 13.8C12.98 13.85 13 13.89 13 13.91C13 13.95 13.58 14.79 13.6 14.79C13.62 14.79 13.65 14.82 13.68 14.87C13.71 14.91 13.74 14.95 13.76 14.95C13.77 14.95 13.79 14.98 13.81 15.01C13.82 15.04 13.85 15.06 13.86 15.06C13.88 15.06 13.91 15.08 13.92 15.11C13.94 15.14 13.96 15.17 13.98 15.17C13.99 15.17 14.02 15.19 14.03 15.22C14.05 15.25 14.07 15.28 14.09 15.28C14.11 15.28 14.13 15.29 14.13 15.31C14.13 15.32 14.14 15.33 14.16 15.33C14.18 15.33 14.2 15.35 14.2 15.36C14.2 15.38 14.22 15.39 14.24 15.39C14.26 15.39 14.28 15.4 14.28 15.41C14.28 15.43 14.29 15.44 14.31 15.44C14.33 15.44 14.35 15.45 14.35 15.47C14.35 15.48 14.37 15.5 14.39 15.5C14.41 15.5 14.42 15.51 14.42 15.52C14.42 15.54 14.45 15.55 14.48 15.55C14.51 15.55 14.54 15.56 14.54 15.58C14.54 15.59 14.55 15.61 14.57 15.61C14.6 15.61 14.61 15.62 14.61 15.63C14.61 15.65 14.64 15.66 14.67 15.66C14.7 15.66 14.72 15.67 14.72 15.69C14.72 15.7 14.75 15.71 14.78 15.71C14.81 15.71 14.84 15.73 14.84 15.74C14.84 15.76 14.87 15.77 14.91 15.77C14.95 15.77 14.99 15.78 14.99 15.8C14.99 15.81 15.01 15.82 15.04 15.82C15.07 15.82 15.1 15.84 15.1 15.85C15.1 15.87 15.14 15.88 15.19 15.88C15.24 15.88 15.28 15.89 15.28 15.91C15.28 15.92 15.33 15.93 15.4 15.93C15.46 15.93 15.51 15.95 15.51 15.96C15.51 15.98 15.58 15.99 15.7 15.99C15.81 15.99 15.88 16 15.88 16.02C15.88 16.03 16.01 16.04 16.24 16.04C16.46 16.04 16.59 16.03 16.59 16.02C16.59 16 16.67 15.99 16.78 15.99C16.89 15.99 16.97 15.98 16.97 15.96C16.97 15.95 17.02 15.93 17.08 15.93C17.14 15.93 17.19 15.92 17.19 15.91C17.19 15.89 17.23 15.88 17.28 15.88C17.34 15.88 17.38 15.87 17.38 15.85C17.38 15.84 17.41 15.82 17.45 15.82C17.49 15.82 17.53 15.81 17.53 15.8C17.53 15.78 17.55 15.77 17.58 15.77C17.61 15.77 17.64 15.76 17.64 15.74C17.64 15.73 17.67 15.71 17.71 15.71C17.76 15.71 17.79 15.7 17.79 15.69C17.79 15.67 17.81 15.66 17.85 15.66C17.88 15.66 17.9 15.65 17.9 15.63C17.9 15.62 17.92 15.61 17.94 15.61C17.96 15.61 17.98 15.59 17.98 15.58C17.98 15.56 18 15.55 18.03 15.55C18.06 15.55 18.09 15.54 18.09 15.52C18.09 15.51 18.11 15.5 18.13 15.5C18.15 15.5 18.16 15.48 18.16 15.47C18.16 15.45 18.19 15.44 18.22 15.44C18.25 15.44 18.28 15.43 18.28 15.41C18.28 15.4 18.29 15.39 18.31 15.39C18.33 15.39 18.35 15.38 18.35 15.36C18.35 15.35 18.37 15.33 18.39 15.33C18.41 15.33 18.42 15.32 18.42 15.31C18.42 15.29 18.44 15.28 18.46 15.28C18.48 15.28 18.5 15.25 18.52 15.22C18.53 15.19 18.56 15.17 18.58 15.17C18.6 15.17 18.61 15.16 18.61 15.14C18.61 15.13 18.63 15.11 18.65 15.11C18.67 15.11 18.69 15.1 18.69 15.09C18.69 15.07 18.7 15.06 18.72 15.06C18.74 15.06 18.77 15.04 18.78 15.01C18.79 14.98 18.82 14.95 18.84 14.95C18.85 14.95 18.88 14.93 18.89 14.9C18.91 14.87 18.93 14.84 18.94 14.84C18.96 14.84 18.99 14.8 19.02 14.76C19.05 14.71 19.09 14.68 19.1 14.68C19.11 14.68 19.14 14.64 19.17 14.6C19.2 14.55 19.23 14.51 19.25 14.51C19.27 14.51 19.51 14.17 19.51 14.13C19.51 14.11 19.53 14.06 19.57 14.02C19.6 13.98 19.62 13.93 19.62 13.9C19.62 13.88 19.63 13.86 19.64 13.86C19.65 13.86 19.66 13.83 19.66 13.8C19.66 13.77 19.67 13.75 19.68 13.75C19.69 13.75 19.7 13.73 19.7 13.7C19.7 13.67 19.7 13.64 19.71 13.64C19.72 13.64 19.73 13.62 19.73 13.59C19.73 13.56 19.74 13.53 19.75 13.53C19.76 13.53 19.77 13.48 19.77 13.42C19.77 13.36 19.78 13.31 19.79 13.31C19.8 13.31 19.81 13.22 19.81 13.09C19.81 12.97 19.8 12.88 19.79 12.88C19.78 12.88 19.77 12.84 19.77 12.79C19.77 12.75 19.76 12.71 19.75 12.71C19.74 12.71 19.73 12.68 19.73 12.63C19.73 12.59 19.72 12.55 19.71 12.55C19.7 12.55 19.7 12.53 19.7 12.51C19.7 12.48 19.67 12.43 19.64 12.39C19.61 12.34 19.58 12.29 19.58 12.28C19.58 12.23 19.46 12.06 19.43 12.06C19.41 12.06 19.4 12.05 19.4 12.03C19.4 12.02 19.38 12 19.36 12C19.34 12 19.32 11.99 19.32 11.98C19.32 11.96 19.27 11.95 19.19 11.95C19.12 11.95 19.06 11.96 19.06 11.98C19.06 11.99 19.04 12 19.01 12C18.98 12 18.95 12.03 18.93 12.06C18.91 12.09 18.89 12.11 18.87 12.11C18.85 12.11 18.84 12.12 18.84 12.14C18.84 12.15 18.82 12.17 18.8 12.17C18.78 12.17 18.76 12.19 18.74 12.22C18.73 12.25 18.7 12.28 18.69 12.28C18.67 12.28 18.65 12.3 18.63 12.33C18.62 12.36 18.59 12.39 18.57 12.39C18.55 12.39 18.54 12.4 18.54 12.41C18.54 12.43 18.52 12.44 18.5 12.44C18.48 12.44 18.46 12.45 18.46 12.47C18.46 12.48 18.45 12.49 18.42 12.49C18.4 12.49 18.39 12.51 18.39 12.52C18.39 12.54 18.37 12.55 18.35 12.55C18.33 12.55 18.31 12.56 18.31 12.58C18.31 12.59 18.29 12.6 18.26 12.6C18.23 12.6 18.2 12.62 18.2 12.63C18.2 12.65 18.18 12.66 18.14 12.66C18.11 12.66 18.09 12.67 18.09 12.69C18.09 12.7 18.06 12.71 18.03 12.71C18 12.71 17.98 12.73 17.98 12.74C17.98 12.76 17.95 12.77 17.92 12.77C17.89 12.77 17.86 12.78 17.86 12.79C17.86 12.81 17.83 12.82 17.79 12.82C17.75 12.82 17.71 12.83 17.71 12.85C17.71 12.86 17.67 12.88 17.62 12.88C17.57 12.88 17.53 12.89 17.53 12.9C17.53 12.92 17.42 12.93 17.23 12.93C17.04 12.93 16.93 12.92 16.93 12.9C16.93 12.89 16.89 12.88 16.84 12.88C16.78 12.88 16.74 12.86 16.74 12.85C16.74 12.83 16.72 12.82 16.69 12.82C16.66 12.82 16.63 12.81 16.63 12.79C16.63 12.78 16.61 12.77 16.59 12.77C16.57 12.77 16.56 12.76 16.56 12.74C16.56 12.73 16.53 12.71 16.5 12.71C16.47 12.71 16.44 12.7 16.44 12.69C16.44 12.67 16.43 12.66 16.41 12.66C16.39 12.66 16.36 12.63 16.35 12.6C16.34 12.57 16.31 12.55 16.29 12.55C16.27 12.55 16.26 12.54 16.26 12.52C16.26 12.51 16.24 12.49 16.23 12.49C16.21 12.49 16.17 12.46 16.14 12.41C16.12 12.37 16.08 12.33 16.07 12.33C16.04 12.33 15.73 11.88 15.73 11.83C15.73 11.81 15.72 11.78 15.7 11.76C15.68 11.74 15.66 11.7 15.66 11.68C15.66 11.65 15.64 11.62 15.62 11.59C15.6 11.57 15.58 11.53 15.58 11.51C15.58 11.48 15.58 11.46 15.57 11.46C15.55 11.46 15.55 11.42 15.55 11.38C15.55 11.33 15.54 11.29 15.53 11.29C15.52 11.29 15.51 11.19 15.51 11.03C15.51 10.76 15.53 10.69 15.59 10.69C15.61 10.69 15.62 10.68 15.62 10.67C15.62 10.65 16.29 10.64 17.58 10.64C18.88 10.64 19.55 10.63 19.55 10.61C19.55 10.6 19.57 10.58 19.6 10.58C19.63 10.58 19.66 10.56 19.68 10.53C19.69 10.5 19.72 10.48 19.73 10.48C19.76 10.48 19.88 10.3 19.88 10.25C19.88 10.23 19.9 10.2 19.92 10.17C19.94 10.15 19.96 10.11 19.96 10.09C19.96 10.06 19.97 10.04 19.98 10.04C19.99 10.04 20 10.01 20 9.98C20 9.95 20 9.93 20.01 9.93C20.02 9.93 20.03 9.89 20.03 9.85C20.03 9.8 20.04 9.77 20.05 9.77C20.06 9.77 20.07 9.73 20.07 9.68C20.07 9.64 20.08 9.6 20.09 9.6C20.1 9.6 20.11 9.52 20.11 9.41C20.11 9.3 20.12 9.22 20.13 9.22C20.14 9.22 20.14 9.11 20.14 8.95C20.14 8.78 20.14 8.67 20.13 8.67C20.12 8.67 20.11 8.59 20.11 8.48C20.11 8.37 20.1 8.29 20.09 8.29C20.08 8.29 20.07 8.24 20.07 8.18C20.07 8.12 20.06 8.07 20.05 8.07C20.04 8.07 20.03 8.02 20.03 7.96C20.03 7.9 20.02 7.85 20.01 7.85C20 7.85 20 7.82 20 7.77C20 7.73 19.99 7.69 19.98 7.69C19.97 7.69 19.96 7.67 19.96 7.64C19.96 7.61 19.95 7.58 19.94 7.58C19.93 7.58 19.92 7.56 19.92 7.53C19.92 7.5 19.91 7.47 19.9 7.47C19.89 7.47 19.88 7.44 19.88 7.39C19.88 7.35 19.87 7.31 19.86 7.31C19.85 7.31 19.85 7.29 19.85 7.26C19.85 7.23 19.83 7.19 19.81 7.17C19.79 7.15 19.77 7.11 19.77 7.08C19.77 7.06 19.76 7.04 19.75 7.04C19.74 7.04 19.73 7.01 19.73 6.98C19.73 6.95 19.72 6.93 19.71 6.93C19.7 6.93 19.7 6.91 19.7 6.88C19.7 6.85 19.68 6.81 19.66 6.79C19.64 6.77 19.62 6.73 19.62 6.71C19.62 6.69 19.6 6.64 19.57 6.6C19.53 6.56 19.51 6.51 19.51 6.49C19.51 6.47 19.48 6.41 19.43 6.35C19.39 6.3 19.36 6.24 19.36 6.22C19.36 6.18 19.05 5.73 19.02 5.73C19.01 5.73 18.97 5.68 18.93 5.62C18.89 5.56 18.85 5.51 18.84 5.51C18.82 5.51 18.79 5.47 18.76 5.43C18.73 5.38 18.7 5.34 18.68 5.34C18.67 5.34 18.65 5.32 18.63 5.29C18.62 5.26 18.59 5.23 18.57 5.23C18.55 5.23 18.54 5.22 18.54 5.21C18.54 5.19 18.52 5.18 18.5 5.18C18.49 5.18 18.46 5.16 18.44 5.13C18.43 5.1 18.4 5.07 18.38 5.07C18.37 5.07 18.35 5.06 18.35 5.04C18.35 5.03 18.33 5.02 18.31 5.02C18.29 5.02 18.28 5 18.28 4.99C18.28 4.97 18.26 4.96 18.24 4.96C18.22 4.96 18.2 4.95 18.2 4.93C18.2 4.92 18.18 4.91 18.16 4.91C18.14 4.91 18.13 4.9 18.13 4.88C18.13 4.87 18.1 4.85 18.07 4.85C18.04 4.85 18.01 4.84 18.01 4.83C18.01 4.81 18 4.8 17.98 4.8C17.96 4.8 17.94 4.79 17.94 4.77C17.94 4.76 17.91 4.74 17.88 4.74C17.85 4.74 17.83 4.73 17.83 4.72C17.83 4.7 17.8 4.69 17.77 4.69C17.74 4.69 17.71 4.68 17.71 4.66C17.71 4.65 17.69 4.63 17.66 4.63C17.63 4.63 17.6 4.62 17.6 4.61C17.6 4.59 17.57 4.58 17.53 4.58C17.49 4.58 17.45 4.57 17.45 4.55C17.45 4.54 17.41 4.53 17.36 4.53C17.31 4.53 17.27 4.51 17.27 4.5C17.27 4.48 17.22 4.47 17.15 4.47C17.09 4.47 17.04 4.46 17.04 4.44C17.04 4.43 16.94 4.42 16.76 4.42C16.59 4.42 16.48 4.41 16.48 4.39C16.48 4.37 16.44 4.36 16.39 4.36C16.34 4.36 16.29 4.37 16.29 4.39ZM16.52 6.52C16.52 6.53 16.55 6.54 16.59 6.54C16.63 6.54 16.67 6.56 16.67 6.57C16.67 6.59 16.68 6.6 16.7 6.6C16.72 6.6 16.75 6.62 16.76 6.65C16.78 6.68 16.8 6.71 16.81 6.71C16.85 6.71 17 6.94 17 6.99C17 7.02 17.01 7.04 17.02 7.04C17.03 7.04 17.04 7.06 17.04 7.09C17.04 7.12 17.05 7.15 17.06 7.15C17.07 7.15 17.08 7.17 17.08 7.2C17.08 7.23 17.09 7.25 17.1 7.25C17.11 7.25 17.12 7.28 17.12 7.31C17.12 7.34 17.12 7.36 17.14 7.36C17.15 7.36 17.15 7.44 17.15 7.53C17.15 7.62 17.16 7.69 17.17 7.69C17.18 7.69 17.19 7.74 17.19 7.8C17.19 7.86 17.18 7.91 17.17 7.91C17.16 7.91 17.15 7.96 17.15 8.02C17.15 8.08 17.15 8.13 17.14 8.13C17.12 8.13 17.12 8.15 17.12 8.17C17.12 8.22 17 8.4 16.96 8.4C16.94 8.4 16.93 8.41 16.93 8.43C16.93 8.45 16.71 8.46 16.29 8.46C15.88 8.46 15.66 8.45 15.66 8.43C15.66 8.41 15.64 8.4 15.62 8.4C15.6 8.4 15.58 8.39 15.58 8.37C15.58 8.36 15.57 8.35 15.55 8.35C15.52 8.35 15.51 8.33 15.51 8.29C15.51 8.26 15.5 8.24 15.49 8.24C15.48 8.24 15.47 8.21 15.47 8.18C15.47 8.15 15.46 8.13 15.45 8.13C15.44 8.13 15.43 8.03 15.43 7.88C15.43 7.74 15.44 7.64 15.45 7.64C15.46 7.64 15.47 7.59 15.47 7.53C15.47 7.47 15.48 7.42 15.49 7.42C15.5 7.42 15.51 7.39 15.51 7.36C15.51 7.33 15.52 7.31 15.53 7.31C15.54 7.31 15.55 7.28 15.55 7.25C15.55 7.22 15.55 7.2 15.57 7.2C15.58 7.2 15.58 7.18 15.58 7.15C15.58 7.12 15.6 7.09 15.62 7.06C15.64 7.04 15.66 7.01 15.66 6.99C15.66 6.94 15.82 6.71 15.85 6.71C15.86 6.71 15.89 6.68 15.9 6.65C15.92 6.62 15.94 6.6 15.96 6.6C15.98 6.6 16 6.59 16 6.57C16 6.56 16.02 6.54 16.05 6.54C16.08 6.54 16.11 6.53 16.11 6.52C16.11 6.5 16.19 6.49 16.31 6.49C16.44 6.49 16.52 6.5 16.52 6.52Z" fill="#E62A4C" fill-opacity="1.000000" fill-rule="evenodd"/>
</svg>
