<svg width="192.000000" height="192.000000" viewBox="0 0 192 192" fill="none" xmlns="http://www.w3.org/2000/svg" xmlns:xlink="http://www.w3.org/1999/xlink">
	<desc>
			Created with Pixso.
	</desc>
	<defs>
		<clipPath id="clip2_3887">
			<rect id="Kotofey 1" width="192.000000" height="192.000000" fill="white" fill-opacity="0"/>
		</clipPath>
	</defs>
	<rect id="Rectangle 3997" rx="24.000000" width="192.000000" height="192.000000" fill="#F2F2F2" fill-opacity="1.000000"/>
	<rect id="Kotofey 1" width="192.000000" height="192.000000" fill="#FFFFFF" fill-opacity="0"/>
	<g clip-path="url(#clip2_3887)">
		<path id="path3350" d="M58.05 86.11L36.15 86.11L36.15 108L58.05 108L58.05 86.11Z" fill="#ED1B34" fill-opacity="1.000000" fill-rule="nonzero"/>
		<path id="rect3402" d="M54.52 88.29C54.02 88.29 53.63 88.62 53.44 89.02L50.69 93.56C50.5 93.98 50.36 94.45 50.36 94.77C50.36 95.05 50.39 95.29 50.5 95.52L53.48 102.64L41.89 102.64C41.48 102.64 41.13 102.22 41.13 101.83L41.13 89.56C41.05 87.89 38.64 87.89 38.58 89.61L38.63 102.64C38.63 104.05 39.73 105.19 41.13 105.19L56.93 105.19L53.08 95.34C52.97 94.98 52.92 94.64 53.18 94.21L55.73 90.07C55.77 89.98 55.82 89.62 55.82 89.51C55.76 88.76 55.18 88.26 54.52 88.29ZM48.27 88.3C47.65 88.3 47.03 88.73 47.03 89.56L47.03 98.35C47.03 99.62 45.31 99.52 45.31 98.35L45.31 89.56C45.31 87.89 42.83 87.89 42.83 89.56L42.83 98.41C42.83 100.44 44.34 101.78 46.14 101.78C48 101.78 49.51 100.44 49.51 98.41L49.51 89.56C49.51 88.71 48.89 88.29 48.27 88.3Z" fill="#FFFFFF" fill-opacity="1.000000" fill-rule="nonzero"/>
		<path id="path3338" d="M66.31 88.65L66.31 97.76C66.31 100.04 66.08 101.3 64.22 101.3C63.88 101.3 63.64 101.3 63.3 101.18L63.3 105.1C63.99 105.35 64.46 105.35 65.04 105.35C70.25 105.35 70.48 101.43 70.48 99.15L70.48 92.57L73.49 92.57L73.49 105.1L77.66 105.1L77.66 88.65L66.31 88.65Z" fill="#000000" fill-opacity="1.000000" fill-rule="nonzero"/>
		<path id="path3340" d="M79.05 88.65L84.73 100.54L82.65 105.1L87.16 105.1L93.88 88.65L89.37 88.65L86.93 95.61L84.03 88.65L79.05 88.65Z" fill="#000000" fill-opacity="1.000000" fill-rule="nonzero"/>
		<path id="path3342" d="M95.16 105.1L99.33 105.1L99.33 98.01L103.62 105.1L108.95 105.1L103.04 96.62L108.83 88.65L103.85 88.65L99.33 95.61L99.33 88.65L95.16 88.65L95.16 105.1Z" fill="#000000" fill-opacity="1.000000" fill-rule="nonzero"/>
		<path id="path3344" d="M115.78 105.61C121.34 105.61 123.89 101.3 123.89 96.87C123.89 92.57 121.34 88.27 115.78 88.27C110.34 88.27 107.79 92.57 107.79 96.87C107.79 101.3 110.34 105.61 115.78 105.61ZM115.78 101.68C113.93 101.68 112.08 100.04 112.08 96.87C112.08 93.71 113.93 92.19 115.78 92.19C117.75 92.19 119.61 93.71 119.61 96.87C119.61 100.04 117.75 101.68 115.78 101.68Z" fill="#000000" fill-opacity="1.000000" fill-rule="nonzero"/>
		<path id="path3346" d="M125.98 88.65L125.98 105.1L130.04 105.1L135.83 95.23L135.83 105.1L139.89 105.1L139.89 88.65L135.83 88.65L130.04 98.52L130.04 88.65L125.98 88.65ZM133.05 87.76C134.79 87.76 136.52 87.13 137.34 85.23L134.9 84.22C134.55 85.49 133.51 85.61 133.05 85.61C132.7 85.61 131.54 85.49 131.31 84.22L128.88 85.23C129.57 87.13 131.43 87.76 133.05 87.76Z" fill="#000000" fill-opacity="1.000000" fill-rule="nonzero"/>
		<path id="path3348" d="M144.29 88.65L144.29 97.76C144.29 100.04 144.06 101.3 142.2 101.3C141.85 101.3 141.62 101.3 141.27 101.18L141.27 105.1C141.97 105.35 142.43 105.35 143.01 105.35C148.23 105.35 148.46 101.43 148.46 99.15L148.46 92.57L151.47 92.57L151.47 105.1L155.64 105.1L155.64 88.65L144.29 88.65Z" fill="#000000" fill-opacity="1.000000" fill-rule="nonzero"/>
	</g>
</svg>
