<svg width="192.000000" height="192.000000" viewBox="0 0 192 192" fill="none" xmlns="http://www.w3.org/2000/svg" xmlns:xlink="http://www.w3.org/1999/xlink">
	<desc>
			Created with Pixso.
	</desc>
	<defs>
		<clipPath id="clip2_3870">
			<rect id="Kotofey 1" width="192.000000" height="192.000000" fill="white" fill-opacity="0"/>
		</clipPath>
	</defs>
	<rect id="Rectangle 3997" rx="24.000000" width="192.000000" height="192.000000" fill="#F2F2F2" fill-opacity="1.000000"/>
	<rect id="Kotofey 1" width="192.000000" height="192.000000" fill="#FFFFFF" fill-opacity="0"/>
	<g clip-path="url(#clip2_3870)">
		<path id="Vector" d="M35.67 85.64C36.18 84.47 36.68 83.23 37.73 82.45C38.69 83.42 39.19 84.75 40.1 85.77C40.96 86.81 42.02 87.66 43.22 88.27C44.42 88.88 45.74 89.23 47.08 89.3C49.59 89.4 52 88.41 54.12 87.16C54.58 86.89 55.32 86.41 55.65 87.11C57.64 91 58.08 95.6 57.15 99.85C56.49 102.82 55.12 105.73 52.78 107.74C51.73 108.68 50.48 109.38 49.13 109.79C47.78 110.19 46.35 110.3 44.95 110.09C41.31 109.59 38.11 107.11 36.3 103.94C34.63 101.08 34.08 97.72 34.01 94.44C34.11 91.45 34.51 88.43 35.67 85.64ZM38.3 89.2C37.28 93.19 37.13 97.51 38.53 101.42C39.3 103.56 40.63 105.6 42.65 106.72C44.75 107.86 47.45 108.1 49.57 106.88C51.5 105.79 52.8 103.84 53.53 101.77C54.71 98.52 54.66 94.92 53.76 91.61C51.13 92.99 48.12 93.47 45.19 93C42.54 92.6 40.15 91.13 38.3 89.2ZM147.33 88.31C147.56 88.05 147.92 88.34 148.14 88.48C149.36 89.45 150.74 90.47 152.37 90.42C153.21 90.48 154.07 90.15 154.89 90.42C155.09 91.33 154.12 91.8 153.44 92.12C150.84 93.21 147.8 92.04 146.02 90.01C146.25 89.31 146.8 88.8 147.32 88.31L147.33 88.31ZM120.05 89.59C121.1 89.48 122.16 89.48 123.22 89.59C123.57 90.69 123.24 92 123.34 93.18C124.47 93.26 125.57 93.63 126.52 94.27C127.47 94.9 128.24 95.78 128.75 96.8C129.28 97.91 129.51 99.14 129.39 100.36C129.28 101.59 128.84 102.75 128.1 103.74C126.98 105.26 125.18 106.15 123.34 106.38C123.34 107.51 123.36 108.64 123.36 109.78C122.26 109.84 121.15 109.84 120.05 109.76C120.05 108.63 120.07 107.51 120.07 106.39C118.4 106.16 116.77 105.43 115.65 104.14C114.84 103.22 114.3 102.09 114.09 100.87C113.88 99.66 114.01 98.41 114.47 97.27C114.93 96.13 115.7 95.14 116.69 94.41C117.68 93.69 118.86 93.25 120.08 93.16C120.08 91.97 120.06 90.78 120.06 89.58L120.05 89.59ZM117.64 101.35C117.9 102.57 118.91 103.41 120.04 103.82C120.38 101.13 120.19 98.42 120.17 95.73C117.65 96.15 116.98 99.24 117.64 101.35ZM123.38 103.83C124.2 103.44 125.11 103.02 125.49 102.13C125.84 101.37 126.02 100.53 126.01 99.69C126 98.84 125.8 98.01 125.43 97.25C125.01 96.45 124.18 96.01 123.38 95.69C123.1 98.39 123.1 101.12 123.38 103.83L123.38 103.83ZM63.84 93.52C64.93 93.29 66.06 93.29 67.15 93.52C67.22 95.2 67.17 96.88 67.19 98.56C68.25 98.51 69.52 98.53 70.24 97.62C71.15 96.45 71.14 94.89 71.39 93.5C72.49 93.28 73.62 93.3 74.72 93.55C74.77 95.87 74 98.3 72.09 99.74C73.01 100.5 73.73 101.47 74.19 102.57C74.66 103.67 74.85 104.86 74.76 106.05C73.68 106.12 72.59 106.12 71.51 106.05C71.18 104.59 70.97 102.95 69.87 101.84C69.18 101.11 68.13 101.02 67.2 100.89C67.14 102.49 67.27 104.11 67.14 105.7C67.1 105.79 67.02 105.95 66.98 106.03C65.96 106.16 64.93 106.15 63.91 106.01C63.82 105.38 63.78 104.74 63.81 104.11C63.84 100.58 63.79 97.05 63.84 93.52L63.84 93.52ZM81.23 93.25C82.99 92.99 84.87 93.35 86.29 94.48C87.41 95.35 88.23 96.55 88.62 97.92C89.01 99.29 88.96 100.75 88.46 102.08C87.36 105.27 83.55 107.15 80.37 106.03C77.41 105.14 75.39 101.96 75.85 98.88C76.17 96.1 78.45 93.66 81.23 93.25ZM81.27 95.94C79.97 96.41 79.38 97.83 79.25 99.12C79.14 100.48 79.38 102.01 80.4 102.99C80.88 103.43 81.49 103.7 82.13 103.74C82.77 103.79 83.41 103.62 83.95 103.26C85.04 102.54 85.43 101.16 85.45 99.91C85.49 98.63 85.19 97.2 84.15 96.36C83.37 95.68 82.23 95.67 81.29 95.93L81.27 95.94ZM104.68 93.32C106.69 92.89 108.91 93.32 110.46 94.73C112.74 96.62 113.37 100.11 112.02 102.73C110.72 105.33 107.62 106.87 104.79 106.19C103.4 105.87 102.16 105.12 101.23 104.04C100.3 102.95 99.74 101.6 99.64 100.18C99.38 97.06 101.62 93.97 104.67 93.31L104.68 93.32ZM105.17 95.92C102.92 96.87 102.67 99.97 103.53 101.98C104.19 103.68 106.58 104.33 107.97 103.12C109.59 101.71 109.67 99.08 108.73 97.25C108.11 95.94 106.48 95.5 105.17 95.92ZM132.04 95.74C133.88 93.2 137.64 92.41 140.34 93.97C142.59 95.2 143.85 97.89 143.56 100.43C143.54 100.73 143.39 101.17 143.02 101.13C140.07 101.19 137.13 101.11 134.19 101.17C134.54 101.91 134.88 102.74 135.6 103.2C136.17 103.58 136.85 103.78 137.55 103.76C138.24 103.74 138.9 103.51 139.46 103.1C140.07 102.73 140.47 102.05 141.15 101.81C141.81 102.2 142.4 102.7 142.88 103.29C142.88 103.95 142.26 104.37 141.85 104.8C138.88 107.41 133.68 106.62 131.65 103.2C130.97 102.06 130.64 100.74 130.71 99.41C130.78 98.08 131.24 96.8 132.04 95.74ZM136.02 96C134.98 96.43 134.52 97.53 134.17 98.52C136.21 98.56 138.25 98.55 140.3 98.52C140.01 97.79 139.78 97 139.17 96.47C138.35 95.66 137.03 95.61 136.02 95.99L136.02 96ZM145.25 93.55C146.03 93.22 146.89 93.33 147.71 93.33C148.03 93.33 148.54 93.44 148.49 93.88C148.57 96.25 148.41 98.62 148.56 100.99C148.61 102.37 149.86 103.85 151.32 103.49C152.65 103.1 153.54 101.73 153.62 100.37C153.73 98.13 153.55 95.88 153.69 93.65C153.98 93.21 154.56 93.36 154.99 93.32C155.63 93.34 156.32 93.23 156.9 93.56C156.98 94.02 157.01 94.48 156.99 94.94C156.97 98.34 156.99 101.76 156.99 105.17C156.95 105.46 157.06 105.88 156.73 106.04C155.75 106.11 154.77 106.12 153.79 106.07C153.72 105.66 153.66 105.24 153.62 104.83C151.59 107.25 147.3 106.63 145.84 103.89C144.91 102.29 145.23 100.38 145.18 98.61C145.23 96.92 145.07 95.21 145.26 93.55L145.25 93.55ZM88.98 93.48C91.91 93.37 94.86 93.53 97.8 93.43C98.45 93.4 99.09 93.42 99.73 93.49C99.76 94.45 99.77 95.41 99.71 96.36C98.44 96.42 97.17 96.39 95.9 96.38C96.07 98.07 96 99.77 96.01 101.46C95.98 102.99 96.12 104.54 95.83 106.06C94.79 106.09 93.75 106.09 92.71 106.06C92.53 102.83 92.6 99.6 92.57 96.37C91.33 96.41 90.09 96.42 88.85 96.37C88.85 95.42 88.56 94.34 88.99 93.49L88.98 93.48Z" fill="#0169B3" fill-opacity="1.000000" fill-rule="nonzero"/>
	</g>
</svg>
