<svg width="118.588135" height="118.661011" viewBox="0 0 118.588 118.661" fill="none" xmlns="http://www.w3.org/2000/svg" xmlns:xlink="http://www.w3.org/1999/xlink">
	<desc>
			Created with Pixso.
	</desc>
	<defs/>
	<rect id="back" rx="21.000000" width="118.588242" height="118.660957" fill="#F2F2F2" fill-opacity="1.000000"/>
	<path id="Icon" d="M74.32 36.61C73.86 36.15 73.24 35.9 72.59 35.9C71.94 35.9 71.32 36.15 70.86 36.61L40.84 66.66C40.53 66.96 40.31 67.35 40.2 67.77L36.93 80.28C36.71 81.12 36.95 82.02 37.57 82.63C38.18 83.25 39.08 83.49 39.92 83.27L52.42 80C52.85 79.89 53.23 79.67 53.54 79.37L83.56 49.32C84.52 48.37 84.52 46.81 83.56 45.86L74.32 36.61ZM44.77 69.65L72.59 41.81L78.36 47.59L50.54 75.43L42.73 77.47L44.77 69.65Z" fill="#10BB87" fill-opacity="1.000000" fill-rule="evenodd"/>
</svg>
