<svg width="118.588257" height="118.661011" viewBox="0 0 118.588 118.661" fill="none" xmlns="http://www.w3.org/2000/svg" xmlns:xlink="http://www.w3.org/1999/xlink">
	<desc>
			Created with Pixso.
	</desc>
	<defs/>
	<rect id="back" rx="21.000000" width="118.588242" height="118.660957" fill="#F2F2F2" fill-opacity="1.000000"/>
	<path id="Icon" d="M44.6 35.89C44.71 34.88 45.56 34.12 46.58 34.12L74.55 34.12C75.57 34.12 76.42 34.88 76.53 35.89L77.06 40.68C77.12 41.18 77.17 41.62 77.22 42.03C77.42 43.7 77.57 44.93 77.66 48.28L73.64 47.03C73.56 44.53 73.44 43.69 73.29 42.63C73.23 42.2 73.17 41.74 73.1 41.12L72.77 38.11L48.36 38.11L48.03 41.12C47.1 49.51 47.1 68.46 48.03 76.85L48.08 77.32C48.26 78.95 49.53 80.26 51.16 80.48C57.4 81.36 63.73 81.36 69.98 80.48C71.6 80.26 72.87 78.95 73.05 77.32L73.1 76.85C73.2 76.01 73.28 71.92 73.35 70.85L77.36 70.6C77.28 71.94 77.18 76.27 77.06 77.29L77.01 77.76C76.63 81.21 73.96 83.95 70.53 84.43C63.92 85.36 57.21 85.36 50.6 84.43C47.17 83.95 44.5 81.21 44.12 77.76L44.07 77.29C43.1 68.6 43.1 49.36 44.07 40.68L44.6 35.89Z" fill="#10BB87" fill-opacity="1.000000" fill-rule="evenodd"/>
	<path id="Icon (Stroke)" d="M75.93 51.88C73.7 50.66 70.9 50.56 69 50.89C67.92 51.08 66.88 50.35 66.7 49.26C66.51 48.18 67.23 47.15 68.32 46.96C70.8 46.53 74.58 46.6 77.84 48.37C81.27 50.24 83.83 53.85 83.87 59.77C83.88 62.68 83.28 65.07 82.18 66.98C81.08 68.89 79.54 70.21 77.86 71.07C74.57 72.75 70.76 72.71 68.27 72.2C67.19 71.99 66.49 70.94 66.71 69.86C66.92 68.78 67.97 68.08 69.05 68.29C70.99 68.68 73.82 68.66 76.04 67.52C77.12 66.97 78.06 66.16 78.73 64.98C79.41 63.8 79.89 62.14 79.88 59.79C79.85 55.2 77.99 53 75.93 51.88Z" fill="#10BB87" fill-opacity="1.000000" fill-rule="evenodd"/>
	<path id="Icon (Stroke)" d="M70.12 58.59C69.82 58.44 69.35 58.39 69 58.46C67.92 58.64 66.88 57.92 66.7 56.83C66.51 55.75 67.23 54.71 68.32 54.53C69.25 54.36 70.7 54.37 72.02 55.09C73.51 55.9 74.51 57.45 74.52 59.66C74.53 60.71 74.31 61.66 73.84 62.48C73.37 63.3 72.7 63.87 72 64.23C70.66 64.91 69.19 64.87 68.27 64.69C67.19 64.47 66.49 63.42 66.71 62.34C66.92 61.26 67.97 60.56 69.05 60.78C69.21 60.81 69.42 60.83 69.65 60.81C69.88 60.79 70.06 60.74 70.18 60.68C70.28 60.63 70.34 60.57 70.39 60.49C70.44 60.4 70.54 60.17 70.53 59.68C70.53 59.19 70.43 58.95 70.37 58.84C70.31 58.73 70.23 58.66 70.12 58.59Z" fill="#10BB87" fill-opacity="1.000000" fill-rule="evenodd"/>
</svg>
