<svg width="272.307617" height="68.864746" viewBox="0 0 272.308 68.8647" fill="none" xmlns="http://www.w3.org/2000/svg" xmlns:xlink="http://www.w3.org/1999/xlink">
	<desc>
			Created with Pixso.
	</desc>
	<defs/>
	<rect id="back" rx="7.000000" width="272.307709" height="68.864868" fill="#10BB87" fill-opacity="1.000000"/>
	<path id="Итог" d="M19.69 38.83L20.7 38.83L20.58 42.06L19.27 42.06L19.27 40L12.95 40L12.95 31.27L14.22 31.27L14.22 38.85L18.43 38.85L18.43 31.27L19.69 31.27L19.69 38.83ZM27.59 38.36C27.3 39.42 26.29 40.13 24.86 40.13C22.93 40.13 21.75 38.8 21.75 36.76C21.75 34.75 22.95 33.37 24.77 33.37C26.25 33.37 27.67 34.29 27.67 36.66L27.67 37.11L23.01 37.11C23.05 38.37 23.78 39.08 24.87 39.08C25.6 39.08 26.15 38.76 26.38 38.14L27.59 38.36ZM39.95 39.1C39.71 39.59 39.1 40.14 38.02 40.14C36.78 40.14 35.81 39.43 35.81 38.15C35.81 36.66 37.08 36.34 38.32 36.19C39.49 36.05 39.97 36.06 39.97 35.6L39.97 35.57C39.97 34.83 39.55 34.4 38.73 34.4C37.87 34.4 37.39 34.84 37.21 35.31L36.01 35.04C36.43 33.84 37.53 33.37 38.71 33.37C39.75 33.37 41.25 33.74 41.25 35.65L41.25 40L40 40L40 39.1L39.95 39.1ZM29.09 33.45L30.34 33.45L30.34 36.17L33.17 36.17L33.17 33.45L34.42 33.45L34.42 40L33.17 40L33.17 37.28L30.34 37.28L30.34 40L29.09 40L29.09 33.45ZM24.78 34.42C23.74 34.42 23.07 35.22 23.02 36.15L26.42 36.15C26.41 35.15 25.77 34.42 24.78 34.42ZM37.06 38.16C37.06 38.79 37.58 39.12 38.3 39.12C39.36 39.12 39.97 38.41 39.97 37.63L39.97 36.79C39.79 36.97 38.81 37.09 38.4 37.14C37.66 37.24 37.06 37.48 37.06 38.16Z" fill="#487B6C" fill-opacity="1.000000" fill-rule="evenodd"/>
	<path id="за шт" d="M228.02 37.13C226.57 37.13 225.5 36.41 225.46 35.26L226.77 35.26C226.81 35.8 227.29 36.1 228.01 36.1C228.75 36.1 229.34 35.8 229.34 35.13C229.34 34.54 228.87 34.14 228.15 34.14L227.08 34.14L227.08 33.13L228.15 33.13C228.87 33.13 229.23 32.77 229.23 32.27C229.23 31.74 228.83 31.38 228.14 31.38C227.44 31.38 226.94 31.72 226.91 32.21L225.63 32.21C225.65 31.11 226.68 30.37 228.08 30.37C229.53 30.37 230.45 31.12 230.45 32.2C230.45 32.92 229.98 33.38 229.3 33.57L229.3 33.64C230.06 33.69 230.59 34.32 230.59 35.18C230.59 36.38 229.52 37.13 228.02 37.13ZM235.75 36.1C235.51 36.59 234.9 37.14 233.82 37.14C232.57 37.14 231.61 36.43 231.61 35.15C231.61 33.66 232.87 33.34 234.11 33.19C235.29 33.05 235.77 33.06 235.77 32.6L235.77 32.57C235.77 31.83 235.35 31.4 234.52 31.4C233.67 31.4 233.19 31.84 233 32.31L231.81 32.04C232.23 30.84 233.32 30.37 234.51 30.37C235.55 30.37 237.05 30.74 237.05 32.65L237.05 37L235.8 37L235.8 36.1L235.75 36.1ZM241.92 37L241.92 30.45L243.17 30.45L243.17 35.89L245.43 35.89L245.43 30.45L246.68 30.45L246.68 35.89L248.94 35.89L248.94 30.45L250.19 30.45L250.19 37L241.92 37ZM253.22 31.55L251.08 31.55L251.08 30.45L256.6 30.45L256.6 31.55L254.47 31.55L254.47 37L253.22 37L253.22 31.55ZM232.85 35.16C232.85 35.79 233.37 36.12 234.09 36.12C235.15 36.12 235.77 35.41 235.77 34.63L235.77 33.79C235.59 33.97 234.61 34.09 234.2 34.14C233.46 34.24 232.85 34.48 232.85 35.16Z" fill="#487B6C" fill-opacity="1.000000" fill-rule="evenodd"/>
</svg>
