<svg width="29.318359" height="28.999756" viewBox="0 0 29.3184 28.9998" fill="none" xmlns="http://www.w3.org/2000/svg" xmlns:xlink="http://www.w3.org/1999/xlink">
	<desc>
			Created with Pixso.
	</desc>
	<defs/>
	<path id="Icon" d="M7.07 16.94C7.12 16.95 7.17 16.97 7.23 16.97C7.29 17.11 7.36 17.29 7.45 17.49C7.67 18 7.96 18.68 8.26 19.39C8.87 20.85 9.49 22.34 9.63 22.77C9.8 23.3 9.98 23.66 10.17 23.91C10.27 24.03 10.39 24.14 10.53 24.23C10.59 24.27 10.67 24.31 10.74 24.33C10.75 24.33 10.75 24.33 10.75 24.33C11.14 24.48 11.5 24.42 11.72 24.35C11.84 24.31 11.94 24.26 12.01 24.22C12.04 24.2 12.07 24.18 12.1 24.16L12.1 24.16L15.55 22.03L19.54 25.06C19.6 25.1 19.66 25.14 19.73 25.17C20.21 25.37 20.68 25.45 21.11 25.39C21.55 25.33 21.89 25.15 22.15 24.94C22.4 24.74 22.57 24.52 22.68 24.35C22.74 24.27 22.78 24.19 22.8 24.14C22.82 24.11 22.83 24.08 22.84 24.06L22.85 24.04L22.86 24.03L22.86 24.02L22.86 24.02L22.86 24.02C22.88 23.97 22.9 23.91 22.91 23.86L26.55 5.7C26.56 5.64 26.57 5.58 26.57 5.53C26.57 4.99 26.36 4.49 25.89 4.18C25.48 3.92 25.03 3.91 24.74 3.93C24.43 3.95 24.14 4.03 23.95 4.09C23.85 4.12 23.77 4.15 23.71 4.17C23.68 4.18 23.65 4.19 23.64 4.2L23.62 4.21L3.2 12.13L3.2 12.13C3.19 12.14 3.17 12.14 3.15 12.15C3.11 12.17 3.06 12.19 3 12.21C2.88 12.27 2.71 12.35 2.53 12.47C2.26 12.66 1.62 13.17 1.73 14.02C1.81 14.7 2.28 15.12 2.57 15.32C2.72 15.43 2.87 15.51 2.98 15.56C3.03 15.58 3.14 15.62 3.18 15.64L3.19 15.65L7.07 16.94ZM24.34 5.88L24.33 5.88C24.32 5.88 24.31 5.89 24.3 5.89L3.86 13.82C3.85 13.83 3.84 13.83 3.83 13.83L3.82 13.84C3.8 13.84 3.78 13.85 3.75 13.87C3.74 13.87 3.72 13.88 3.71 13.89C3.73 13.9 3.75 13.91 3.77 13.92C3.79 13.93 3.8 13.94 3.81 13.94L7.65 15.22C7.72 15.24 7.79 15.27 7.85 15.31L20.52 7.97L20.53 7.96C20.54 7.96 20.56 7.95 20.57 7.94C20.6 7.93 20.64 7.9 20.69 7.88C20.77 7.84 20.91 7.77 21.07 7.72C21.18 7.69 21.51 7.59 21.86 7.7C22.08 7.77 22.3 7.92 22.45 8.17C22.52 8.3 22.56 8.42 22.58 8.54C22.63 8.72 22.62 8.9 22.58 9.05C22.5 9.38 22.26 9.64 22.05 9.84C21.86 10.01 19.49 12.28 17.14 14.51C15.97 15.63 14.82 16.73 13.95 17.56L13.38 18.1L20.56 23.54C20.72 23.6 20.82 23.6 20.86 23.59C20.92 23.58 20.96 23.56 21.01 23.53C21.06 23.49 21.1 23.43 21.13 23.38L21.13 23.38L24.66 5.77C24.61 5.78 24.56 5.8 24.51 5.82C24.45 5.83 24.4 5.85 24.37 5.86C24.36 5.87 24.34 5.87 24.34 5.88L24.34 5.88ZM14 20.85L12.57 19.77L12.22 21.95L14 20.85ZM11.26 17.61L12.68 16.26C13.54 15.43 14.7 14.32 15.87 13.21L17.06 12.07L9.09 16.69L9.14 16.79C9.35 17.29 9.65 17.98 9.95 18.69C10.18 19.23 10.41 19.79 10.63 20.31L10.97 18.14C11.01 17.93 11.11 17.75 11.26 17.61Z" fill="#D87B00" fill-opacity="1.000000" fill-rule="evenodd"/>
</svg>
