<svg width="59.769531" height="59.449951" viewBox="0 0 59.7695 59.45" fill="none" xmlns="http://www.w3.org/2000/svg" xmlns:xlink="http://www.w3.org/1999/xlink">
	<desc>
			Created with Pixso.
	</desc>
	<defs/>
	<rect id="Прямоугольник 19" rx="10.000000" width="59.770000" height="59.450001" fill="#FFFFFF" fill-opacity="1.000000"/>
	<path id="Icon" d="M22.45 31.77C22.5 31.79 22.56 31.81 22.62 31.82C22.67 31.96 22.75 32.15 22.84 32.37C23.06 32.9 23.36 33.62 23.67 34.38C24.29 35.91 24.92 37.5 25.06 37.95C25.24 38.51 25.42 38.9 25.62 39.16C25.72 39.29 25.84 39.41 25.98 39.5C26.05 39.54 26.12 39.58 26.2 39.61C26.2 39.61 26.21 39.61 26.21 39.61C26.61 39.76 26.97 39.7 27.2 39.62C27.32 39.58 27.42 39.53 27.49 39.49C27.53 39.47 27.55 39.45 27.58 39.43L27.58 39.43L31.1 37.17L35.17 40.37C35.23 40.42 35.3 40.46 35.37 40.49C35.85 40.71 36.33 40.79 36.77 40.72C37.22 40.66 37.57 40.47 37.83 40.25C38.09 40.04 38.26 39.81 38.37 39.63C38.43 39.54 38.47 39.46 38.5 39.4C38.51 39.37 38.52 39.34 38.53 39.32L38.54 39.29L38.55 39.28L38.55 39.28L38.55 39.28L38.55 39.27C38.57 39.22 38.59 39.16 38.6 39.1L42.31 19.88C42.33 19.82 42.33 19.76 42.33 19.69C42.33 19.13 42.12 18.59 41.64 18.27C41.22 17.99 40.76 17.98 40.47 18C40.15 18.03 39.86 18.11 39.67 18.17C39.57 18.2 39.48 18.24 39.42 18.26C39.39 18.27 39.36 18.28 39.34 18.29L39.33 18.3L18.51 26.69L18.51 26.69C18.5 26.69 18.48 26.7 18.46 26.71C18.42 26.72 18.37 26.75 18.3 26.78C18.18 26.83 18.01 26.92 17.83 27.05C17.55 27.25 16.9 27.79 17.01 28.69C17.09 29.41 17.57 29.85 17.87 30.06C18.03 30.18 18.18 30.26 18.29 30.32C18.34 30.34 18.45 30.39 18.49 30.4L18.5 30.41L22.45 31.77ZM40.06 20.07L40.06 20.07C40.05 20.07 40.04 20.08 40.02 20.08L19.18 28.48C19.17 28.48 19.16 28.49 19.15 28.49L19.14 28.5C19.13 28.5 19.1 28.51 19.08 28.52C19.06 28.53 19.04 28.54 19.03 28.55C19.05 28.56 19.07 28.57 19.09 28.58C19.11 28.59 19.12 28.6 19.13 28.6L23.05 29.96C23.12 29.98 23.19 30.01 23.25 30.05L36.17 22.28L36.18 22.27C36.19 22.27 36.2 22.26 36.22 22.25C36.25 22.23 36.29 22.21 36.34 22.19C36.43 22.14 36.57 22.07 36.73 22.02C36.84 21.98 37.18 21.88 37.53 22C37.76 22.07 37.99 22.23 38.13 22.5C38.21 22.63 38.25 22.76 38.27 22.88C38.32 23.07 38.31 23.26 38.27 23.43C38.18 23.78 37.94 24.05 37.73 24.26C37.54 24.44 35.12 26.84 32.73 29.21C31.53 30.39 30.35 31.56 29.47 32.44L28.89 33.01L36.21 38.77C36.37 38.83 36.47 38.83 36.52 38.82C36.57 38.81 36.62 38.79 36.66 38.75C36.71 38.71 36.76 38.66 36.79 38.6L36.79 38.6L40.39 19.95C40.34 19.97 40.29 19.98 40.23 20C40.18 20.02 40.13 20.04 40.09 20.05C40.08 20.06 40.07 20.06 40.06 20.06L40.06 20.07ZM29.52 35.92L28.06 34.77L27.71 37.08L29.52 35.92ZM26.72 32.49L28.17 31.05C29.06 30.18 30.24 29.01 31.43 27.83L32.64 26.63L24.52 31.51L24.56 31.62C24.78 32.15 25.08 32.88 25.39 33.64C25.62 34.2 25.86 34.8 26.08 35.35L26.43 33.05C26.47 32.83 26.57 32.64 26.72 32.49Z" fill="#487B6C" fill-opacity="1.000000" fill-rule="evenodd"/>
</svg>
