<svg width="29.318359" height="28.999756" viewBox="0 0 29.3184 28.9998" fill="none" xmlns="http://www.w3.org/2000/svg" xmlns:xlink="http://www.w3.org/1999/xlink">
	<desc>
			Created with Pixso.
	</desc>
	<defs/>
	<path id="Icon" d="M3.26 26.37C2.89 26.46 2.56 26.13 2.66 25.77L4.17 20.37C3.1 18.55 2.54 16.49 2.54 14.39C2.54 7.78 8 2.41 14.71 2.41C17.96 2.41 21.01 3.66 23.31 5.92C25.61 8.18 26.87 11.19 26.87 14.39C26.87 21 21.41 26.37 14.71 26.37L14.7 26.37C12.66 26.37 10.66 25.86 8.89 24.91L3.26 26.37ZM5.75 19.46C6 19.89 6.06 20.39 5.93 20.85L5.05 24.03L8.42 23.16C8.87 23.04 9.35 23.1 9.76 23.32C11.27 24.13 12.97 24.56 14.7 24.56L14.71 24.56C20.4 24.56 25.04 19.99 25.04 14.39C25.04 11.67 23.97 9.13 22.02 7.21C20.07 5.28 17.48 4.22 14.71 4.22C9.01 4.22 4.37 8.79 4.37 14.39C4.37 16.17 4.85 17.92 5.75 19.46ZM11.56 9.19C11.32 8.68 11.07 8.66 10.85 8.66C10.67 8.65 10.46 8.65 10.25 8.65C10.03 8.65 9.7 8.73 9.41 9.04C9.39 9.06 9.37 9.08 9.35 9.1C9.02 9.44 8.31 10.19 8.31 11.63C8.31 13.13 9.41 14.59 9.59 14.83L9.59 14.83C9.6 14.85 9.63 14.88 9.66 14.93C10.05 15.5 12.01 18.36 14.97 19.52C17.38 20.45 18.05 20.37 18.58 20.31C18.64 20.3 18.69 20.29 18.75 20.29C19.33 20.24 20.61 19.54 20.88 18.81C21.14 18.09 21.14 17.47 21.06 17.34C20.99 17.23 20.85 17.16 20.63 17.06C20.57 17.03 20.51 17.01 20.45 16.98C20.14 16.82 18.59 16.07 18.3 15.96C18.01 15.86 17.8 15.81 17.59 16.12C17.38 16.43 16.78 17.12 16.6 17.33C16.42 17.54 16.23 17.56 15.91 17.41C15.86 17.39 15.79 17.36 15.71 17.32C15.26 17.13 14.39 16.76 13.38 15.87C12.45 15.05 11.81 14.03 11.63 13.72C11.45 13.41 11.61 13.25 11.77 13.09C11.86 13 11.96 12.88 12.06 12.76C12.12 12.69 12.18 12.61 12.24 12.55C12.38 12.39 12.44 12.27 12.52 12.1C12.53 12.08 12.54 12.06 12.55 12.03C12.66 11.82 12.61 11.65 12.53 11.49C12.5 11.42 12.36 11.09 12.19 10.69C11.98 10.17 11.71 9.54 11.56 9.19Z" fill="#D87B00" fill-opacity="1.000000" fill-rule="evenodd"/>
</svg>
