<svg width="59.769531" height="59.449951" viewBox="0 0 59.7695 59.45" fill="none" xmlns="http://www.w3.org/2000/svg" xmlns:xlink="http://www.w3.org/1999/xlink">
	<desc>
			Created with Pixso.
	</desc>
	<defs/>
	<rect id="Прямоугольник 19" rx="10.000000" width="59.770000" height="59.450001" fill="#FFFFFF" fill-opacity="1.000000"/>
	<rect id="Outline/Brands/Whatsapp" width="29.889999" height="30.707428" transform="translate(15.000000 14.000000)" fill="#FFFFFF" fill-opacity="1.000000"/>
	<path id="Icon" d="M18.32 41.92C17.95 42.02 17.61 41.67 17.72 41.29L19.25 35.57C18.16 33.65 17.59 31.46 17.59 29.24C17.59 22.24 23.16 16.55 29.99 16.55C33.31 16.55 36.42 17.88 38.77 20.27C41.11 22.66 42.39 25.85 42.39 29.24C42.39 36.23 36.83 41.92 29.99 41.92L29.99 41.92C27.91 41.92 25.87 41.39 24.06 40.38L18.32 41.92ZM20.86 34.61C21.12 35.06 21.18 35.59 21.05 36.08L20.15 39.45L23.59 38.52C24.05 38.4 24.53 38.46 24.95 38.69C26.49 39.55 28.22 40 29.99 40L29.99 40C35.8 40 40.53 35.16 40.53 29.24C40.53 26.36 39.44 23.66 37.45 21.63C35.46 19.6 32.82 18.47 29.99 18.47C24.18 18.47 19.46 23.31 19.46 29.24C19.46 31.12 19.94 32.98 20.86 34.61ZM26.78 23.74C26.54 23.19 26.29 23.17 26.06 23.17C25.88 23.16 25.66 23.16 25.45 23.16C25.23 23.16 24.88 23.24 24.59 23.57C24.57 23.59 24.55 23.61 24.53 23.64C24.2 24 23.47 24.79 23.47 26.31C23.47 27.9 24.59 29.45 24.77 29.7L24.78 29.71C24.79 29.72 24.81 29.76 24.85 29.81C25.25 30.42 27.24 33.45 30.26 34.67C32.71 35.66 33.4 35.57 33.95 35.5C34 35.5 34.06 35.49 34.11 35.48C34.71 35.43 36.01 34.69 36.28 33.92C36.55 33.15 36.55 32.5 36.47 32.36C36.4 32.25 36.25 32.17 36.03 32.06C35.97 32.04 35.91 32.01 35.85 31.98C35.53 31.81 33.95 31.02 33.66 30.9C33.36 30.79 33.15 30.74 32.94 31.07C32.72 31.4 32.11 32.13 31.92 32.35C31.74 32.57 31.54 32.6 31.22 32.44C31.17 32.41 31.1 32.38 31.01 32.34C30.56 32.14 29.67 31.74 28.64 30.8C27.69 29.93 27.04 28.86 26.86 28.53C26.67 28.2 26.84 28.03 27 27.86C27.09 27.77 27.19 27.64 27.3 27.51C27.36 27.43 27.42 27.36 27.48 27.29C27.62 27.12 27.68 26.99 27.76 26.82C27.78 26.79 27.79 26.77 27.8 26.74C27.9 26.52 27.85 26.33 27.77 26.17C27.74 26.1 27.6 25.75 27.43 25.32C27.21 24.77 26.94 24.1 26.78 23.74Z" fill="#487B6C" fill-opacity="1.000000" fill-rule="evenodd"/>
</svg>
