<svg width="59.769531" height="59.449951" viewBox="0 0 59.7695 59.45" fill="none" xmlns="http://www.w3.org/2000/svg" xmlns:xlink="http://www.w3.org/1999/xlink">
	<desc>
			Created with Pixso.
	</desc>
	<defs/>
	<rect id="Прямоугольник 19" rx="10.000000" width="59.770000" height="59.450001" fill="#FFFFFF" fill-opacity="1.000000"/>
	<path id="Icon" d="M23.64 20.24C27.81 19.91 32 19.91 36.17 20.24L38.96 20.46C40.65 20.59 42.04 21.85 42.32 23.52C42.97 27.38 42.97 31.32 42.32 35.18C42.04 36.85 40.65 38.12 38.96 38.25L36.17 38.47C32 38.79 27.81 38.79 23.64 38.47L20.85 38.25C19.15 38.12 17.76 36.85 17.48 35.18C16.83 31.32 16.83 27.38 17.48 23.52C17.76 21.85 19.15 20.59 20.85 20.46L23.64 20.24ZM36.02 22.09C31.95 21.77 27.86 21.77 23.78 22.09L20.99 22.31C20.15 22.37 19.46 23 19.32 23.83C18.71 27.49 18.71 31.22 19.32 34.88C19.46 35.7 20.15 36.33 20.99 36.4L23.78 36.61C27.86 36.93 31.95 36.93 36.02 36.61L38.81 36.4C39.65 36.33 40.34 35.7 40.48 34.88C41.09 31.22 41.09 27.49 40.48 23.83C40.34 23 39.65 22.37 38.81 22.31L36.02 22.09ZM26.95 24.83C27.24 24.66 27.6 24.67 27.89 24.84L34.12 28.56C34.4 28.72 34.57 29.03 34.57 29.35C34.57 29.68 34.4 29.98 34.12 30.15L27.89 33.86C27.6 34.04 27.24 34.04 26.95 33.88C26.66 33.71 26.48 33.4 26.48 33.07L26.48 25.64C26.48 25.3 26.66 24.99 26.95 24.83ZM28.34 31.43L31.82 29.35L28.34 27.28L28.34 31.43Z" fill="#487B6C" fill-opacity="1.000000" fill-rule="evenodd"/>
</svg>
