<svg width="50.000000" height="50.000000" viewBox="0 0 50 50" fill="none" xmlns="http://www.w3.org/2000/svg" xmlns:xlink="http://www.w3.org/1999/xlink">
	<desc>
			Created with Pixso.
	</desc>
	<defs/>
	<path id="Icon" d="M35.91 7.01L37.49 7.01C40.66 7.01 43.22 9.58 43.22 12.74L43.22 16.91C43.22 18.59 42.09 20 40.55 20.42C40.85 24.23 40.68 34.29 40.04 38.05C39.65 40.3 37.82 42.03 35.56 42.28L33.65 42.49C27.9 43.14 22.09 43.14 16.34 42.49L14.43 42.28C12.17 42.03 10.34 40.3 9.95 38.05C9.31 34.29 9.14 24.23 9.44 20.42C7.9 20 6.77 18.59 6.77 16.91L6.77 12.74C6.77 9.58 9.33 7.01 12.49 7.01L14.08 7.01L19.79 7.01L30.2 7.01L35.91 7.01ZM9.89 12.74C9.89 11.31 11.06 10.14 12.49 10.14L23.43 10.14L26.56 10.14L37.49 10.14C38.93 10.14 40.1 11.31 40.1 12.74L40.1 16.91C40.1 17.2 39.87 17.43 39.58 17.43L26.56 17.43L23.43 17.43L10.41 17.43C10.12 17.43 9.89 17.2 9.89 16.91L9.89 12.74ZM26.56 20.56L37.43 20.56C37.72 24.14 37.56 33.98 36.96 37.53C36.81 38.4 36.09 39.08 35.21 39.17L33.3 39.39C31.06 39.64 28.81 39.79 26.56 39.83L26.56 20.56ZM23.43 20.56L23.43 39.83C21.18 39.79 18.93 39.64 16.69 39.39L14.78 39.17C13.9 39.08 13.18 38.4 13.03 37.53C12.43 33.98 12.27 24.14 12.56 20.56L23.43 20.56Z" fill="#10BB87" fill-opacity="1.000000" fill-rule="evenodd"/>
</svg>
