<svg width="50.000000" height="50.000000" viewBox="0 0 50 50" fill="none" xmlns="http://www.w3.org/2000/svg" xmlns:xlink="http://www.w3.org/1999/xlink">
	<desc>
			Created with Pixso.
	</desc>
	<defs/>
	<path id="Icon" d="M28.36 4.81C28.93 5.05 29.31 5.62 29.31 6.25L29.31 20.82L37.5 20.82C38.05 20.82 38.56 21.12 38.84 21.6C39.12 22.08 39.13 22.67 38.86 23.16L37.83 24.97C33.94 31.85 28.98 38.07 23.14 43.39L21.48 44.9C21.03 45.32 20.37 45.42 19.8 45.17C19.24 44.92 18.87 44.36 18.87 43.75L18.87 29.29L10.41 29.29C9.55 29.29 8.85 28.59 8.85 27.73C8.85 27.45 8.92 27.18 9.05 26.96C12.72 20.18 17.41 14.02 22.96 8.68L26.66 5.12C27.11 4.68 27.78 4.56 28.36 4.81ZM13.09 26.16L20.43 26.16C21.3 26.16 21.99 26.86 21.99 27.73L21.99 40.19C27.03 35.43 31.35 29.96 34.81 23.95L27.74 23.95C26.88 23.95 26.18 23.25 26.18 22.39L26.18 9.92L25.12 10.93C20.43 15.44 16.39 20.57 13.09 26.16Z" fill="#10BB87" fill-opacity="1.000000" fill-rule="evenodd"/>
</svg>
