<svg width="1180.000000" height="304.516113" viewBox="0 0 1180 304.516" fill="none" xmlns="http://www.w3.org/2000/svg" xmlns:xlink="http://www.w3.org/1999/xlink">
	<desc>
			Created with Pixso.
	</desc>
	<defs/>
	<rect id="back" rx="28.000000" width="1178.772095" height="304.516144" fill="#10BB87" fill-opacity="1.000000"/>
	<mask id="mask2_241" mask-type="alpha" maskUnits="userSpaceOnUse" x="1.227905" y="0.000000" width="1178.772095" height="304.516113">
		<rect id="frame" x="1.227905" rx="28.000000" width="1178.772095" height="304.516144" fill="#10BB87" fill-opacity="1.000000"/>
	</mask>
	<g mask="url(#mask2_241)">
		<path id="Icon" d="M1029.21 147.21C1033.41 156.37 1040.9 163.65 1050.19 167.6L1050.23 167.61L1052.03 168.41C1054.31 169.43 1057.01 168.7 1058.48 166.67L1061.48 162.52C1061.66 162.27 1061.61 161.92 1061.37 161.72L1056.13 157.5C1055.87 157.29 1055.49 157.34 1055.29 157.6L1053.25 160.35C1052.76 161.02 1051.87 161.25 1051.11 160.91C1044.15 157.76 1038.56 152.17 1035.41 145.21C1035.06 144.46 1035.3 143.56 1035.97 143.07L1038.72 141.03C1038.99 140.83 1039.04 140.45 1038.82 140.19L1034.6 134.95C1034.4 134.71 1034.05 134.66 1033.8 134.84L1029.63 137.86C1027.57 139.33 1026.86 142.05 1027.9 144.34L1029.21 147.21C1029.21 147.21 1029.21 147.21 1029.21 147.21ZM1048.81 170.84C1038.69 166.55 1030.56 158.63 1026 148.68L1026 148.67L1024.68 145.8C1022.95 141.98 1024.15 137.45 1027.56 134.99L1031.73 131.98C1033.51 130.7 1035.97 131.03 1037.35 132.73L1041.56 137.97C1043.04 139.79 1042.69 142.47 1040.81 143.87L1039.24 145.03C1041.91 150.2 1046.12 154.42 1051.29 157.08L1052.46 155.5C1053.85 153.62 1056.53 153.28 1058.35 154.75L1063.59 158.97C1065.29 160.35 1065.62 162.82 1064.34 164.59L1061.34 168.74C1058.89 172.13 1054.41 173.33 1050.59 171.63L1048.81 170.84Z" fill="#000000" fill-opacity="0.070000" fill-rule="evenodd"/>
		<path id="Icon" d="M956.24 131.66L956.25 131.66L958.62 131.66C959.59 131.66 960.38 132.45 960.38 133.43C960.38 134.4 959.59 135.19 958.62 135.19L958.01 135.19L958.01 147.1C968.48 152.05 970 166.5 960.58 173.48L959.89 174C954.24 178.18 946.52 178.18 940.88 174L940.18 173.48C930.76 166.5 932.28 152.05 942.75 147.1L942.75 135.19L942.14 135.19C941.17 135.19 940.38 134.4 940.38 133.43C940.38 132.45 941.17 131.66 942.14 131.66L944.51 131.66L944.52 131.66L956.24 131.66ZM960.04 152.84L940.72 152.84C941.79 151.72 943.11 150.78 944.67 150.11C945.65 149.69 946.28 148.72 946.28 147.65L946.28 135.19L954.48 135.19L954.48 147.65C954.48 148.72 955.11 149.69 956.09 150.11C957.65 150.78 958.97 151.72 960.04 152.84ZM957.78 171.16C953.39 174.42 947.37 174.42 942.98 171.16L942.28 170.65C937.54 167.13 936.39 161.16 938.41 156.37L962.35 156.37C964.37 161.16 963.22 167.13 958.48 170.65L957.78 171.16ZM952.73 159.31C951.43 159.31 950.38 160.37 950.38 161.67C950.38 162.97 951.43 164.02 952.73 164.02C954.03 164.02 955.09 162.97 955.09 161.67C955.09 160.37 954.03 159.31 952.73 159.31ZM945.67 164.02C944.37 164.02 943.32 165.07 943.32 166.37C943.32 167.67 944.37 168.73 945.67 168.73C946.97 168.73 948.03 167.67 948.03 166.37C948.03 165.07 946.97 164.02 945.67 164.02Z" fill="#000000" fill-opacity="0.070000" fill-rule="evenodd"/>
		<path id="Icon" d="M1054.73 39.56C1047.46 38.75 1039.94 38.75 1032.68 39.56C1028.38 40.04 1024.91 43.43 1024.41 47.75C1023.54 55.18 1023.54 62.69 1024.41 70.12C1024.91 74.44 1028.38 77.83 1032.68 78.31C1039.94 79.12 1047.46 79.12 1054.73 78.31C1059.02 77.83 1062.5 74.44 1063 70.12C1063.87 62.69 1063.87 55.18 1063 47.75C1062.5 43.43 1059.02 40.04 1054.73 39.56ZM1033.06 43.07C1040.07 42.29 1047.32 42.29 1054.32 43.07C1057.03 43.37 1059.18 45.5 1059.49 48.16C1060.32 55.32 1060.32 62.55 1059.49 69.71C1059.18 72.37 1057.03 74.5 1054.32 74.8C1047.32 75.58 1040.07 75.58 1033.06 74.8C1030.38 74.5 1028.23 72.37 1027.91 69.71C1027.07 62.55 1027.07 55.32 1027.91 48.16C1028.23 45.5 1030.38 43.37 1033.06 43.07ZM1043.69 51.87C1045 51.87 1046.06 50.82 1046.06 49.52C1046.06 48.22 1045 47.17 1043.69 47.17C1042.4 47.17 1041.35 48.22 1041.35 49.52C1041.35 50.82 1042.4 51.87 1043.69 51.87ZM1043.69 55.99C1044.68 55.99 1045.47 56.78 1045.47 57.76L1045.47 69.52C1045.47 70.5 1044.68 71.29 1043.69 71.29C1042.73 71.29 1041.93 70.5 1041.93 69.52L1041.93 57.76C1041.93 56.78 1042.73 55.99 1043.69 55.99Z" fill="#000000" fill-opacity="0.070000" fill-rule="evenodd"/>
		<path id="Icon" d="M935.88 53.89C940.09 63.05 947.58 70.33 956.88 74.28L956.91 74.29L958.71 75.09C961 76.11 963.69 75.39 965.15 73.35L968.15 69.2C968.34 68.95 968.29 68.6 968.05 68.4L962.81 64.18C962.55 63.97 962.17 64.02 961.97 64.28L959.93 67.03C959.44 67.7 958.54 67.93 957.78 67.59C950.83 64.44 945.24 58.85 942.09 51.89C941.74 51.14 941.98 50.24 942.64 49.75L945.39 47.71C945.66 47.51 945.71 47.13 945.5 46.87L941.28 41.63C941.08 41.39 940.73 41.34 940.47 41.52L936.3 44.54C934.26 46.01 933.54 48.73 934.58 51.02L935.88 53.89C935.88 53.89 935.88 53.89 935.88 53.89ZM955.49 77.52C945.38 73.23 937.24 65.31 932.67 55.36L932.67 55.35L931.37 52.48C929.63 48.66 930.83 44.13 934.23 41.67L938.41 38.66C940.18 37.38 942.65 37.71 944.02 39.41L948.25 44.65C949.72 46.47 949.38 49.15 947.5 50.55L945.92 51.71C948.58 56.88 952.8 61.1 957.96 63.76L959.13 62.18C960.53 60.3 963.2 59.96 965.03 61.43L970.26 65.65C971.97 67.03 972.3 69.5 971.01 71.27L968.02 75.42C965.57 78.81 961.09 80.01 957.27 78.31L955.49 77.52Z" fill="#000000" fill-opacity="0.070000" fill-rule="evenodd"/>
		<path id="Icon" d="M1329.52 131.66L1329.53 131.66L1331.9 131.66C1332.87 131.66 1333.67 132.45 1333.67 133.43C1333.67 134.4 1332.87 135.19 1331.9 135.19L1331.29 135.19L1331.29 147.16C1331.29 150.59 1332.32 153.93 1334.24 156.76L1341.52 167.46C1343.37 170.18 1341.67 173.89 1338.4 174.26C1328.61 175.36 1318.72 175.36 1308.92 174.26C1305.66 173.89 1303.94 170.18 1305.8 167.46L1313.08 156.76C1315.01 153.93 1316.04 150.59 1316.04 147.16L1316.04 135.19L1315.43 135.19C1314.45 135.19 1313.66 134.4 1313.66 133.43C1313.66 132.45 1314.45 131.66 1315.43 131.66L1317.8 131.66L1317.8 131.66L1329.52 131.66ZM1328.56 152.84L1318.77 152.84C1319.3 151 1319.57 149.09 1319.57 147.16L1319.57 135.19L1327.76 135.19L1327.76 147.16C1327.76 149.09 1328.03 151 1328.56 152.84ZM1338.61 169.45C1338.96 169.97 1338.63 170.68 1338.01 170.75C1328.47 171.82 1318.85 171.82 1309.31 170.75C1308.68 170.68 1308.37 169.97 1308.72 169.45L1316 158.75C1316.52 157.98 1316.98 157.19 1317.39 156.37L1329.93 156.37C1330.34 157.19 1330.81 157.98 1331.32 158.75L1338.61 169.45ZM1326.02 159.31C1324.72 159.31 1323.66 160.37 1323.66 161.67C1323.66 162.97 1324.72 164.02 1326.02 164.02C1327.32 164.02 1328.37 162.97 1328.37 161.67C1328.37 160.37 1327.32 159.31 1326.02 159.31ZM1318.96 164.02C1317.66 164.02 1316.6 165.07 1316.6 166.37C1316.6 167.67 1317.66 168.73 1318.96 168.73C1320.26 168.73 1321.31 167.67 1321.31 166.37C1321.31 165.07 1320.26 164.02 1318.96 164.02Z" fill="#000000" fill-opacity="0.070000" fill-rule="evenodd"/>
		<path id="Icon" d="M1142.88 -54.98L1142.9 -54.98L1145.26 -54.98C1146.24 -54.98 1147.03 -54.19 1147.03 -53.21C1147.03 -52.24 1146.24 -51.45 1145.26 -51.45L1144.65 -51.45L1144.65 -39.54C1155.13 -34.58 1156.64 -20.14 1147.22 -13.16L1146.53 -12.64C1140.88 -8.46 1133.16 -8.46 1127.52 -12.64L1126.81 -13.16C1117.41 -20.14 1118.92 -34.58 1129.4 -39.54L1129.4 -51.45L1128.79 -51.45C1127.81 -51.45 1127.02 -52.24 1127.02 -53.21C1127.02 -54.19 1127.81 -54.98 1128.79 -54.98L1131.15 -54.98L1131.16 -54.98L1142.88 -54.98ZM1146.68 -33.8L1127.37 -33.8C1128.43 -34.92 1129.75 -35.86 1131.31 -36.53C1132.29 -36.95 1132.93 -37.92 1132.93 -38.99L1132.93 -51.45L1141.12 -51.45L1141.12 -38.99C1141.12 -37.92 1141.76 -36.95 1142.74 -36.53C1144.3 -35.86 1145.62 -34.92 1146.68 -33.8ZM1144.43 -15.48C1140.03 -12.22 1134.02 -12.22 1129.62 -15.48L1128.93 -15.99C1124.18 -19.51 1123.03 -25.48 1125.06 -30.27L1148.99 -30.27C1151.01 -25.48 1149.86 -19.51 1145.12 -15.99L1144.43 -15.48ZM1139.38 -27.33C1138.07 -27.33 1137.02 -26.27 1137.02 -24.97C1137.02 -23.67 1138.07 -22.62 1139.38 -22.62C1140.68 -22.62 1141.73 -23.67 1141.73 -24.97C1141.73 -26.27 1140.68 -27.33 1139.38 -27.33ZM1132.31 -22.62C1131.02 -22.62 1129.96 -21.56 1129.96 -20.27C1129.96 -18.97 1131.02 -17.91 1132.31 -17.91C1133.62 -17.91 1134.67 -18.97 1134.67 -20.27C1134.67 -21.56 1133.62 -22.62 1132.31 -22.62Z" fill="#000000" fill-opacity="0.070000" fill-rule="evenodd"/>
		<path id="Icon" d="M1236.19 38.34L1236.21 38.34L1238.57 38.34C1239.56 38.34 1240.35 39.13 1240.35 40.11C1240.35 41.08 1239.56 41.87 1238.57 41.87L1237.97 41.87L1237.97 53.78C1248.44 58.73 1249.96 73.18 1240.54 80.16L1239.85 80.68C1234.19 84.86 1226.48 84.86 1220.84 80.68L1220.14 80.16C1210.73 73.18 1212.24 58.73 1222.72 53.78L1222.72 41.87L1222.11 41.87C1221.13 41.87 1220.34 41.08 1220.34 40.11C1220.34 39.13 1221.13 38.34 1222.11 38.34L1224.47 38.34L1224.48 38.34L1236.19 38.34ZM1240 59.52L1220.68 59.52C1221.75 58.4 1223.06 57.46 1224.63 56.79C1225.61 56.37 1226.25 55.4 1226.25 54.33L1226.25 41.87L1234.43 41.87L1234.43 54.33C1234.43 55.4 1235.06 56.37 1236.06 56.79C1237.62 57.46 1238.93 58.4 1240 59.52ZM1237.75 77.84C1233.35 81.1 1227.34 81.1 1222.93 77.84L1222.25 77.33C1217.5 73.81 1216.35 67.84 1218.38 63.05L1242.31 63.05C1244.32 67.84 1243.18 73.81 1238.43 77.33L1237.75 77.84ZM1232.69 65.99C1231.4 65.99 1230.34 67.05 1230.34 68.35C1230.34 69.65 1231.4 70.7 1232.69 70.7C1234 70.7 1235.05 69.65 1235.05 68.35C1235.05 67.05 1234 65.99 1232.69 65.99ZM1225.64 70.7C1224.34 70.7 1223.28 71.75 1223.28 73.05C1223.28 74.35 1224.34 75.41 1225.64 75.41C1226.93 75.41 1227.99 74.35 1227.99 73.05C1227.99 71.75 1226.93 70.7 1225.64 70.7Z" fill="#000000" fill-opacity="0.070000" fill-rule="evenodd"/>
		<path id="Icon" d="M1241.37 132.88C1234.1 132.07 1226.59 132.07 1219.31 132.88C1215.02 133.36 1211.55 136.75 1211.05 141.07C1210.18 148.5 1210.18 156.01 1211.05 163.44C1211.55 167.76 1215.02 171.15 1219.31 171.63C1226.59 172.44 1234.1 172.44 1241.37 171.63C1245.66 171.15 1249.13 167.76 1249.64 163.44C1250.51 156.01 1250.51 148.5 1249.64 141.07C1249.13 136.75 1245.66 133.36 1241.37 132.88ZM1219.71 136.39C1226.72 135.61 1233.97 135.61 1240.97 136.39C1243.67 136.69 1245.81 138.82 1246.13 141.48C1246.97 148.64 1246.97 155.87 1246.13 163.03C1245.81 165.69 1243.67 167.82 1240.97 168.12C1233.97 168.9 1226.72 168.9 1219.71 168.12C1217.02 167.82 1214.86 165.69 1214.55 163.03C1213.72 155.87 1213.72 148.64 1214.55 141.48C1214.86 138.82 1217.02 136.69 1219.71 136.39ZM1230.34 145.19C1231.64 145.19 1232.69 144.14 1232.69 142.84C1232.69 141.54 1231.64 140.49 1230.34 140.49C1229.04 140.49 1227.99 141.54 1227.99 142.84C1227.99 144.14 1229.04 145.19 1230.34 145.19ZM1230.34 149.31C1231.31 149.31 1232.11 150.1 1232.11 151.08L1232.11 162.84C1232.11 163.82 1231.31 164.61 1230.34 164.61C1229.37 164.61 1228.57 163.82 1228.57 162.84L1228.57 151.08C1228.57 150.1 1229.37 149.31 1230.34 149.31Z" fill="#000000" fill-opacity="0.070000" fill-rule="evenodd"/>
		<path id="Icon" d="M1127.61 134.73C1133.96 134.25 1140.32 134.28 1146.67 134.82L1150.5 135.15C1153.38 135.39 1155.73 137.58 1156.16 140.45L1156.41 142.02C1157.22 147.36 1157.15 152.79 1156.18 158.11C1155.69 160.73 1153.42 162.63 1150.75 162.63L1129.63 162.63C1129.14 162.63 1128.66 162.75 1128.24 162.98L1119.03 167.93C1118.48 168.22 1117.81 168.21 1117.29 167.89C1116.76 167.57 1116.43 167 1116.43 166.37L1116.43 146.33C1116.43 140.26 1121.11 135.22 1127.16 134.76L1127.61 134.73ZM1146.37 138.34C1140.22 137.81 1134.04 137.78 1127.88 138.25L1127.43 138.28C1123.22 138.6 1119.96 142.11 1119.96 146.33L1119.96 163.42L1126.56 159.87C1127.51 159.37 1128.56 159.1 1129.63 159.1L1150.75 159.1C1151.71 159.1 1152.53 158.42 1152.71 157.47C1153.6 152.55 1153.67 147.5 1152.92 142.55L1152.67 140.98C1152.48 139.73 1151.46 138.77 1150.19 138.66L1146.37 138.34ZM1124.67 149.31C1124.67 147.69 1125.99 146.37 1127.61 146.37C1129.23 146.37 1130.55 147.69 1130.55 149.31C1130.55 150.94 1129.23 152.25 1127.61 152.25C1125.99 152.25 1124.67 150.94 1124.67 149.31ZM1134.07 149.31C1134.07 147.69 1135.4 146.37 1137.02 146.37C1138.65 146.37 1139.97 147.69 1139.97 149.31C1139.97 150.94 1138.65 152.25 1137.02 152.25C1135.4 152.25 1134.07 150.94 1134.07 149.31ZM1143.5 149.31C1143.5 147.69 1144.81 146.37 1146.43 146.37C1148.06 146.37 1149.38 147.69 1149.38 149.31C1149.38 150.94 1148.06 152.25 1146.43 152.25C1144.81 152.25 1143.5 150.94 1143.5 149.31Z" fill="#000000" fill-opacity="0.070000" fill-rule="evenodd"/>
		<path id="Icon" d="M1122.53 53.89C1126.73 63.05 1134.22 70.33 1143.52 74.28L1143.55 74.29L1145.35 75.09C1147.64 76.11 1150.32 75.39 1151.8 73.35L1154.8 69.2C1154.98 68.95 1154.93 68.6 1154.68 68.4L1149.44 64.18C1149.18 63.97 1148.81 64.02 1148.61 64.28L1146.56 67.03C1146.07 67.7 1145.18 67.93 1144.43 67.59C1137.47 64.44 1131.88 58.85 1128.73 51.89C1128.39 51.14 1128.62 50.24 1129.29 49.75L1132.04 47.71C1132.31 47.51 1132.35 47.13 1132.14 46.87L1127.92 41.63C1127.72 41.39 1127.37 41.34 1127.12 41.52L1122.93 44.54C1120.9 46.01 1120.18 48.73 1121.22 51.02L1122.53 53.89C1122.53 53.89 1122.53 53.89 1122.53 53.89ZM1142.13 77.52C1132.02 73.23 1123.89 65.31 1119.31 55.36L1119.31 55.35L1118.01 52.48C1116.27 48.66 1117.47 44.13 1120.88 41.67L1125.05 38.66C1126.82 37.38 1129.29 37.71 1130.67 39.41L1134.89 44.65C1136.36 46.47 1136.02 49.15 1134.14 50.55L1132.56 51.71C1135.23 56.88 1139.43 61.1 1144.61 63.76L1145.78 62.18C1147.17 60.3 1149.85 59.96 1151.67 61.43L1156.91 65.65C1158.61 67.03 1158.93 69.5 1157.66 71.27L1154.66 75.42C1152.21 78.81 1147.73 80.01 1143.91 78.31L1142.13 77.52Z" fill="#000000" fill-opacity="0.070000" fill-rule="evenodd"/>
		<path id="Icon" d="M1310.8 38.34C1309.42 38.34 1308.14 39.03 1307.37 40.17L1298.93 52.85C1298.41 53.62 1298.35 54.61 1298.77 55.45C1303.39 64.69 1309.81 72.92 1317.66 79.65L1321.78 83.18C1322.86 84.11 1324.46 84.11 1325.55 83.18L1329.67 79.65C1337.51 72.92 1343.94 64.69 1348.56 55.45C1348.98 54.61 1348.91 53.62 1348.4 52.85L1339.95 40.17C1339.19 39.03 1337.9 38.34 1336.52 38.34L1310.8 38.34ZM1310.31 42.13C1310.42 41.97 1310.6 41.87 1310.8 41.87L1316.31 41.87L1311.8 52.69C1311.7 52.94 1311.62 53.19 1311.57 53.46C1309.91 53.33 1308.25 53.18 1306.6 53.01L1303.29 52.66L1310.31 42.13ZM1303.14 56.19C1307.36 63.94 1312.93 70.87 1319.6 76.66L1312.24 57.04C1310.24 56.9 1308.23 56.73 1306.23 56.52L1303.14 56.19ZM1316.1 57.26L1323.66 77.44L1331.23 57.26C1326.19 57.49 1321.14 57.49 1316.1 57.26ZM1335.08 57.04L1327.73 76.66C1334.39 70.87 1339.97 63.94 1344.19 56.19L1341.09 56.52C1339.09 56.73 1337.09 56.9 1335.08 57.04ZM1344.03 52.66L1340.72 53.01C1339.07 53.18 1337.42 53.33 1335.76 53.46C1335.71 53.19 1335.63 52.94 1335.52 52.69L1331.02 41.87L1336.52 41.87C1336.72 41.87 1336.9 41.97 1337.01 42.13L1344.03 52.66ZM1332.12 53.69C1326.48 53.98 1320.84 53.98 1315.21 53.69L1320.13 41.87L1327.19 41.87L1332.12 53.69Z" fill="#000000" fill-opacity="0.070000" fill-rule="evenodd"/>
		<path id="Icon" d="M1310.13 -49.68C1310.13 -53.91 1313.55 -57.33 1317.78 -57.33C1320.14 -57.33 1322.26 -56.26 1323.66 -54.57C1325.07 -56.26 1327.18 -57.33 1329.55 -57.33C1333.77 -57.33 1337.2 -53.91 1337.2 -49.68C1337.2 -48.17 1336.75 -46.75 1335.99 -45.56L1337.78 -45.56C1341.36 -45.56 1344.26 -42.67 1344.26 -39.09L1344.26 -34.39C1344.26 -32.49 1342.98 -30.9 1341.24 -30.42C1341.58 -26.12 1341.38 -21.79 1340.65 -17.54C1340.22 -14.99 1338.15 -13.05 1335.59 -12.76L1333.44 -12.52C1326.94 -11.8 1320.38 -11.8 1313.89 -12.52L1311.73 -12.76C1309.17 -13.05 1307.11 -14.99 1306.67 -17.54C1305.93 -21.79 1305.75 -26.12 1306.09 -30.42C1304.35 -30.9 1303.06 -32.49 1303.06 -34.39L1303.06 -39.09C1303.06 -42.67 1305.97 -45.56 1309.54 -45.56L1311.33 -45.56C1310.56 -46.75 1310.13 -48.17 1310.13 -49.68ZM1321.9 -49.68C1321.9 -51.96 1320.05 -53.8 1317.78 -53.8C1315.5 -53.8 1313.66 -51.96 1313.66 -49.68C1313.66 -47.41 1315.5 -45.56 1317.78 -45.56C1320.05 -45.56 1321.9 -47.41 1321.9 -49.68ZM1329.55 -45.56C1331.82 -45.56 1333.66 -47.41 1333.66 -49.68C1333.66 -51.96 1331.82 -53.8 1329.55 -53.8C1327.27 -53.8 1325.43 -51.96 1325.43 -49.68C1325.43 -47.41 1327.27 -45.56 1329.55 -45.56ZM1306.6 -39.09C1306.6 -40.72 1307.92 -42.03 1309.54 -42.03L1321.9 -42.03L1321.9 -33.8L1307.18 -33.8C1306.86 -33.8 1306.6 -34.06 1306.6 -34.39L1306.6 -39.09ZM1325.43 -30.27L1337.71 -30.27C1338.04 -26.22 1337.86 -22.14 1337.17 -18.13C1337 -17.14 1336.2 -16.38 1335.2 -16.27L1333.05 -16.03C1330.52 -15.75 1327.97 -15.58 1325.43 -15.53L1325.43 -30.27ZM1325.43 -33.8L1340.14 -33.8C1340.46 -33.8 1340.73 -34.06 1340.73 -34.39L1340.73 -39.09C1340.73 -40.72 1339.41 -42.03 1337.78 -42.03L1325.43 -42.03L1325.43 -33.8ZM1321.9 -30.27L1321.9 -15.53C1319.35 -15.58 1316.81 -15.75 1314.28 -16.03L1312.13 -16.27C1311.13 -16.38 1310.31 -17.14 1310.15 -18.13C1309.46 -22.14 1309.28 -26.22 1309.62 -30.27L1321.9 -30.27Z" fill="#000000" fill-opacity="0.070000" fill-rule="evenodd"/>
		<path id="Icon" d="M1220.93 -51.91C1227.28 -52.39 1233.65 -52.36 1239.99 -51.82L1243.81 -51.49C1246.69 -51.25 1249.04 -49.06 1249.48 -46.19L1249.72 -44.62C1250.54 -39.28 1250.47 -33.85 1249.5 -28.53C1249.02 -25.91 1246.74 -24.01 1244.06 -24.01L1222.94 -24.01C1222.46 -24.01 1221.98 -23.89 1221.56 -23.66L1212.35 -18.71C1211.8 -18.42 1211.14 -18.43 1210.61 -18.75C1210.07 -19.07 1209.75 -19.64 1209.75 -20.26L1209.75 -40.31C1209.75 -46.38 1214.43 -51.42 1220.48 -51.88L1220.93 -51.91ZM1239.68 -48.3C1233.54 -48.83 1227.36 -48.86 1221.19 -48.39L1220.74 -48.36C1216.53 -48.04 1213.28 -44.53 1213.28 -40.31L1213.28 -23.22L1219.88 -26.77C1220.82 -27.27 1221.88 -27.54 1222.94 -27.54L1244.06 -27.54C1245.03 -27.54 1245.85 -28.22 1246.03 -29.17C1246.92 -34.09 1246.99 -39.13 1246.24 -44.08L1245.99 -45.66C1245.8 -46.91 1244.78 -47.87 1243.52 -47.97L1239.68 -48.3ZM1217.99 -37.33C1217.99 -38.95 1219.3 -40.27 1220.93 -40.27C1222.55 -40.27 1223.87 -38.95 1223.87 -37.33C1223.87 -35.7 1222.55 -34.39 1220.93 -34.39C1219.3 -34.39 1217.99 -35.7 1217.99 -37.33ZM1227.4 -37.33C1227.4 -38.95 1228.72 -40.27 1230.34 -40.27C1231.97 -40.27 1233.29 -38.95 1233.29 -37.33C1233.29 -35.7 1231.97 -34.39 1230.34 -34.39C1228.72 -34.39 1227.4 -35.7 1227.4 -37.33ZM1236.81 -37.33C1236.81 -38.95 1238.13 -40.27 1239.76 -40.27C1241.38 -40.27 1242.69 -38.95 1242.69 -37.33C1242.69 -35.7 1241.38 -34.39 1239.76 -34.39C1238.13 -34.39 1236.81 -35.7 1236.81 -37.33Z" fill="#000000" fill-opacity="0.070000" fill-rule="evenodd"/>
		<path id="Icon" d="M930.43 -41.78C931.27 -51.9 939.72 -59.69 949.87 -59.69L950.89 -59.69C961.04 -59.69 969.49 -51.9 970.33 -41.78C970.78 -36.35 969.1 -30.95 965.65 -26.73L954.36 -12.94C952.31 -10.42 948.46 -10.42 946.4 -12.94L935.12 -26.73C931.66 -30.95 929.99 -36.35 930.43 -41.78ZM949.87 -56.16C941.56 -56.16 934.63 -49.78 933.95 -41.49C933.58 -36.97 934.98 -32.48 937.85 -28.97L949.13 -15.17C949.78 -14.38 950.99 -14.38 951.63 -15.17L962.91 -28.97C965.78 -32.48 967.18 -36.97 966.81 -41.49C966.13 -49.78 959.2 -56.16 950.89 -56.16L949.87 -56.16ZM946.26 -40.1C946.26 -42.52 948.15 -44.39 950.38 -44.39C952.61 -44.39 954.5 -42.52 954.5 -40.1C954.5 -38.21 953.33 -36.64 951.75 -36.06C950.37 -35.55 948.62 -34.21 948.62 -32.03C948.62 -31.06 949.41 -30.27 950.38 -30.27C951.36 -30.27 952.15 -31.06 952.15 -32.03C952.15 -32.07 952.16 -32.16 952.29 -32.31C952.43 -32.47 952.67 -32.64 952.96 -32.74C955.94 -33.83 958.03 -36.73 958.03 -40.1C958.03 -44.37 954.65 -47.92 950.38 -47.92C946.11 -47.92 942.73 -44.37 942.73 -40.1C942.73 -39.13 943.52 -38.34 944.5 -38.34C945.47 -38.34 946.26 -39.13 946.26 -40.1ZM952.73 -24.97C952.73 -23.67 951.68 -22.62 950.38 -22.62C949.08 -22.62 948.03 -23.67 948.03 -24.97C948.03 -26.27 949.08 -27.33 950.38 -27.33C951.68 -27.33 952.73 -26.27 952.73 -24.97Z" fill="#000000" fill-opacity="0.070000" fill-rule="evenodd"/>
		<path id="Icon" d="M1026.27 -26.61C1020.98 -39.59 1030.53 -53.8 1044.55 -53.8L1045.31 -53.8C1055.8 -53.8 1064.3 -45.3 1064.3 -34.82C1064.3 -23.14 1054.82 -13.68 1043.16 -13.68L1024.75 -13.68C1024 -13.68 1023.34 -14.15 1023.09 -14.85C1022.84 -15.56 1023.06 -16.35 1023.65 -16.82L1028.29 -20.54C1028.49 -20.71 1028.56 -20.98 1028.46 -21.22L1026.27 -26.61ZM1044.55 -50.27C1033.04 -50.27 1025.18 -38.6 1029.54 -27.94L1031.73 -22.56C1032.42 -20.87 1031.92 -18.93 1030.5 -17.79L1029.77 -17.21L1043.16 -17.21C1052.88 -17.21 1060.77 -25.09 1060.77 -34.82C1060.77 -43.35 1053.85 -50.27 1045.31 -50.27L1044.55 -50.27Z" fill="#000000" fill-opacity="0.070000" fill-rule="evenodd"/>
	</g>
</svg>
