<svg width="16.000000" height="16.000000" viewBox="0 0 16 16" fill="none" xmlns="http://www.w3.org/2000/svg" xmlns:xlink="http://www.w3.org/1999/xlink">
	<desc>
			Created with Pixso.
	</desc>
	<defs/>
	<path id="Icon" d="M12.66 14.5L4 14.5C2.61 14.5 1.5 13.38 1.5 12L1.5 3.29C1.5 2.34 2.57 1.79 3.34 2.34L3.46 2.42C3.98 2.8 4.68 2.79 5.2 2.42C6.07 1.8 7.25 1.8 8.12 2.42C8.64 2.79 9.35 2.8 9.87 2.42L9.98 2.34C10.76 1.79 11.83 2.34 11.83 3.29L11.83 8.5L14 8.5C14.27 8.5 14.5 8.72 14.5 9L14.5 12.66C14.5 13.67 13.67 14.5 12.66 14.5ZM7.54 3.24C7.02 2.86 6.31 2.86 5.79 3.24C4.92 3.86 3.75 3.86 2.88 3.24L2.76 3.15C2.65 3.08 2.5 3.16 2.5 3.29L2.5 12C2.5 12.82 3.17 13.5 4 13.5L11.03 13.5C10.9 13.25 10.83 12.96 10.83 12.66L10.83 3.29C10.83 3.16 10.68 3.08 10.56 3.15L10.45 3.24C9.58 3.86 8.41 3.86 7.54 3.24ZM8.5 6C8.77 6 9 6.22 9 6.5C9 6.77 8.77 7 8.5 7L4.5 7C4.22 7 4 6.77 4 6.5C4 6.22 4.22 6 4.5 6L8.5 6ZM7.83 8C8.1 8 8.33 8.22 8.33 8.5C8.33 8.77 8.1 9 7.83 9L4.5 9C4.22 9 4 8.77 4 8.5C4 8.22 4.22 8 4.5 8L7.83 8ZM11.83 9.5L11.83 12.66C11.83 13.12 12.2 13.5 12.66 13.5C13.12 13.5 13.5 13.12 13.5 12.66L13.5 9.5L11.83 9.5ZM8.5 10C8.77 10 9 10.22 9 10.5C9 10.77 8.77 11 8.5 11L4.5 11C4.22 11 4 10.77 4 10.5C4 10.22 4.22 10 4.5 10L8.5 10Z" fill="#000000" fill-opacity="1.000000" fill-rule="evenodd"/>
</svg>
