<svg width="50.000000" height="50.000000" viewBox="0 0 50 50" fill="none" xmlns="http://www.w3.org/2000/svg" xmlns:xlink="http://www.w3.org/1999/xlink">
	<desc>
			Created with Pixso.
	</desc>
	<defs/>
	<path id="Icon" d="M25.38 42.78C33.17 42.78 39.66 36.81 40.3 29.05C40.64 24.88 39.35 20.74 36.7 17.5L28.05 6.92C26.47 4.99 23.52 4.99 21.94 6.92L13.29 17.5C10.64 20.74 9.35 24.88 9.69 29.05C10.33 36.81 16.82 42.78 24.61 42.78L25.38 42.78ZM37.6 28.83C37.07 35.18 31.76 40.07 25.38 40.07L24.61 40.07C18.23 40.07 12.92 35.18 12.39 28.83C12.11 25.36 13.18 21.91 15.38 19.22L24.04 8.63C24.53 8.03 25.46 8.03 25.96 8.63L34.61 19.22C36.81 21.91 37.88 25.36 37.6 28.83ZM16.53 28.33C16.41 27.6 17.03 26.99 17.77 26.99C18.52 26.99 19.11 27.6 19.28 28.33C19.79 30.49 21.49 32.19 23.65 32.7C24.38 32.87 25 33.46 25 34.21C25 34.95 24.38 35.57 23.65 35.46C19.99 34.88 17.1 31.99 16.53 28.33Z" fill="#10BB87" fill-opacity="1.000000" fill-rule="evenodd"/>
	<path id="Icon (Stroke)" d="M40.5 29.07C39.86 36.94 33.28 42.99 25.38 42.99L24.61 42.99C16.71 42.99 10.13 36.94 9.49 29.07C9.14 24.84 10.44 20.65 13.12 17.37L21.78 6.79C23.44 4.76 26.55 4.76 28.21 6.79L36.87 17.37C39.55 20.65 40.85 24.84 40.5 29.07ZM25.38 42.57C33.06 42.57 39.46 36.68 40.09 29.03C40.43 24.92 39.16 20.83 36.54 17.64L27.89 7.05C26.39 5.22 23.6 5.22 22.1 7.05L13.45 17.64C10.83 20.83 9.56 24.92 9.9 29.03C10.53 36.68 16.93 42.57 24.61 42.57L25.38 42.57ZM25.38 39.87C31.65 39.87 36.87 35.06 37.39 28.81C37.67 25.39 36.62 22 34.45 19.35L25.79 8.77C25.38 8.26 24.61 8.26 24.2 8.77L15.54 19.35C13.37 22 12.32 25.39 12.6 28.81C13.12 35.06 18.34 39.87 24.61 39.87L25.38 39.87ZM37.8 28.84C37.27 35.31 31.87 40.28 25.38 40.28L24.61 40.28C18.12 40.28 12.72 35.31 12.18 28.84C11.89 25.32 12.98 21.82 15.22 19.09L23.87 8.5C24.45 7.79 25.54 7.79 26.12 8.5L34.77 19.09C37.01 21.82 38.1 25.32 37.8 28.84ZM25.2 34.21C25.2 35.06 24.5 35.8 23.61 35.66C19.87 35.07 16.91 32.11 16.32 28.37C16.18 27.48 16.92 26.78 17.77 26.78C18.65 26.78 19.3 27.49 19.48 28.28C19.97 30.37 21.61 32.01 23.7 32.5C24.49 32.68 25.2 33.34 25.2 34.21ZM23.68 35.25C24.27 35.34 24.79 34.85 24.79 34.21C24.79 33.58 24.27 33.06 23.6 32.9C21.37 32.38 19.6 30.62 19.08 28.38C18.92 27.71 18.4 27.19 17.77 27.19C17.13 27.19 16.64 27.71 16.73 28.3C17.29 31.87 20.11 34.69 23.68 35.25Z" fill="#10BB87" fill-opacity="1.000000" fill-rule="evenodd"/>
</svg>
