<svg width="50.000000" height="50.000000" viewBox="0 0 50 50" fill="none" xmlns="http://www.w3.org/2000/svg" xmlns:xlink="http://www.w3.org/1999/xlink">
	<desc>
			Created with Pixso.
	</desc>
	<defs/>
	<path id="Icon (Stroke) (Stroke)" d="M37.57 43.21C29.21 43.92 20.78 43.92 12.42 43.21C11.35 43.12 10.44 42.47 10.1 41.56C9.13 38.93 9.13 36.06 10.1 33.43C10.44 32.52 11.35 31.87 12.42 31.78C20.78 31.07 29.21 31.07 37.57 31.78C38.64 31.87 39.55 32.52 39.89 33.43C40.86 36.06 40.86 38.93 39.89 41.56C39.55 42.47 38.64 43.12 37.57 43.21ZM37.22 40.57C37.92 38.58 37.92 36.41 37.22 34.42C29.09 33.72 20.9 33.72 12.77 34.42C12.07 36.41 12.07 38.58 12.77 40.57C20.9 41.27 29.09 41.27 37.22 40.57Z" fill="#10BB87" fill-opacity="1.000000" fill-rule="evenodd"/>
	<path id="Vector 117 (Stroke)" d="M25.06 2.64C25.92 2.64 26.62 3.34 26.62 4.2L26.62 22.1C26.62 23.21 25.92 24.2 24.87 24.56L8.1 30.38L8.1 35.98L9.34 35.98C10.21 35.98 10.9 36.68 10.9 37.54C10.9 38.41 10.21 39.11 9.34 39.11L7.58 39.11C6.15 39.11 4.98 37.94 4.98 36.5L4.98 30.01C4.98 28.9 5.68 27.92 6.73 27.55L23.5 21.73L23.5 4.2C23.5 3.34 24.2 2.64 25.06 2.64Z" fill="#10BB87" fill-opacity="1.000000" fill-rule="evenodd"/>
</svg>
