<svg width="50.000000" height="50.000000" viewBox="0 0 50 50" fill="none" xmlns="http://www.w3.org/2000/svg" xmlns:xlink="http://www.w3.org/1999/xlink">
	<desc>
			Created with Pixso.
	</desc>
	<defs/>
	<path id="Vector 118 (Stroke)" d="M31.71 5.87C32.73 4.85 34.38 4.85 35.39 5.87L44.12 14.6C45.14 15.61 45.14 17.26 44.12 18.28L39.59 22.81C38.57 23.83 36.92 23.83 35.91 22.81L32.65 19.55L11.34 40.86L9.13 38.65L30.44 17.34L27.18 14.08C26.16 13.07 26.16 11.42 27.18 10.4L31.71 5.87ZM33.55 8.45L29.76 12.24L37.75 20.23L41.54 16.44L33.55 8.45Z" fill="#10BB87" fill-opacity="1.000000" fill-rule="evenodd"/>
	<path id="Vector 119 (Stroke)" d="M21.05 18.93L21.28 18.7C22.3 17.68 22.3 16.03 21.28 15.02L14.17 7.9C13.15 6.89 11.5 6.89 10.49 7.9L7.73 10.66C6.71 11.68 6.71 13.33 7.73 14.34L14.84 21.46C15.86 22.47 17.51 22.47 18.53 21.46L18.84 21.14L35.02 37.31L33.54 31.41L21.05 18.93ZM18.7 16.86L12.33 10.48L10.31 12.5L16.68 18.88L18.7 16.86Z" fill="#10BB87" fill-opacity="1.000000" fill-rule="evenodd"/>
</svg>
