<svg width="394.000000" height="79.000000" viewBox="0 0 394 79" fill="none" xmlns="http://www.w3.org/2000/svg" xmlns:xlink="http://www.w3.org/1999/xlink">
	<desc>
			Created with Pixso.
	</desc>
	<defs/>
	<path id="Форма 1" d="M375.23 79L0.99 79L20.5 39L1.49 0L375.23 0L393.76 39.01L375.23 79Z" fill="#333F70" fill-opacity="1.000000" fill-rule="evenodd"/>
	<path id="2" d="M209.09 56.5L184.2 56.5L184.2 51.17L196.63 39.67C199.8 36.62 201.51 34.71 201.51 31.93C201.51 28.86 199.22 26.95 196.15 26.95C192.97 26.95 190.86 29 190.87 32.34L183.86 32.34C183.85 25.49 188.88 21.1 196.2 21.1C203.69 21.1 208.63 25.38 208.63 31.44C208.63 35.41 206.7 38.68 199.53 45.23L194.43 50.23L194.43 50.46L209.09 50.46L209.09 56.5Z" fill="#FEFEFE" fill-opacity="1.000000" fill-rule="evenodd"/>
</svg>
