<svg width="1920.000000" height="196.000000" viewBox="0 0 1920 196" fill="none" xmlns="http://www.w3.org/2000/svg" xmlns:xlink="http://www.w3.org/1999/xlink">
	<desc>
			Created with Pixso.
	</desc>
	<defs/>
	<rect id="back" width="1920.000000" height="196.000000" fill="#FAFAFA" fill-opacity="1.000000"/>
	<path id="Icon" d="M1490.24 111.94C1485.19 111.38 1479.96 111.38 1474.91 111.94C1471.92 112.27 1469.5 114.62 1469.15 117.63C1468.54 122.78 1468.54 127.99 1469.15 133.15C1469.5 136.15 1471.92 138.5 1474.91 138.84C1479.96 139.4 1485.19 139.4 1490.24 138.84C1493.23 138.5 1495.65 136.15 1496 133.15C1496.6 127.99 1496.6 122.78 1496 117.63C1495.65 114.62 1493.23 112.27 1490.24 111.94ZM1475.18 114.38C1480.05 113.83 1485.1 113.83 1489.97 114.38C1491.84 114.59 1493.34 116.06 1493.56 117.91C1494.14 122.88 1494.14 127.9 1493.56 132.87C1493.34 134.72 1491.84 136.19 1489.97 136.4C1485.1 136.95 1480.05 136.95 1475.18 136.4C1473.3 136.19 1471.8 134.72 1471.59 132.87C1471.01 127.9 1471.01 122.88 1471.59 117.91C1471.8 116.06 1473.3 114.59 1475.18 114.38ZM1482.57 120.49C1483.48 120.49 1484.21 119.76 1484.21 118.85C1484.21 117.95 1483.48 117.22 1482.57 117.22C1481.67 117.22 1480.94 117.95 1480.94 118.85C1480.94 119.76 1481.67 120.49 1482.57 120.49ZM1482.57 123.35C1483.25 123.35 1483.8 123.9 1483.8 124.57L1483.8 132.74C1483.8 133.42 1483.25 133.97 1482.57 133.97C1481.9 133.97 1481.35 133.42 1481.35 132.74L1481.35 124.57C1481.35 123.9 1481.9 123.35 1482.57 123.35Z" fill="#000000" fill-opacity="0.070000" fill-rule="evenodd"/>
	<path id="Icon" d="M1407.56 121.89C1410.49 128.25 1415.7 133.3 1422.17 136.04L1422.19 136.05L1423.44 136.61C1425.04 137.31 1426.91 136.81 1427.93 135.4L1430.01 132.52C1430.14 132.34 1430.11 132.1 1429.94 131.96L1426.3 129.03C1426.12 128.88 1425.85 128.92 1425.71 129.1L1424.29 131.01C1423.95 131.48 1423.33 131.64 1422.8 131.4C1417.96 129.21 1414.07 125.33 1411.88 120.5C1411.64 119.98 1411.8 119.36 1412.27 119.01L1414.18 117.6C1414.37 117.46 1414.4 117.19 1414.25 117.01L1411.32 113.38C1411.18 113.21 1410.93 113.17 1410.76 113.3L1407.85 115.39C1406.43 116.42 1405.93 118.3 1406.66 119.9L1407.56 121.88C1407.56 121.89 1407.56 121.89 1407.56 121.89ZM1421.2 138.29C1414.17 135.31 1408.51 129.82 1405.33 122.91L1405.33 122.9L1404.42 120.91C1403.21 118.25 1404.04 115.11 1406.42 113.41L1409.32 111.31C1410.55 110.43 1412.27 110.66 1413.23 111.84L1416.17 115.47C1417.19 116.74 1416.95 118.6 1415.64 119.57L1414.55 120.38C1416.4 123.96 1419.33 126.89 1422.92 128.74L1423.74 127.64C1424.71 126.34 1426.57 126.1 1427.84 127.12L1431.48 130.05C1432.67 131.01 1432.9 132.72 1432 133.95L1429.92 136.84C1428.22 139.19 1425.1 140.02 1422.44 138.84L1421.2 138.29Z" fill="#000000" fill-opacity="0.070000" fill-rule="evenodd"/>
	<path id="Icon" d="M1551.58 46.31L1551.58 46.31L1553.23 46.31C1553.91 46.31 1554.46 46.85 1554.46 47.53C1554.46 48.21 1553.91 48.76 1553.23 48.76L1552.81 48.76L1552.81 57.03C1560.09 60.46 1561.15 70.49 1554.6 75.34L1554.11 75.7C1550.19 78.6 1544.81 78.6 1540.89 75.7L1540.4 75.34C1533.85 70.49 1534.91 60.46 1542.2 57.03L1542.2 48.76L1541.77 48.76C1541.09 48.76 1540.54 48.21 1540.54 47.53C1540.54 46.85 1541.09 46.31 1541.77 46.31L1543.42 46.31L1543.42 46.31L1551.58 46.31ZM1554.22 61.01L1540.78 61.01C1541.52 60.23 1542.44 59.58 1543.53 59.11C1544.21 58.82 1544.65 58.15 1544.65 57.41L1544.65 48.76L1550.35 48.76L1550.35 57.41C1550.35 58.15 1550.79 58.82 1551.48 59.11C1552.56 59.58 1553.48 60.23 1554.22 61.01ZM1552.65 73.73C1549.59 75.99 1545.41 75.99 1542.35 73.73L1541.87 73.37C1538.57 70.93 1537.77 66.78 1539.17 63.46L1555.83 63.46C1557.23 66.78 1556.43 70.93 1553.13 73.37L1552.65 73.73ZM1549.14 65.5C1548.23 65.5 1547.5 66.24 1547.5 67.14C1547.5 68.04 1548.23 68.77 1549.14 68.77C1550.04 68.77 1550.78 68.04 1550.78 67.14C1550.78 66.24 1550.04 65.5 1549.14 65.5ZM1544.23 68.77C1543.32 68.77 1542.59 69.5 1542.59 70.41C1542.59 71.31 1543.32 72.04 1544.23 72.04C1545.13 72.04 1545.86 71.31 1545.86 70.41C1545.86 69.5 1545.13 68.77 1544.23 68.77Z" fill="#000000" fill-opacity="0.070000" fill-rule="evenodd"/>
	<path id="Icon" d="M1616.5 111.09L1616.51 111.09L1618.16 111.09C1618.83 111.09 1619.38 111.64 1619.38 112.32C1619.38 112.99 1618.83 113.54 1618.16 113.54L1617.73 113.54L1617.73 121.81C1625.02 125.25 1626.07 135.28 1619.52 140.13L1619.04 140.48C1615.11 143.39 1609.74 143.39 1605.81 140.48L1605.33 140.13C1598.78 135.28 1599.83 125.25 1607.12 121.81L1607.12 113.54L1606.7 113.54C1606.02 113.54 1605.47 112.99 1605.47 112.32C1605.47 111.64 1606.02 111.09 1606.7 111.09L1608.34 111.09L1608.35 111.09L1616.5 111.09ZM1619.14 125.8L1605.71 125.8C1606.45 125.02 1607.37 124.37 1608.45 123.9C1609.13 123.61 1609.58 122.94 1609.58 122.19L1609.58 113.54L1615.28 113.54L1615.28 122.19C1615.28 122.94 1615.72 123.61 1616.4 123.9C1617.49 124.37 1618.4 125.02 1619.14 125.8ZM1617.58 138.52C1614.52 140.78 1610.33 140.78 1607.28 138.52L1606.79 138.16C1603.49 135.72 1602.69 131.57 1604.1 128.25L1620.75 128.25C1622.16 131.57 1621.36 135.72 1618.06 138.16L1617.58 138.52ZM1614.06 130.29C1613.16 130.29 1612.43 131.02 1612.43 131.92C1612.43 132.83 1613.16 133.56 1614.06 133.56C1614.97 133.56 1615.7 132.83 1615.7 131.92C1615.7 131.02 1614.97 130.29 1614.06 130.29ZM1609.15 133.56C1608.25 133.56 1607.51 134.29 1607.51 135.19C1607.51 136.09 1608.25 136.83 1609.15 136.83C1610.06 136.83 1610.79 136.09 1610.79 135.19C1610.79 134.29 1610.06 133.56 1609.15 133.56Z" fill="#000000" fill-opacity="0.070000" fill-rule="evenodd"/>
	<path id="Icon" d="M1537.42 121.89C1540.34 128.25 1545.55 133.3 1552.02 136.04L1552.04 136.05L1553.29 136.61C1554.89 137.31 1556.76 136.81 1557.78 135.4L1559.87 132.52C1559.99 132.34 1559.96 132.1 1559.79 131.96L1556.15 129.03C1555.97 128.88 1555.7 128.92 1555.56 129.1L1554.14 131.01C1553.8 131.48 1553.18 131.64 1552.65 131.4C1547.81 129.21 1543.92 125.33 1541.73 120.5C1541.49 119.98 1541.65 119.36 1542.12 119.01L1544.03 117.6C1544.22 117.46 1544.25 117.19 1544.11 117.01L1541.17 113.38C1541.03 113.21 1540.79 113.17 1540.61 113.3L1537.71 115.39C1536.28 116.42 1535.78 118.3 1536.51 119.9L1537.41 121.88C1537.41 121.89 1537.41 121.89 1537.42 121.89ZM1551.05 138.29C1544.02 135.31 1538.36 129.82 1535.18 122.91L1535.18 122.9L1534.27 120.91C1533.06 118.25 1533.9 115.11 1536.27 113.41L1539.17 111.31C1540.41 110.43 1542.12 110.66 1543.08 111.84L1546.02 115.47C1547.04 116.74 1546.8 118.6 1545.49 119.57L1544.4 120.38C1546.25 123.96 1549.18 126.89 1552.78 128.74L1553.59 127.64C1554.56 126.34 1556.42 126.1 1557.69 127.12L1561.33 130.05C1562.52 131.01 1562.75 132.72 1561.86 133.95L1559.77 136.84C1558.07 139.19 1554.95 140.02 1552.29 138.84L1551.05 138.29Z" fill="#000000" fill-opacity="0.070000" fill-rule="evenodd"/>
	<path id="Icon" d="M1668.4 111.09C1667.45 111.09 1666.55 111.57 1666.02 112.37L1660.14 121.16C1659.78 121.7 1659.74 122.39 1660.03 122.97C1663.25 129.39 1667.71 135.1 1673.17 139.77L1676.04 142.22C1676.79 142.87 1677.91 142.87 1678.66 142.22L1681.53 139.77C1686.99 135.1 1691.46 129.39 1694.67 122.97C1694.96 122.39 1694.92 121.7 1694.56 121.16L1688.68 112.37C1688.15 111.57 1687.26 111.09 1686.3 111.09L1668.4 111.09ZM1668.06 113.73C1668.14 113.61 1668.27 113.54 1668.4 113.54L1672.23 113.54L1669.1 121.05C1669.03 121.23 1668.97 121.4 1668.94 121.59C1667.78 121.5 1666.63 121.4 1665.48 121.28L1663.18 121.03L1668.06 113.73ZM1663.07 123.49C1666.01 128.86 1669.89 133.67 1674.52 137.69L1669.41 124.08C1668.01 123.98 1666.62 123.86 1665.22 123.71L1663.07 123.49ZM1672.09 124.23L1677.35 138.24L1682.62 124.23C1679.11 124.39 1675.59 124.39 1672.09 124.23ZM1685.3 124.08L1680.18 137.69C1684.82 133.67 1688.7 128.86 1691.63 123.49L1689.48 123.71C1688.09 123.86 1686.69 123.98 1685.3 124.08ZM1691.52 121.03L1689.22 121.28C1688.07 121.4 1686.92 121.5 1685.77 121.59C1685.73 121.4 1685.68 121.23 1685.6 121.05L1682.47 113.54L1686.3 113.54C1686.44 113.54 1686.56 113.61 1686.64 113.73L1691.52 121.03ZM1683.23 121.75C1679.31 121.95 1675.39 121.95 1671.47 121.75L1674.9 113.54L1679.81 113.54L1683.23 121.75Z" fill="#000000" fill-opacity="0.070000" fill-rule="evenodd"/>
	<path id="Icon" d="M1667.94 49.98C1667.94 47.05 1670.32 44.67 1673.26 44.67C1674.9 44.67 1676.38 45.42 1677.35 46.59C1678.33 45.42 1679.8 44.67 1681.45 44.67C1684.38 44.67 1686.77 47.05 1686.77 49.98C1686.77 51.03 1686.46 52.02 1685.93 52.84L1687.18 52.84C1689.66 52.84 1691.68 54.85 1691.68 57.33L1691.68 60.6C1691.68 61.92 1690.79 63.02 1689.58 63.36C1689.82 66.34 1689.68 69.35 1689.17 72.3C1688.87 74.06 1687.43 75.42 1685.65 75.61L1684.15 75.78C1679.63 76.29 1675.07 76.29 1670.55 75.78L1669.05 75.61C1667.27 75.42 1665.83 74.06 1665.53 72.3C1665.02 69.35 1664.89 66.34 1665.12 63.36C1663.91 63.02 1663.02 61.92 1663.02 60.6L1663.02 57.33C1663.02 54.85 1665.04 52.84 1667.53 52.84L1668.77 52.84C1668.24 52.02 1667.94 51.03 1667.94 49.98ZM1676.12 49.98C1676.12 48.4 1674.84 47.12 1673.26 47.12C1671.68 47.12 1670.39 48.4 1670.39 49.98C1670.39 51.56 1671.68 52.84 1673.26 52.84C1674.84 52.84 1676.12 51.56 1676.12 49.98ZM1681.45 52.84C1683.03 52.84 1684.31 51.56 1684.31 49.98C1684.31 48.4 1683.03 47.12 1681.45 47.12C1679.86 47.12 1678.58 48.4 1678.58 49.98C1678.58 51.56 1679.86 52.84 1681.45 52.84ZM1665.48 57.33C1665.48 56.21 1666.4 55.29 1667.53 55.29L1676.12 55.29L1676.12 61.01L1665.89 61.01C1665.66 61.01 1665.48 60.83 1665.48 60.6L1665.48 57.33ZM1678.58 63.46L1687.12 63.46C1687.35 66.27 1687.23 69.1 1686.75 71.89C1686.63 72.57 1686.07 73.1 1685.38 73.18L1683.88 73.35C1682.12 73.54 1680.35 73.66 1678.58 73.7L1678.58 63.46ZM1678.58 61.01L1688.81 61.01C1689.04 61.01 1689.22 60.83 1689.22 60.6L1689.22 57.33C1689.22 56.21 1688.31 55.29 1687.18 55.29L1678.58 55.29L1678.58 61.01ZM1676.12 63.46L1676.12 73.7C1674.35 73.66 1672.58 73.54 1670.82 73.35L1669.32 73.18C1668.63 73.1 1668.07 72.57 1667.95 71.89C1667.47 69.1 1667.35 66.27 1667.58 63.46L1676.12 63.46Z" fill="#000000" fill-opacity="0.070000" fill-rule="evenodd"/>
	<path id="Icon" d="M1605.88 48.43C1610.29 48.1 1614.73 48.12 1619.14 48.5L1621.8 48.73C1623.81 48.9 1625.44 50.42 1625.74 52.41L1625.91 53.5C1626.48 57.2 1626.43 60.98 1625.75 64.66C1625.42 66.48 1623.83 67.81 1621.98 67.81L1607.28 67.81C1606.94 67.81 1606.61 67.89 1606.31 68.05L1599.91 71.48C1599.53 71.69 1599.07 71.68 1598.7 71.46C1598.33 71.24 1598.1 70.84 1598.1 70.4L1598.1 56.49C1598.1 52.28 1601.35 48.77 1605.56 48.46L1605.88 48.43ZM1618.93 50.94C1614.65 50.58 1610.35 50.56 1606.06 50.88L1605.75 50.9C1602.82 51.12 1600.55 53.56 1600.55 56.49L1600.55 68.36L1605.15 65.89C1605.8 65.54 1606.54 65.36 1607.28 65.36L1621.98 65.36C1622.65 65.36 1623.22 64.88 1623.34 64.23C1623.96 60.81 1624.01 57.31 1623.48 53.87L1623.31 52.78C1623.18 51.91 1622.47 51.24 1621.59 51.17L1618.93 50.94ZM1603.83 58.56C1603.83 57.43 1604.75 56.52 1605.88 56.52C1607.01 56.52 1607.92 57.43 1607.92 58.56C1607.92 59.69 1607.01 60.6 1605.88 60.6C1604.75 60.6 1603.83 59.69 1603.83 58.56ZM1610.38 58.56C1610.38 57.43 1611.29 56.52 1612.43 56.52C1613.56 56.52 1614.47 57.43 1614.47 58.56C1614.47 59.69 1613.56 60.6 1612.43 60.6C1611.29 60.6 1610.38 59.69 1610.38 58.56ZM1616.93 58.56C1616.93 57.43 1617.84 56.52 1618.98 56.52C1620.11 56.52 1621.02 57.43 1621.02 58.56C1621.02 59.69 1620.11 60.6 1618.98 60.6C1617.84 60.6 1616.93 59.69 1616.93 58.56Z" fill="#000000" fill-opacity="0.070000" fill-rule="evenodd"/>
	<path id="Icon" d="M1403.77 55.47C1404.35 48.44 1410.23 43.04 1417.29 43.04L1418 43.04C1425.06 43.04 1430.95 48.44 1431.53 55.47C1431.84 59.24 1430.67 62.99 1428.27 65.92L1420.42 75.49C1418.99 77.24 1416.31 77.24 1414.88 75.49L1407.03 65.92C1404.63 62.99 1403.46 59.24 1403.77 55.47ZM1417.29 45.49C1411.51 45.49 1406.69 49.92 1406.22 55.67C1405.96 58.81 1406.93 61.93 1408.93 64.36L1416.78 73.94C1417.23 74.49 1418.07 74.49 1418.52 73.94L1426.37 64.36C1428.37 61.93 1429.34 58.81 1429.08 55.67C1428.6 49.92 1423.79 45.49 1418 45.49L1417.29 45.49ZM1414.78 56.63C1414.78 54.96 1416.1 53.66 1417.65 53.66C1419.2 53.66 1420.51 54.96 1420.51 56.63C1420.51 57.95 1419.7 59.04 1418.6 59.44C1417.64 59.79 1416.42 60.73 1416.42 62.24C1416.42 62.91 1416.97 63.46 1417.65 63.46C1418.33 63.46 1418.88 62.91 1418.88 62.24C1418.88 62.21 1418.88 62.15 1418.98 62.04C1419.08 61.93 1419.24 61.82 1419.45 61.74C1421.52 60.99 1422.97 58.97 1422.97 56.63C1422.97 53.67 1420.62 51.21 1417.65 51.21C1414.68 51.21 1412.33 53.67 1412.33 56.63C1412.33 57.31 1412.88 57.86 1413.55 57.86C1414.23 57.86 1414.78 57.31 1414.78 56.63ZM1419.29 67.14C1419.29 68.04 1418.55 68.77 1417.65 68.77C1416.74 68.77 1416.01 68.04 1416.01 67.14C1416.01 66.23 1416.74 65.5 1417.65 65.5C1418.55 65.5 1419.29 66.23 1419.29 67.14Z" fill="#000000" fill-opacity="0.070000" fill-rule="evenodd"/>
	<path id="Icon" d="M1470.44 66C1466.76 56.99 1473.41 47.12 1483.17 47.12L1483.69 47.12C1490.99 47.12 1496.9 53.02 1496.9 60.3C1496.9 68.41 1490.32 74.98 1482.19 74.98L1469.39 74.98C1468.87 74.98 1468.4 74.65 1468.23 74.16C1468.06 73.67 1468.21 73.12 1468.62 72.8L1471.85 70.21C1471.99 70.1 1472.04 69.91 1471.97 69.74L1470.44 66ZM1483.17 49.57C1475.15 49.57 1469.7 57.67 1472.72 65.08L1474.25 68.81C1474.72 69.99 1474.37 71.33 1473.39 72.12L1472.88 72.53L1482.19 72.53C1488.96 72.53 1494.45 67.06 1494.45 60.3C1494.45 54.38 1489.63 49.57 1483.69 49.57L1483.17 49.57Z" fill="#000000" fill-opacity="0.070000" fill-rule="evenodd"/>
</svg>
