<svg width="192.000000" height="192.000000" viewBox="0 0 192 192" fill="none" xmlns="http://www.w3.org/2000/svg" xmlns:xlink="http://www.w3.org/1999/xlink">
	<desc>
			Created with Pixso.
	</desc>
	<defs>
		<clipPath id="clip2_3876">
			<rect id="Kotofey 1" width="192.000000" height="192.000000" fill="white" fill-opacity="0"/>
		</clipPath>
	</defs>
	<rect id="Rectangle 3997" rx="24.000000" width="192.000000" height="192.000000" fill="#F2F2F2" fill-opacity="1.000000"/>
	<rect id="Kotofey 1" width="192.000000" height="192.000000" fill="#FFFFFF" fill-opacity="0"/>
	<g clip-path="url(#clip2_3876)">
		<path id="Fill-1" d="M56.01 76.79L54.71 80.34L72.68 80.34L73.98 76.79L56.01 76.79ZM54.06 82.11L52.76 85.67L70.74 85.67L72.04 82.11L54.06 82.11ZM52.12 87.44L50.82 91L68.8 91L70.09 87.44L52.12 87.44Z" fill="#009FDF" fill-opacity="1.000000" fill-rule="evenodd"/>
		<mask id="mask2_3882" mask-type="alpha" maskUnits="userSpaceOnUse" x="77.794922" y="82.187500" width="49.206055" height="21.765137">
			<path id="Vector" d="M77.79 103.95L127 103.95L127 82.18L77.79 82.18L77.79 103.95Z" fill="#FFFFFF" fill-opacity="1.000000" fill-rule="nonzero"/>
		</mask>
		<g mask="url(#mask2_3882)">
			<path id="Fill-2" d="M89.04 92.35L89.04 92.42C89.86 92.73 90.64 93.25 91.05 93.59C92.32 94.65 92.88 96.04 92.88 97.85C92.88 100.82 91.31 102.97 88.74 103.65C87.95 103.87 87.13 103.95 85.6 103.95L77.79 103.95L77.79 82.18L84.7 82.18C86.12 82.18 87.09 82.26 87.95 82.48C90.46 83.16 92.1 84.89 92.1 87.64C92.1 89.11 91.58 90.35 90.72 91.18C90.34 91.56 89.82 92.01 89.04 92.35ZM82.12 94.65L82.12 100.37L85.11 100.37C86.01 100.37 86.83 100.3 87.43 99.73C88.03 99.16 88.29 98.45 88.29 97.51C88.29 96.79 88.1 96.12 87.73 95.63C87.09 94.83 86.31 94.65 84.96 94.65L82.12 94.65ZM82.09 90.88L84.51 90.88C85.26 90.88 85.64 90.88 86.01 90.77C87.02 90.47 87.65 89.56 87.65 88.32C87.65 86.85 86.98 86.21 86.01 85.91C85.6 85.8 85.19 85.76 84.37 85.76L82.09 85.76L82.09 90.88ZM99.38 103.95L99.38 85.83L93.15 85.83L93.15 82.18L110.48 82.18L109.25 85.83L103.72 85.83L103.72 103.95L99.38 103.95ZM111.83 103.95L111.83 82.18L125.88 82.18L124.64 85.83L116.12 85.83L116.12 90.65L119.6 90.65C122.4 90.65 123.86 91.33 124.87 92.2C125.65 92.88 127 94.38 127 97.36C127 100.3 125.61 101.91 124.46 102.74C123.11 103.68 121.69 103.95 118.81 103.95L111.83 103.95ZM116.12 100.3L119.38 100.3C120.61 100.3 121.35 99.99 121.88 99.32C122.14 98.98 122.51 98.37 122.51 97.24C122.51 96.12 122.14 95.32 121.39 94.76C120.94 94.42 120.35 94.23 119.34 94.23L116.12 94.23L116.12 100.3Z" fill="#0A2973" fill-opacity="1.000000" fill-rule="evenodd"/>
		</g>
	</g>
</svg>
