<svg width="192.000000" height="192.000000" viewBox="0 0 192 192" fill="none" xmlns="http://www.w3.org/2000/svg" xmlns:xlink="http://www.w3.org/1999/xlink">
	<desc>
			Created with Pixso.
	</desc>
	<defs>
		<clipPath id="clip2_3900">
			<rect id="Kotofey 1" width="192.000000" height="192.000000" fill="white" fill-opacity="0"/>
		</clipPath>
	</defs>
	<rect id="Rectangle 3997" rx="24.000000" width="192.000000" height="192.000000" fill="#F2F2F2" fill-opacity="1.000000"/>
	<rect id="Kotofey 1" width="192.000000" height="192.000000" fill="#FFFFFF" fill-opacity="0"/>
	<g clip-path="url(#clip2_3900)">
		<path id="Vector" d="M59.29 118.22L132.01 118.22L95.84 82.05L59.29 118.22Z" fill="#7BB51C" fill-opacity="1.000000" fill-rule="nonzero"/>
		<path id="Vector" d="M57.9 116.44L63.56 110.91L61.68 108.98L58.12 112.45L51.85 106.02L49.74 108.08L57.9 116.44Z" fill="#000000" fill-opacity="1.000000" fill-rule="nonzero"/>
		<path id="Vector" d="M64.81 109.65L70.61 103.99L69.02 102.35L65.33 105.95L63.56 104.13L66.52 101.25L64.85 99.54L61.89 102.42L60.38 100.87L63.94 97.39L62.35 95.76L56.56 101.41L64.81 109.65Z" fill="#000000" fill-opacity="1.000000" fill-rule="nonzero"/>
		<path id="Vector" d="M83.81 82.8C81.47 80.4 77.4 80.68 75.45 82.59C73.49 84.5 72.49 88.31 75.26 91.14C78.29 94.25 81.9 93.12 83.86 91.21C86.74 88.4 85.72 84.75 83.81 82.8ZM82.09 89.57C80.79 90.83 79.21 90.49 77.4 88.63C75.88 87.08 75.97 85.51 77.08 84.43C77.84 83.69 79.38 83.03 81.22 84.91C83.31 87.06 83.38 88.3 82.09 89.57Z" fill="#000000" fill-opacity="1.000000" fill-rule="nonzero"/>
		<path id="Vector" d="M90.34 84.79L92.48 82.7L89.26 79.4L87.33 71.37L84.87 73.77L86.15 78.32L81.84 76.73L79.52 78.99L86.88 81.35L90.34 84.79Z" fill="#000000" fill-opacity="1.000000" fill-rule="nonzero"/>
		<path id="Vector" d="M78.92 95.94C78.92 95.94 73.71 94.16 73.46 94.21C73.38 94.22 74.58 91.03 71.88 89.61C71.88 89.61 69.88 88.53 67.88 90.35L63.61 94.55L71.84 102.84L74.02 100.71L69.56 96.15L76.76 98.05L78.92 95.94ZM70.85 94.81C69.64 95.98 69.47 96.08 69.47 96.08C69.47 96.08 67.58 94.13 67.51 94.06C67.44 94 68.87 92.78 69.09 92.56C69.19 92.46 70.07 91.89 70.8 92.64C70.8 92.64 72.05 93.63 70.85 94.81Z" fill="#000000" fill-opacity="1.000000" fill-rule="nonzero"/>
		<path id="Vector" d="M89.67 72.95L87.77 71.04L96.08 62.79L98.8 65.54L95.8 71.43L101.91 68.67L104.52 71.31L96.21 79.55L94.21 77.53L98.59 73.18L92.59 75.9L91.35 74.65L94.14 68.66L89.67 72.95Z" fill="#000000" fill-opacity="1.000000" fill-rule="nonzero"/>
		<path id="Vector" d="M104.1 87.5L98.34 81.69L106.65 73.45L112.43 79.28L110.75 80.94L107.13 77.29L105.77 78.63L108.63 81.51L106.88 83.25L104.04 80.38L102.23 82.19L105.81 85.8L104.1 87.5Z" fill="#000000" fill-opacity="1.000000" fill-rule="nonzero"/>
		<path id="Vector" d="M123.1 90.04L125.24 92.2L118.95 98.43L122.47 101.98L120.45 103.98L114.79 98.28L123.1 90.04Z" fill="#000000" fill-opacity="1.000000" fill-rule="nonzero"/>
		<path id="Vector" d="M121.94 105.49L130.25 97.25L132.34 99.36L124.03 107.6L121.94 105.49Z" fill="#000000" fill-opacity="1.000000" fill-rule="nonzero"/>
		<path id="Vector" d="M127.82 111.42L125.87 109.45L134.18 101.21L137.02 104.07L134.59 112.63L140.09 107.17L142 109.09L133.69 117.33L131.2 114.83L133.34 105.85L127.82 111.42Z" fill="#000000" fill-opacity="1.000000" fill-rule="nonzero"/>
		<path id="Vector" d="M119.34 86.25L114.3 81.16L105.97 89.39L108.11 91.54L112.65 87.04L111.02 94.47L113.21 96.68C113.21 96.68 114.94 91.37 114.99 91.15C114.99 91.15 116.86 92.18 118.92 90.41C118.92 90.41 120.89 88.49 119.34 86.25ZM116.26 88.66C116.26 88.66 115.2 89.37 114.27 88.43L112.81 86.89C112.81 86.89 114.57 85.14 114.79 84.92C114.79 84.92 116.15 86.29 116.32 86.46C116.49 86.63 117.56 87.44 116.26 88.66Z" fill="#000000" fill-opacity="1.000000" fill-rule="nonzero"/>
	</g>
</svg>
