<svg width="16.000000" height="16.000000" viewBox="0 0 16 16" fill="none" xmlns="http://www.w3.org/2000/svg" xmlns:xlink="http://www.w3.org/1999/xlink">
	<desc>
			Created with Pixso.
	</desc>
	<defs/>
	<path id="Icon" d="M14.23 4.23C14.41 4.06 14.43 3.8 14.3 3.61C14.28 3.58 14.26 3.55 14.23 3.53L12.35 1.64C12.25 1.55 12.13 1.5 12 1.5C11.94 1.5 11.88 1.5 11.83 1.52C11.76 1.55 11.7 1.59 11.64 1.64L5.49 7.79C5.44 7.85 5.4 7.92 5.38 8L4.72 10.55C4.67 10.72 4.72 10.9 4.85 11.03C4.91 11.09 4.99 11.14 5.08 11.16C5.16 11.18 5.24 11.18 5.33 11.16L7.88 10.49C7.96 10.47 8.04 10.43 8.11 10.36L14.23 4.23ZM13.26 6.74C13.33 8.31 13.27 9.88 13.09 11.44C12.99 12.31 12.28 13.01 11.39 13.11C9.15 13.36 6.84 13.36 4.6 13.11C3.71 13.01 3 12.31 2.9 11.44C2.63 9.15 2.63 6.84 2.9 4.55C3 3.68 3.71 2.98 4.6 2.88C6.06 2.71 7.56 2.66 9.04 2.71C9.11 2.71 9.19 2.68 9.24 2.63L9.9 1.97C9.98 1.89 9.93 1.75 9.82 1.74C8.04 1.64 6.24 1.69 4.49 1.88C3.15 2.03 2.07 3.09 1.91 4.44C1.63 6.8 1.63 9.19 1.91 11.55C2.07 12.9 3.15 13.96 4.49 14.11C6.8 14.36 9.19 14.36 11.5 14.11C12.84 13.96 13.92 12.9 14.08 11.55C14.3 9.7 14.35 7.83 14.22 5.97C14.22 5.86 14.08 5.81 14 5.89L13.34 6.54C13.29 6.59 13.26 6.67 13.26 6.74ZM12 2.7L13.17 3.88L7.49 9.56L5.9 9.98L6.32 8.38L12 2.7Z" fill="#000000" fill-opacity="1.000000" fill-rule="evenodd"/>
</svg>
