<svg width="50.000000" height="50.000000" viewBox="0 0 50 50" fill="none" xmlns="http://www.w3.org/2000/svg" xmlns:xlink="http://www.w3.org/1999/xlink">
	<desc>
			Created with Pixso.
	</desc>
	<defs/>
	<path id="Vector 114 (Stroke)" d="M25 4.68C25.86 4.68 26.56 5.38 26.56 6.25L26.56 29.16C26.56 30.02 25.86 30.72 25 30.72C24.13 30.72 23.43 30.02 23.43 29.16L23.43 6.25C23.43 5.38 24.13 4.68 25 4.68Z" fill="#10BB87" fill-opacity="1.000000" fill-rule="evenodd"/>
	<path id="Ellipse 3" d="M26.56 34.89C26.56 35.75 25.86 36.45 25 36.45C24.13 36.45 23.43 35.75 23.43 34.89C23.43 34.03 24.13 33.33 25 33.33C25.86 33.33 26.56 34.03 26.56 34.89Z" fill="#10BB87" fill-opacity="1.000000" fill-rule="nonzero"/>
	<path id="Vector 115 (Stroke)" d="M11.39 23.89C12 23.28 12.99 23.28 13.6 23.89L19.85 30.14C20.46 30.75 20.46 31.74 19.85 32.35C19.24 32.96 18.25 32.96 17.64 32.35L11.39 26.1C10.78 25.49 10.78 24.5 11.39 23.89ZM38.6 23.89C39.21 24.5 39.21 25.49 38.6 26.1L32.35 32.35C31.74 32.96 30.75 32.96 30.14 32.35C29.53 31.74 29.53 30.75 30.14 30.14L36.39 23.89C37 23.28 37.99 23.28 38.6 23.89ZM8.85 37.5C8.85 36.63 9.55 35.93 10.41 35.93L18.74 35.93C19.61 35.93 20.31 36.63 20.31 37.5C20.31 38.36 19.61 39.06 18.74 39.06L10.41 39.06C9.55 39.06 8.85 38.36 8.85 37.5ZM39.58 39.06L31.24 39.06C30.38 39.06 29.68 38.36 29.68 37.5C29.68 36.63 30.38 35.93 31.24 35.93L39.58 35.93C40.44 35.93 41.14 36.63 41.14 37.5C41.14 38.36 40.44 39.06 39.58 39.06Z" fill="#10BB87" fill-opacity="1.000000" fill-rule="evenodd"/>
	<path id="Vector 116 (Stroke)" d="M25 40.1C25.86 40.1 26.56 40.8 26.56 41.66L26.56 43.75C26.56 44.61 25.86 45.31 25 45.31C24.13 45.31 23.43 44.61 23.43 43.75L23.43 41.66C23.43 40.8 24.13 40.1 25 40.1Z" fill="#10BB87" fill-opacity="1.000000" fill-rule="evenodd"/>
</svg>
