<svg width="118.588379" height="118.661011" viewBox="0 0 118.588 118.661" fill="none" xmlns="http://www.w3.org/2000/svg" xmlns:xlink="http://www.w3.org/1999/xlink">
	<desc>
			Created with Pixso.
	</desc>
	<defs/>
	<rect id="back" x="0.000122" rx="21.000000" width="118.588242" height="118.660957" fill="#F2F2F2" fill-opacity="1.000000"/>
	<path id="Icon" d="M53.26 34.7C53.26 33.6 54.15 32.71 55.25 32.71L65.88 32.71C66.98 32.71 67.87 33.6 67.87 34.7L67.87 36.7L77.17 36.7C78.27 36.7 79.17 37.59 79.17 38.69C79.17 39.79 78.27 40.69 77.17 40.69L43.96 40.69C42.86 40.69 41.96 39.79 41.96 38.69C41.96 37.59 42.86 36.7 43.96 36.7L53.26 36.7L53.26 34.7ZM46.58 46C45.56 46 44.71 46.77 44.6 47.78L44.07 52.57C43.1 61.25 43.1 70.01 44.07 78.7L44.12 79.17C44.5 82.61 47.17 85.36 50.6 85.84C57.21 86.77 63.92 86.77 70.53 85.84C73.96 85.36 76.63 82.61 77.01 79.17L77.06 78.7C78.03 70.01 78.03 61.25 77.06 52.57L76.53 47.78C76.42 46.77 75.57 46 74.55 46L46.58 46ZM48.03 53.01L48.36 49.99L72.77 49.99L73.1 53.01C74.03 61.4 74.03 69.87 73.1 78.26L73.05 78.73C72.87 80.36 71.6 81.67 69.97 81.89C63.73 82.77 57.4 82.77 51.15 81.89C49.53 81.67 48.26 80.36 48.08 78.73L48.03 78.26C47.1 69.87 47.1 61.4 48.03 53.01Z" fill="#10BB87" fill-opacity="1.000000" fill-rule="evenodd"/>
</svg>
