<svg width="118.588379" height="118.661011" viewBox="0 0 118.588 118.661" fill="none" xmlns="http://www.w3.org/2000/svg" xmlns:xlink="http://www.w3.org/1999/xlink">
	<desc>
			Created with Pixso.
	</desc>
	<defs/>
	<rect id="back" x="0.000122" rx="21.000000" width="118.588242" height="118.660957" fill="#F2F2F2" fill-opacity="1.000000"/>
	<path id="Icon" d="M78.5 55.63L78.49 56.28L78.5 56.96L78.49 57.61L78.5 58.29L78.49 58.95L78.5 59.62L78.07 78.51C77.97 82.99 74.56 86.7 70.11 87.19C63.77 87.87 57.36 87.87 51.02 87.19C46.57 86.7 43.16 82.99 43.06 78.51L42.63 59.62L42.64 58.94L42.63 58.29L42.64 57.61L42.63 56.96L42.64 56.28L42.63 55.63L43.06 39.42C43.07 39.19 43.08 38.97 43.11 38.75L43.12 38.66L43.13 38.58C43.34 36.39 44.56 34.48 46.32 33.33C46.46 33.24 46.59 33.16 46.73 33.08C46.86 33 47 32.92 47.14 32.85C48.01 32.39 48.98 32.1 50.01 32C57.03 31.36 64.1 31.36 71.12 32C72.15 32.1 73.12 32.39 73.98 32.85C74.12 32.92 74.26 33 74.4 33.08C74.54 33.16 74.68 33.25 74.81 33.34C76.57 34.48 77.78 36.38 78 38.56L78.02 38.76C78.05 38.98 78.06 39.2 78.07 39.42L78.5 55.63ZM74.05 39.2L74.47 57.46L74.13 77.44C74.05 80.27 71.88 82.59 69.06 82.85C63.41 83.37 57.72 83.37 52.07 82.85C49.25 82.59 47.08 80.27 47 77.44L46.66 57.46L47.08 39.2C47.08 39.16 47.08 39.13 47.09 39.09C47.24 38.02 47.86 37.09 48.74 36.53C49.07 36.36 49.44 36.24 49.84 36.2C56.97 35.43 64.16 35.43 71.29 36.2C71.69 36.24 72.06 36.36 72.39 36.53C73.27 37.09 73.89 38.02 74.04 39.09C74.05 39.13 74.05 39.16 74.05 39.2ZM60.56 79.16C62.77 79.16 64.55 77.37 64.55 75.17C64.55 72.97 62.77 71.18 60.56 71.18C58.36 71.18 56.58 72.97 56.58 75.17C56.58 77.37 58.36 79.16 60.56 79.16Z" fill="#10BB87" fill-opacity="1.000000" fill-rule="evenodd"/>
</svg>
