<svg width="73.772461" height="73.449463" viewBox="0 0 73.7725 73.4495" fill="none" xmlns="http://www.w3.org/2000/svg" xmlns:xlink="http://www.w3.org/1999/xlink">
	<desc>
			Created with Pixso.
	</desc>
	<defs>
		<filter id="filter_7_406_dd" x="0.000000" y="0.000000" width="73.772461" height="73.449463" filterUnits="userSpaceOnUse" color-interpolation-filters="sRGB">
			<feFlood flood-opacity="0" result="BackgroundImageFix"/>
			<feColorMatrix in="SourceAlpha" type="matrix" values="0 0 0 0 0 0 0 0 0 0 0 0 0 0 0 0 0 0 127 0" result="hardAlpha"/>
			<feOffset dx="0" dy="4"/>
			<feGaussianBlur stdDeviation="2.33333"/>
			<feComposite in2="hardAlpha" operator="out" k2="-1" k3="1"/>
			<feColorMatrix type="matrix" values="0 0 0 0 0 0 0 0 0 0 0 0 0 0 0 0 0 0 0.15 0"/>
			<feBlend mode="normal" in2="BackgroundImageFix" result="effect_dropShadow_1"/>
			<feBlend mode="normal" in="SourceGraphic" in2="effect_dropShadow_1" result="shape"/>
		</filter>
	</defs>
	<g filter="url(#filter_7_406_dd)">
		<rect id="back" x="7.000000" y="3.000000" rx="10.000000" width="59.772728" height="59.449413" fill="#FFFFFF" fill-opacity="1.000000"/>
	</g>
	<path id="Icon" d="M30.33 21.37C34.65 20.89 39.11 20.89 43.43 21.37C45.94 21.64 47.96 23.61 48.25 26.11C48.77 30.5 48.77 34.94 48.25 39.33C47.96 41.83 45.94 43.79 43.43 44.07C39.11 44.55 34.65 44.55 30.33 44.07C27.83 43.79 25.81 41.83 25.51 39.33C25 34.94 25 30.5 25.51 26.11C25.81 23.61 27.83 21.64 30.33 21.37ZM43.22 23.21C39.04 22.75 34.72 22.75 30.54 23.21C28.88 23.4 27.56 24.7 27.37 26.33C26.87 30.57 26.87 34.86 27.37 39.11C27.56 40.74 28.88 42.04 30.54 42.23C34.72 42.69 39.04 42.69 43.22 42.23C44.88 42.04 46.21 40.74 46.4 39.11C46.9 34.86 46.9 30.57 46.4 26.33C46.21 24.7 44.88 23.4 43.22 23.21ZM41.86 26.53C41.86 25.84 42.42 25.29 43.11 25.29C43.8 25.29 44.35 25.84 44.35 26.53C44.35 27.21 43.8 27.77 43.11 27.77C42.42 27.77 41.86 27.21 41.86 26.53ZM36.88 26.84C33.62 26.84 30.97 29.47 30.97 32.72C30.97 35.97 33.62 38.6 36.88 38.6C40.15 38.6 42.8 35.97 42.8 32.72C42.8 29.47 40.15 26.84 36.88 26.84ZM32.83 32.72C32.83 30.5 34.65 28.69 36.88 28.69C39.12 28.69 40.93 30.5 40.93 32.72C40.93 34.94 39.12 36.75 36.88 36.75C34.65 36.75 32.83 34.94 32.83 32.72Z" fill="#487B6C" fill-opacity="1.000000" fill-rule="evenodd"/>
</svg>
