<svg width="35.937988" height="35.000000" viewBox="0 0 35.938 35" fill="none" xmlns="http://www.w3.org/2000/svg" xmlns:xlink="http://www.w3.org/1999/xlink">
	<desc>
			Created with Pixso.
	</desc>
	<defs>
		<clipPath id="clip12_1803">
			<rect id="Уменьшать" width="16.000000" height="16.000000" transform="translate(10.000000 10.000000)" fill="white" fill-opacity="0"/>
		</clipPath>
	</defs>
	<path id="Прямоугольник 5" d="M10 0L25.93 0C31.46 0 35.93 4.47 35.93 10L35.93 17.5L35.93 25C35.93 30.52 31.46 35 25.93 35L10 35C4.47 35 0 30.52 0 25L0 10C0 4.47 4.47 0 10 0Z" fill="#808080" fill-opacity="1.000000" fill-rule="evenodd"/>
	<g clip-path="url(#clip12_1803)">
		<path id="path" d="M13.52 18.73L13.5 18.75C13.08 18.75 12.75 18.41 12.75 18C12.75 17.58 13.08 17.25 13.5 17.25L13.52 17.27L13.52 18.73ZM22.81 17.27L22.83 17.25C23.25 17.25 23.58 17.58 23.58 18C23.58 18.41 23.25 18.75 22.83 18.75L22.81 18.73L22.81 17.27Z" fill="#000000" fill-opacity="0" fill-rule="nonzero"/>
		<path id="path" d="M13.5 18L22.83 18" stroke="#FFFFFF" stroke-opacity="1.000000" stroke-width="1.500000" stroke-linejoin="round" stroke-linecap="round"/>
	</g>
</svg>
