<svg width="16.000000" height="16.000000" viewBox="0 0 16 16" fill="none" xmlns="http://www.w3.org/2000/svg" xmlns:xlink="http://www.w3.org/1999/xlink">
	<desc>
			Created with Pixso.
	</desc>
	<defs/>
	<path id="Icon" d="M5.33 3.03C7.13 2.89 8.93 2.9 10.73 3.06L11.81 3.15C12.63 3.22 13.29 3.84 13.42 4.65L13.49 5.1C13.72 6.61 13.7 8.15 13.42 9.65C13.29 10.4 12.64 10.94 11.88 10.94L5.9 10.94C5.76 10.94 5.63 10.97 5.51 11.03L2.9 12.44C2.74 12.52 2.56 12.51 2.41 12.42C2.25 12.33 2.16 12.17 2.16 12L2.16 6.32C2.16 4.6 3.49 3.17 5.2 3.04L5.33 3.03ZM10.64 4.05C8.9 3.9 7.15 3.9 5.4 4.03L5.28 4.04C4.08 4.13 3.16 5.12 3.16 6.32L3.16 11.16L5.03 10.15C5.3 10.01 5.6 9.94 5.9 9.94L11.88 9.94C12.16 9.94 12.39 9.74 12.44 9.47C12.69 8.08 12.71 6.65 12.5 5.25L12.43 4.8C12.37 4.45 12.08 4.18 11.73 4.15L10.64 4.05ZM4.49 7.16C4.49 6.7 4.87 6.33 5.33 6.33C5.79 6.33 6.16 6.7 6.16 7.16C6.16 7.62 5.79 8 5.33 8C4.87 8 4.49 7.62 4.49 7.16ZM7.16 7.16C7.16 6.7 7.53 6.33 7.99 6.33C8.46 6.33 8.83 6.7 8.83 7.16C8.83 7.62 8.46 8 7.99 8C7.53 8 7.16 7.62 7.16 7.16ZM9.83 7.16C9.83 6.7 10.2 6.33 10.66 6.33C11.12 6.33 11.5 6.7 11.5 7.16C11.5 7.62 11.12 8 10.66 8C10.2 8 9.83 7.62 9.83 7.16Z" fill="#000000" fill-opacity="1.000000" fill-rule="evenodd"/>
</svg>
