<svg width="14.500000" height="14.500000" viewBox="0 0 14.5 14.5" fill="none" xmlns="http://www.w3.org/2000/svg" xmlns:xlink="http://www.w3.org/1999/xlink">
	<desc>
			Created with Pixso.
	</desc>
	<defs/>
	<path id="Icon" d="M9.13 10.02C6.92 11.78 3.69 11.65 1.64 9.6C-0.55 7.4 -0.55 3.84 1.64 1.64C3.84 -0.55 7.4 -0.55 9.6 1.64C11.65 3.69 11.78 6.92 10.02 9.13L14.31 13.43C14.56 13.67 14.56 14.07 14.31 14.31C14.07 14.56 13.67 14.56 13.43 14.31L9.13 10.02ZM2.53 8.71C0.82 7.01 0.82 4.23 2.53 2.53C4.23 0.82 7.01 0.82 8.71 2.53C10.42 4.23 10.42 7 8.72 8.71C8.72 8.71 8.72 8.71 8.71 8.71C8.71 8.71 8.71 8.72 8.71 8.72C7 10.42 4.23 10.42 2.53 8.71Z" fill="#000000" fill-opacity="1.000000" fill-rule="evenodd"/>
</svg>
