<svg width="50.000000" height="50.000000" viewBox="0 0 50 50" fill="none" xmlns="http://www.w3.org/2000/svg" xmlns:xlink="http://www.w3.org/1999/xlink">
	<desc>
			Created with Pixso.
	</desc>
	<defs/>
	<path id="Icon" d="M25 9.89C20.81 9.89 17.03 11.59 14.3 14.33C14.24 14.39 14.18 14.44 14.12 14.48L16.68 17.04C16.97 17.33 17.06 17.75 16.93 18.13C16.79 18.51 16.44 18.78 16.04 18.81L7.94 19.55C7.63 19.58 7.33 19.47 7.11 19.25C6.89 19.03 6.78 18.73 6.81 18.42L7.54 10.32C7.58 9.91 7.85 9.57 8.23 9.43C8.61 9.29 9.03 9.39 9.32 9.68L11.94 12.3C11.98 12.24 12.03 12.18 12.08 12.13C15.38 8.82 19.95 6.77 25 6.77C35.06 6.77 43.22 14.93 43.22 25C43.22 35.06 35.06 43.22 25 43.22C14.93 43.22 6.77 35.06 6.77 25C6.77 24.13 7.47 23.43 8.33 23.43C9.19 23.43 9.89 24.13 9.89 25C9.89 33.34 16.65 40.1 25 40.1C33.34 40.1 40.1 33.34 40.1 25C40.1 16.65 33.34 9.89 25 9.89ZM25 13.02C25.86 13.02 26.56 13.72 26.56 14.58L26.56 24.13L32.07 27.58C32.8 28.03 33.03 29 32.57 29.73C32.11 30.46 31.15 30.68 30.42 30.23L24.17 26.32C23.71 26.03 23.43 25.53 23.43 25L23.43 14.58C23.43 13.72 24.13 13.02 25 13.02Z" fill="#10BB87" fill-opacity="1.000000" fill-rule="evenodd"/>
</svg>
