<svg width="49.000000" height="48.894775" viewBox="0 0 49 48.8948" fill="none" xmlns="http://www.w3.org/2000/svg" xmlns:xlink="http://www.w3.org/1999/xlink">
	<desc>
			Created with Pixso.
	</desc>
	<defs>
		<filter id="filter_4_1762_dd" x="0.000000" y="0.000000" width="49.000000" height="48.894775" filterUnits="userSpaceOnUse" color-interpolation-filters="sRGB">
			<feFlood flood-opacity="0" result="BackgroundImageFix"/>
			<feColorMatrix in="SourceAlpha" type="matrix" values="0 0 0 0 0 0 0 0 0 0 0 0 0 0 0 0 0 0 127 0" result="hardAlpha"/>
			<feOffset dx="0" dy="4"/>
			<feGaussianBlur stdDeviation="2.33333"/>
			<feComposite in2="hardAlpha" operator="out" k2="-1" k3="1"/>
			<feColorMatrix type="matrix" values="0 0 0 0 0 0 0 0 0 0 0 0 0 0 0 0 0 0 0.15 0"/>
			<feBlend mode="normal" in2="BackgroundImageFix" result="effect_dropShadow_1"/>
			<feBlend mode="normal" in="SourceGraphic" in2="effect_dropShadow_1" result="shape"/>
		</filter>
	</defs>
	<g filter="url(#filter_4_1762_dd)">
		<rect id="back" x="7.000000" y="3.000000" rx="10.000000" width="35.000000" height="34.894733" fill="#FFFFFF" fill-opacity="1.000000"/>
	</g>
	<path id="Icon" d="M24.57 14.63C22.88 14.63 21.51 15.99 21.51 17.68C21.51 19.36 22.88 20.73 24.57 20.73C26.26 20.73 27.63 19.36 27.63 17.68C27.63 15.99 26.26 14.63 24.57 14.63ZM22.59 17.68C22.59 16.59 23.48 15.7 24.57 15.7C25.66 15.7 26.55 16.59 26.55 17.68C26.55 18.77 25.66 19.65 24.57 19.65C23.48 19.65 22.59 18.77 22.59 17.68ZM21.69 21.8C20.2 21.8 19 23.01 19 24.49L19 25.35C19 25.89 19.39 26.35 19.92 26.44C23 26.94 26.14 26.94 29.22 26.44C29.75 26.35 30.14 25.89 30.14 25.35L30.14 24.49C30.14 23.01 28.94 21.8 27.45 21.8L27.2 21.8C27.07 21.8 26.94 21.82 26.81 21.87L26.19 22.07C25.14 22.41 24 22.41 22.95 22.07L22.33 21.87C22.2 21.82 22.07 21.8 21.94 21.8L21.69 21.8ZM20.07 24.49C20.07 23.6 20.8 22.88 21.69 22.88L21.94 22.88C21.96 22.88 21.98 22.88 21.99 22.89L22.62 23.09C23.89 23.5 25.25 23.5 26.52 23.09L27.15 22.89C27.16 22.88 27.18 22.88 27.2 22.88L27.45 22.88C28.34 22.88 29.06 23.6 29.06 24.49L29.06 25.35C29.06 25.36 29.06 25.37 29.04 25.37C26.08 25.86 23.06 25.86 20.1 25.37C20.08 25.37 20.07 25.36 20.07 25.35L20.07 24.49Z" fill="#000000" fill-opacity="1.000000" fill-rule="evenodd"/>
</svg>
