<svg width="73.772461" height="73.449463" viewBox="0 0 73.7725 73.4495" fill="none" xmlns="http://www.w3.org/2000/svg" xmlns:xlink="http://www.w3.org/1999/xlink">
	<desc>
			Created with Pixso.
	</desc>
	<defs>
		<filter id="filter_7_403_dd" x="0.000000" y="0.000000" width="73.772461" height="73.449463" filterUnits="userSpaceOnUse" color-interpolation-filters="sRGB">
			<feFlood flood-opacity="0" result="BackgroundImageFix"/>
			<feColorMatrix in="SourceAlpha" type="matrix" values="0 0 0 0 0 0 0 0 0 0 0 0 0 0 0 0 0 0 127 0" result="hardAlpha"/>
			<feOffset dx="0" dy="4"/>
			<feGaussianBlur stdDeviation="2.33333"/>
			<feComposite in2="hardAlpha" operator="out" k2="-1" k3="1"/>
			<feColorMatrix type="matrix" values="0 0 0 0 0 0 0 0 0 0 0 0 0 0 0 0 0 0 0.15 0"/>
			<feBlend mode="normal" in2="BackgroundImageFix" result="effect_dropShadow_1"/>
			<feBlend mode="normal" in="SourceGraphic" in2="effect_dropShadow_1" result="shape"/>
		</filter>
	</defs>
	<g filter="url(#filter_7_403_dd)">
		<rect id="back" x="7.000000" y="3.000000" rx="10.000000" width="59.772728" height="59.449413" fill="#FFFFFF" fill-opacity="1.000000"/>
	</g>
	<path id="Icon" d="M30.62 23.61C34.79 23.28 38.98 23.28 43.15 23.61L45.94 23.82C47.63 23.96 49.02 25.22 49.3 26.89C49.95 30.75 49.95 34.69 49.3 38.55C49.02 40.22 47.63 41.48 45.94 41.62L43.15 41.83C38.98 42.16 34.79 42.16 30.62 41.83L27.83 41.62C26.13 41.48 24.74 40.22 24.46 38.55C23.81 34.69 23.81 30.75 24.46 26.89C24.74 25.22 26.13 23.96 27.83 23.82L30.62 23.61ZM43 25.46C38.93 25.14 34.83 25.14 30.76 25.46L27.97 25.67C27.13 25.74 26.44 26.37 26.3 27.2C25.69 30.85 25.69 34.59 26.3 38.24C26.44 39.07 27.13 39.7 27.97 39.76L30.76 39.98C34.83 40.3 38.93 40.3 43 39.98L45.79 39.76C46.63 39.7 47.32 39.07 47.46 38.24C48.07 34.59 48.07 30.85 47.46 27.2C47.32 26.37 46.63 25.74 45.79 25.67L43 25.46ZM33.93 28.2C34.22 28.03 34.58 28.04 34.87 28.21L41.1 31.92C41.38 32.09 41.55 32.39 41.55 32.72C41.55 33.05 41.38 33.35 41.1 33.52L34.87 37.23C34.58 37.4 34.22 37.41 33.93 37.24C33.64 37.08 33.46 36.77 33.46 36.44L33.46 29C33.46 28.67 33.64 28.36 33.93 28.2ZM35.32 34.79L38.8 32.72L35.32 30.64L35.32 34.79Z" fill="#487B6C" fill-opacity="1.000000" fill-rule="evenodd"/>
</svg>
